<?xml version="1.0" encoding="UTF-8" standalone="no"?>
<!-- Created with Inkscape (http://www.inkscape.org/) -->
<svg
   xmlns:dc="http://purl.org/dc/elements/1.1/"
   xmlns:cc="http://creativecommons.org/ns#"
   xmlns:rdf="http://www.w3.org/1999/02/22-rdf-syntax-ns#"
   xmlns:svg="http://www.w3.org/2000/svg"
   xmlns="http://www.w3.org/2000/svg"
   xmlns:xlink="http://www.w3.org/1999/xlink"
   xmlns:sodipodi="http://sodipodi.sourceforge.net/DTD/sodipodi-0.dtd"
   xmlns:inkscape="http://www.inkscape.org/namespaces/inkscape"
   width="64"
   height="64"
   id="svg2"
   sodipodi:version="0.32"
   inkscape:version="0.46"
   version="1.0"
   sodipodi:docname="examineer.svg"
   inkscape:output_extension="org.inkscape.output.svg.inkscape"
   inkscape:export-filename="/home/rameses/Desktop/examineer.png"
   inkscape:export-xdpi="90"
   inkscape:export-ydpi="90">
  <defs
     id="defs4">
    <linearGradient
       inkscape:collect="always"
       id="linearGradient3579">
      <stop
         style="stop-color:#a0a09e;stop-opacity:1;"
         offset="0"
         id="stop3581" />
      <stop
         style="stop-color:#a0a09e;stop-opacity:0;"
         offset="1"
         id="stop3583" />
    </linearGradient>
    <linearGradient
       id="linearGradient3453">
      <stop
         style="stop-color:#ffffff;stop-opacity:1;"
         offset="0"
         id="stop3455" />
      <stop
         style="stop-color:#d9d9d9;stop-opacity:1;"
         offset="1"
         id="stop3457" />
    </linearGradient>
    <linearGradient
       id="linearGradient3657">
      <stop
         id="stop3659"
         offset="0"
         style="stop-color:#42acef;stop-opacity:1;" />
      <stop
         id="stop3661"
         offset="1"
         style="stop-color:#063275;stop-opacity:1;" />
    </linearGradient>
    <linearGradient
       id="linearGradient3168-1-5">
      <stop
         style="stop-color:#ffffff;stop-opacity:1;"
         offset="0"
         id="stop3170-7-1" />
      <stop
         id="stop5123-7"
         offset="0.5"
         style="stop-color:#404729;stop-opacity:1;" />
      <stop
         style="stop-color:#000b0b;stop-opacity:1;"
         offset="1"
         id="stop3172-4-1" />
    </linearGradient>
    <linearGradient
       y2="-9.7877235"
       x2="14.678609"
       y1="18.716543"
       x1="-8.2522736"
       gradientTransform="matrix(0.6745349,-1.9155948,1.8029001,0.6348519,21.214268,36.494425)"
       gradientUnits="userSpaceOnUse"
       id="linearGradient3310-5"
       xlink:href="#linearGradient3168-1-5"
       inkscape:collect="always" />
    <filter
       color-interpolation-filters="sRGB"
       height="1.2767946"
       y="-0.13839723"
       width="1.26509"
       x="-0.13254499"
       id="filter3205-2"
       inkscape:collect="always">
      <feGaussianBlur
         id="feGaussianBlur3207-4"
         stdDeviation="1.3286108"
         inkscape:collect="always" />
    </filter>
    <linearGradient
       id="linearGradient3217-0-4">
      <stop
         id="stop3219-9-8"
         offset="0"
         style="stop-color:#ffffff;stop-opacity:1;" />
      <stop
         id="stop3221-4-8"
         offset="1"
         style="stop-color:#ffffff;stop-opacity:0.18103448;" />
    </linearGradient>
    <radialGradient
       r="11.964466"
       fy="5.5948043"
       fx="22.442381"
       cy="5.5948043"
       cx="22.442381"
       gradientTransform="matrix(-1.582008,-0.1078287,-0.7663741,-1.8862965,62.234121,19.341693)"
       gradientUnits="userSpaceOnUse"
       id="radialGradient3308-9"
       xlink:href="#linearGradient3217-0-4"
       inkscape:collect="always" />
    <filter
       color-interpolation-filters="sRGB"
       inkscape:collect="always"
       id="filter3969-4"
       x="-0.47043234"
       width="1.9408647"
       y="-0.72864407"
       height="2.4572883">
      <feGaussianBlur
         inkscape:collect="always"
         stdDeviation="1.0376655"
         id="feGaussianBlur3971-0" />
    </filter>
    <filter
       color-interpolation-filters="sRGB"
       height="2.0545726"
       y="-0.52728629"
       width="2.1263123"
       x="-0.56315613"
       id="filter3295-1"
       inkscape:collect="always">
      <feGaussianBlur
         id="feGaussianBlur3297-7"
         stdDeviation="6.160729"
         inkscape:collect="always" />
    </filter>
    <filter
       inkscape:collect="always"
       id="filter3565">
      <feGaussianBlur
         inkscape:collect="always"
         stdDeviation="1.0093097"
         id="feGaussianBlur3567" />
    </filter>
    <filter
       inkscape:collect="always"
       id="filter3663"
       x="-0.12594204"
       width="1.2518841"
       y="-0.077107362"
       height="1.1542147">
      <feGaussianBlur
         inkscape:collect="always"
         stdDeviation="0.3084137"
         id="feGaussianBlur3665" />
    </filter>
    <filter
       inkscape:collect="always"
       id="filter3763"
       x="-0.13166668"
       width="1.2633334"
       y="-0.08061224"
       height="1.1612245">
      <feGaussianBlur
         inkscape:collect="always"
         stdDeviation="0.3224325"
         id="feGaussianBlur3765" />
    </filter>
    <linearGradient
       id="linearGradient21225"
       inkscape:collect="always">
      <stop
         id="stop21227"
         offset="0"
         style="stop-color:#000000;stop-opacity:1;" />
      <stop
         id="stop21229"
         offset="1"
         style="stop-color:#000000;stop-opacity:0;" />
    </linearGradient>
    <radialGradient
       inkscape:collect="always"
       xlink:href="#linearGradient3217-0-4"
       id="radialGradient4308"
       gradientUnits="userSpaceOnUse"
       gradientTransform="matrix(-1.582008,-0.1078287,-0.7663741,-1.8862965,62.234121,19.341693)"
       cx="22.442381"
       cy="5.5948043"
       fx="22.442381"
       fy="5.5948043"
       r="11.964466" />
    <linearGradient
       inkscape:collect="always"
       xlink:href="#linearGradient3168-1-5"
       id="linearGradient4310"
       gradientUnits="userSpaceOnUse"
       gradientTransform="matrix(0.6745349,-1.9155948,1.8029001,0.6348519,21.214268,36.494425)"
       x1="-8.2522736"
       y1="18.716543"
       x2="14.678609"
       y2="-9.7877235" />
    <linearGradient
       inkscape:collect="always"
       xlink:href="#linearGradient21225"
       id="linearGradient4404"
       gradientUnits="userSpaceOnUse"
       x1="35.426762"
       y1="44.365097"
       x2="31.690262"
       y2="32.724712" />
    <linearGradient
       inkscape:collect="always"
       xlink:href="#linearGradient3657"
       id="linearGradient4406"
       gradientUnits="userSpaceOnUse"
       x1="5.3795204"
       y1="9.2212572"
       x2="19.313725"
       y2="9.2212572" />
    <linearGradient
       inkscape:collect="always"
       xlink:href="#linearGradient3657"
       id="linearGradient4413"
       gradientUnits="userSpaceOnUse"
       x1="5.3795204"
       y1="9.2212572"
       x2="19.313725"
       y2="9.2212572" />
    <radialGradient
       inkscape:collect="always"
       xlink:href="#linearGradient3453"
       id="radialGradient4424"
       gradientUnits="userSpaceOnUse"
       gradientTransform="matrix(0.5622506,0,0,0.3873521,-4.8491137,20.269821)"
       cx="-28.448072"
       cy="23.408152"
       fx="-28.448072"
       fy="23.408152"
       r="23.617189" />
    <radialGradient
       inkscape:collect="always"
       xlink:href="#linearGradient3453"
       id="radialGradient4426"
       gradientUnits="userSpaceOnUse"
       gradientTransform="matrix(0.5377481,0,0,0.3658695,-5.5165567,20.826586)"
       cx="-28.448072"
       cy="23.408152"
       fx="-28.448072"
       fy="23.408152"
       r="23.617189" />
    <radialGradient
       inkscape:collect="always"
       xlink:href="#linearGradient3453"
       id="radialGradient4428"
       gradientUnits="userSpaceOnUse"
       gradientTransform="matrix(1.9073223,1.700467e-7,-1.3152692e-7,1.462405,57.147278,-3.8084425)"
       cx="-63.883755"
       cy="7.5846386"
       fx="-63.883755"
       fy="7.5846386"
       r="13.973815" />
    <linearGradient
       inkscape:collect="always"
       xlink:href="#linearGradient3579"
       id="linearGradient4430"
       gradientUnits="userSpaceOnUse"
       gradientTransform="translate(58.380695,5.0936173)"
       x1="-44.471199"
       y1="37.944183"
       x2="-37.222591"
       y2="28.9324" />
    <linearGradient
       inkscape:collect="always"
       xlink:href="#linearGradient3579"
       id="linearGradient4432"
       gradientUnits="userSpaceOnUse"
       gradientTransform="matrix(-1,0,0,1,3.1345335,4.8977093)"
       x1="-44.471199"
       y1="37.944183"
       x2="-37.222591"
       y2="28.9324" />
  </defs>
  <sodipodi:namedview
     id="base"
     pagecolor="#ffffff"
     bordercolor="#666666"
     borderopacity="1.0"
     gridtolerance="10000"
     guidetolerance="10"
     objecttolerance="10"
     inkscape:pageopacity="0.0"
     inkscape:pageshadow="2"
     inkscape:zoom="3.609375"
     inkscape:cx="43.585143"
     inkscape:cy="30.350953"
     inkscape:document-units="px"
     inkscape:current-layer="layer1"
     showgrid="false"
     inkscape:window-width="1018"
     inkscape:window-height="688"
     inkscape:window-x="-5"
     inkscape:window-y="25" />
  <metadata
     id="metadata7">
    <rdf:RDF>
      <cc:Work
         rdf:about="">
        <dc:format>image/svg+xml</dc:format>
        <dc:type
           rdf:resource="http://purl.org/dc/dcmitype/StillImage" />
      </cc:Work>
    </rdf:RDF>
  </metadata>
  <g
     inkscape:label="Layer 1"
     inkscape:groupmode="layer"
     id="layer1">
    <g
       id="layer3"
       inkscape:label="emblem"
       style="display:none"
       sodipodi:insensitive="true"
       transform="matrix(0.2490448,0,0,0.2490448,-39.057816,32.081792)">
      <g
         transform="matrix(1.2863293,0,0,1.2863293,-0.561065,46.47865)"
         id="g3312"
         style="display:inline">
        <g
           id="g3314"
           inkscape:label="main color"
           style="display:inline">
          <path
             sodipodi:type="arc"
             style="fill:#440055;fill-opacity:1;stroke:none;display:inline"
             id="path3316"
             sodipodi:cx="3.8400393"
             sodipodi:cy="4.7625117"
             sodipodi:rx="13.127576"
             sodipodi:ry="14.020609"
             d="M 16.967615,4.7625117 A 13.127576,14.020609 0 1 1 -9.2875366,4.7625117 A 13.127576,14.020609 0 1 1 16.967615,4.7625117 z"
             transform="matrix(2.0024684,0,0,1.8427814,24.424997,23.319932)" />
        </g>
        <g
           id="g3318"
           inkscape:label="design glow"
           style="display:inline">
          <path
             sodipodi:type="arc"
             style="opacity:0.76293137;fill:#dd55ff;fill-opacity:1;stroke:none;display:inline;filter:url(#filter3295-1)"
             id="path3320"
             sodipodi:cx="3.8400393"
             sodipodi:cy="4.7625117"
             sodipodi:rx="13.127576"
             sodipodi:ry="14.020609"
             d="M 16.967615,4.7625117 A 13.127576,14.020609 0 1 1 -9.2875366,4.7625117 A 13.127576,14.020609 0 1 1 16.967615,4.7625117 z"
             transform="matrix(0.9909652,0,0,1.0381495,30.40161,33.685384)" />
          <path
             sodipodi:type="arc"
             style="fill:#ffffff;fill-opacity:1;stroke:none;display:inline;filter:url(#filter3969-4)"
             id="path3322"
             sodipodi:cx="11.296861"
             sodipodi:cy="11.90677"
             sodipodi:rx="2.9916587"
             sodipodi:ry="1.2502455"
             d="M 14.288519,11.90677 A 2.9916587,1.2502455 0 1 1 8.305202,11.90677 A 2.9916587,1.2502455 0 1 1 14.288519,11.90677 z"
             transform="matrix(3.2357017,0.8976466,0.2076117,5.1935982,6.2036668,-54.794796)"
             inkscape:transform-center-x="-2.1274419" />
          <path
             style="opacity:0.55;fill:url(#radialGradient3308-9);fill-opacity:1;stroke:none;display:inline;filter:url(#filter3205-2)"
             d="M 30.158688,13.71824 C 30.881181,21.342171 31.881057,21.817535 26.411417,23.501257 C 17.327017,26.297713 6.1225638,17.200156 7.7508453,9.0346827 C 8.8076677,3.7349511 12.086406,2.8836964 19.825319,3.6015692 C 24.933075,4.0753721 29.332844,6.9456925 30.158688,13.71824 z"
             id="path3324"
             sodipodi:nodetypes="csssc"
             transform="matrix(1.7133019,1.095033e-2,0.3795097,1.6017425,1.1520735,-1.4038883)"
             inkscape:connector-curvature="0" />
        </g>
        <g
           id="g3326"
           inkscape:label="featured sign"
           style="display:inline">
          <g
             id="g3328"
             transform="matrix(2.5321622,0,0,2.5321622,-201.39372,-73.750555)">
            <rect
               y="38.427055"
               x="87.651009"
               height="5.7649102"
               width="2.3006864"
               id="rect3330"
               style="fill:#ffffff;fill-opacity:1;stroke:none" />
            <path
               inkscape:connector-curvature="0"
               sodipodi:nodetypes="cccc"
               id="path3332"
               d="M 92.306566,32.783898 L 100.41882,37.900751 L 84.259813,37.942401 L 92.306566,32.783895 L 92.306566,32.783898 z"
               style="fill:#ffffff;fill-opacity:1;stroke:none" />
            <rect
               y="44.847576"
               x="85.465057"
               height="2.6651387"
               width="13.925744"
               id="rect3334"
               style="fill:#ffffff;fill-opacity:1;stroke:none" />
            <rect
               y="38.434704"
               x="91.454811"
               height="5.8168583"
               width="2.3006864"
               id="rect3336"
               style="fill:#ffffff;fill-opacity:1;stroke:none" />
            <rect
               y="38.471367"
               x="95.176529"
               height="5.7523055"
               width="2.3006864"
               id="rect3338"
               style="fill:#ffffff;fill-opacity:1;stroke:none" />
          </g>
        </g>
        <g
           id="g3340"
           inkscape:label="matte"
           style="display:inline">
          <path
             sodipodi:type="arc"
             style="opacity:0.11764706;fill:#000000;fill-opacity:1;fill-rule:evenodd;stroke:none;stroke-width:0.5;marker:none;visibility:visible;display:inline;overflow:visible;enable-background:accumulate"
             id="path3342"
             sodipodi:cx="37.155247"
             sodipodi:cy="43.815315"
             sodipodi:rx="24.813021"
             sodipodi:ry="24.813021"
             d="M 61.968267,43.815315 A 24.813021,24.813021 0 1 1 12.342226,43.815315 A 24.813021,24.813021 0 1 1 61.968267,43.815315 z"
             transform="matrix(1.0563953,0,0,1.043765,-6.960914,-13.876601)" />
          <path
             style="opacity:0.1;fill:#000000;fill-opacity:1;fill-rule:evenodd;stroke:none;stroke-width:1.03478062;marker:none;visibility:visible;display:inline;overflow:visible;enable-background:accumulate"
             d="M 60.568249,38.086416 C 60.568249,23.531083 49.131445,39.393868 33.307272,39.393868 C 17.483101,39.393868 3.2342964,23.531083 3.2342964,38.086416 C 3.2342964,52.641751 16.077101,64.454777 31.901275,64.454777 C 47.725444,64.454777 60.568249,52.641751 60.568249,38.086416 L 60.568249,38.086416 z"
             id="path3344"
             sodipodi:nodetypes="csssc"
             inkscape:connector-curvature="0" />
        </g>
        <g
           id="g3346"
           inkscape:label="outer rings"
           style="display:inline">
          <path
             sodipodi:type="arc"
             style="fill:none;stroke:#808080;stroke-width:1.75127864;stroke-miterlimit:4;stroke-dasharray:none;stroke-opacity:1"
             id="path3348"
             sodipodi:cx="3.8400393"
             sodipodi:cy="4.7625117"
             sodipodi:rx="13.127576"
             sodipodi:ry="14.020609"
             d="M 16.967615,4.7625117 A 13.127576,14.020609 0 1 1 -9.2875366,4.7625117 A 13.127576,14.020609 0 1 1 16.967615,4.7625117 z"
             transform="matrix(2.2227398,0,0,2.0790335,23.633408,22.218732)" />
          <path
             sodipodi:type="arc"
             style="fill:none;stroke:#333333;stroke-width:0.45320269;stroke-miterlimit:4;stroke-dasharray:none;stroke-opacity:1;display:inline"
             id="path3350"
             sodipodi:cx="3.8400393"
             sodipodi:cy="4.7625117"
             sodipodi:rx="13.127576"
             sodipodi:ry="14.020609"
             d="M 16.967615,4.7625117 A 13.127576,14.020609 0 1 1 -9.2875366,4.7625117 A 13.127576,14.020609 0 1 1 16.967615,4.7625117 z"
             transform="matrix(2.3931082,0,0,2.231106,22.894477,21.452062)" />
          <path
             style="fill:none;stroke:url(#linearGradient3310-5);stroke-width:1.92407775;stroke-miterlimit:4;stroke-dasharray:none;stroke-opacity:1"
             d="M 41.281497,6.9136035 C 55.23482,11.826962 62.55656,27.181768 57.668597,41.062969 C 52.780635,54.944177 37.489154,62.222432 23.53583,57.309074 C 9.5825097,52.395716 2.2251183,37.142155 7.1130824,23.260948 C 12.001044,9.3797453 27.42309,1.7306998 41.281497,6.9136035 z"
             id="path3352"
             sodipodi:nodetypes="csssc"
             inkscape:connector-curvature="0" />
        </g>
      </g>
    </g>
    <g
       id="g4415"
       transform="matrix(1.3679531,0,0,1.3679531,59.209125,-1.4157311)">
      <path
         sodipodi:nodetypes="ccccccccc"
         id="path3465"
         d="M -27.563187,22.495051 C -31.236481,24.77562 -33.747262,27.170535 -33.841714,30.095375 L -33.841714,34.61151 C -33.81545,37.014469 -30.558889,39.692288 -27.783486,40.22914 L -12.913288,40.22914 C -10.143679,39.833835 -7.9517487,37.262537 -7.8464047,35.823155 L -7.8464047,30.205525 C -8.1857337,26.30448 -11.520739,24.672957 -13.794484,22.605202 L -27.563187,22.495051 z"
         style="fill:url(#radialGradient4424);fill-opacity:1;fill-rule:evenodd;stroke:#888a85;stroke-width:0.56225067px;stroke-linecap:butt;stroke-linejoin:miter;stroke-opacity:1" />
      <path
         style="fill:url(#radialGradient4426);fill-opacity:1;fill-rule:evenodd;stroke:#e3e3e1;stroke-width:0.5343976px;stroke-linecap:butt;stroke-linejoin:miter;stroke-opacity:1"
         d="M -27.240758,22.928405 C -30.753973,25.082493 -33.155335,27.344585 -33.245671,30.107213 L -33.245671,34.37288 C -33.220551,36.642571 -30.10591,39.171878 -27.451458,39.678955 L -13.229297,39.678955 C -10.580386,39.305573 -8.4839797,36.876881 -8.3832257,35.517328 L -8.3832257,30.211253 C -8.7077667,26.526561 -11.897433,24.985523 -14.072091,23.032445 L -27.240758,22.928405 z"
         id="path3571"
         sodipodi:nodetypes="ccccccccc" />
      <path
         transform="matrix(0.5370059,0,0,0.6842547,13.162797,10.098907)"
         d="M -49.760728,15.512677 A 13.223815,13.223815 0 1 1 -76.208358,15.512677 A 13.223815,13.223815 0 1 1 -49.760728,15.512677 z"
         sodipodi:ry="13.223815"
         sodipodi:rx="13.223815"
         sodipodi:cy="15.512677"
         sodipodi:cx="-62.984543"
         id="path3475"
         style="opacity:0.27205882;fill:#000000;fill-opacity:1;fill-rule:evenodd;stroke:none;stroke-width:1.5;stroke-linecap:round;stroke-linejoin:miter;marker:none;marker-start:none;marker-mid:none;marker-end:none;stroke-miterlimit:4;stroke-dasharray:none;stroke-dashoffset:0;stroke-opacity:1;visibility:visible;display:inline;overflow:visible;filter:url(#filter3565);enable-background:accumulate"
         sodipodi:type="arc" />
      <path
         transform="matrix(0.6371351,0,0,0.6371351,19.62041,8.5906421)"
         d="M -49.760728,15.512677 A 13.223815,13.223815 0 1 1 -76.208358,15.512677 A 13.223815,13.223815 0 1 1 -49.760728,15.512677 z"
         sodipodi:ry="13.223815"
         sodipodi:rx="13.223815"
         sodipodi:cy="15.512677"
         sodipodi:cx="-62.984543"
         id="path2663"
         style="opacity:1;fill:#e6e6e4;fill-opacity:1;fill-rule:evenodd;stroke:#888a85;stroke-width:1.5;stroke-linecap:round;stroke-linejoin:miter;marker:none;marker-start:none;marker-mid:none;marker-end:none;stroke-miterlimit:4;stroke-dasharray:none;stroke-dashoffset:0;stroke-opacity:1;visibility:visible;display:inline;overflow:visible;enable-background:accumulate"
         sodipodi:type="arc" />
      <path
         transform="matrix(0.5780158,0,0,0.5780158,15.796105,9.4526661)"
         d="M -49.760728,15.512677 A 13.223815,13.223815 0 1 1 -76.208358,15.512677 A 13.223815,13.223815 0 1 1 -49.760728,15.512677 z"
         sodipodi:ry="13.223815"
         sodipodi:rx="13.223815"
         sodipodi:cy="15.512677"
         sodipodi:cx="-62.984543"
         id="path2665"
         style="opacity:1;fill:url(#radialGradient4428);fill-opacity:1;fill-rule:evenodd;stroke:#e3e3e1;stroke-width:1.5;stroke-linecap:round;stroke-linejoin:miter;marker:none;marker-start:none;marker-mid:none;marker-end:none;stroke-miterlimit:4;stroke-dasharray:none;stroke-dashoffset:0;stroke-opacity:1;visibility:visible;display:inline;overflow:visible;enable-background:accumulate"
         sodipodi:type="arc" />
      <path
         transform="matrix(0.5622506,0,0,0.5622506,-37.517921,13.332163)"
         sodipodi:nodetypes="cccc"
         id="path3577"
         d="M 17.641598,34.778923 C 15.498819,37.616011 15.78764,42.109538 15.084945,45.486658 L 12.734045,42.743941 C 13.847612,39.894665 15.515767,36.953355 17.641598,34.778923 z"
         style="fill:url(#linearGradient4430);fill-opacity:1;fill-rule:evenodd;stroke:none;stroke-width:1px;stroke-linecap:butt;stroke-linejoin:miter;stroke-opacity:1;filter:url(#filter3763)" />
      <path
         transform="matrix(0.5622506,0,0,0.5622506,-37.517921,13.332163)"
         sodipodi:nodetypes="cccc"
         id="path3587"
         d="M 42.903934,35.691239 C 44.472205,38.410961 46.436885,40.646183 46.430284,45.290749 L 48.781185,42.548032 C 48.114513,38.539218 45.073449,37.696261 42.903934,35.691239 z"
         style="fill:url(#linearGradient4432);fill-opacity:1;fill-rule:evenodd;stroke:none;stroke-width:1px;stroke-linecap:butt;stroke-linejoin:miter;stroke-opacity:1;filter:url(#filter3663)" />
    </g>
    <g
       id="g4248"
       inkscape:label="emblem"
       style="display:none"
       sodipodi:insensitive="true"
       transform="matrix(0.2490448,0,0,0.2490448,-215.691,-30.183316)">
      <g
         transform="matrix(1.2863293,0,0,1.2863293,-0.561065,46.47865)"
         id="g4250"
         style="display:inline">
        <g
           id="g4252"
           inkscape:label="main color"
           style="display:inline">
          <path
             sodipodi:type="arc"
             style="fill:#440055;fill-opacity:1;stroke:none;display:inline"
             id="path4254"
             sodipodi:cx="3.8400393"
             sodipodi:cy="4.7625117"
             sodipodi:rx="13.127576"
             sodipodi:ry="14.020609"
             d="M 16.967615,4.7625117 A 13.127576,14.020609 0 1 1 -9.2875366,4.7625117 A 13.127576,14.020609 0 1 1 16.967615,4.7625117 z"
             transform="matrix(2.0024684,0,0,1.8427814,24.424997,23.319932)" />
        </g>
        <g
           id="g4256"
           inkscape:label="design glow"
           style="display:inline">
          <path
             sodipodi:type="arc"
             style="opacity:0.76293137;fill:#dd55ff;fill-opacity:1;stroke:none;display:inline;filter:url(#filter3295-1)"
             id="path4258"
             sodipodi:cx="3.8400393"
             sodipodi:cy="4.7625117"
             sodipodi:rx="13.127576"
             sodipodi:ry="14.020609"
             d="M 16.967615,4.7625117 A 13.127576,14.020609 0 1 1 -9.2875366,4.7625117 A 13.127576,14.020609 0 1 1 16.967615,4.7625117 z"
             transform="matrix(0.9909652,0,0,1.0381495,30.40161,33.685384)" />
          <path
             sodipodi:type="arc"
             style="fill:#ffffff;fill-opacity:1;stroke:none;display:inline;filter:url(#filter3969-4)"
             id="path4260"
             sodipodi:cx="11.296861"
             sodipodi:cy="11.90677"
             sodipodi:rx="2.9916587"
             sodipodi:ry="1.2502455"
             d="M 14.288519,11.90677 A 2.9916587,1.2502455 0 1 1 8.305202,11.90677 A 2.9916587,1.2502455 0 1 1 14.288519,11.90677 z"
             transform="matrix(3.2357017,0.8976466,0.2076117,5.1935982,6.2036668,-54.794796)"
             inkscape:transform-center-x="-2.1274419" />
          <path
             style="opacity:0.55;fill:url(#radialGradient4308);fill-opacity:1;stroke:none;display:inline;filter:url(#filter3205-2)"
             d="M 30.158688,13.71824 C 30.881181,21.342171 31.881057,21.817535 26.411417,23.501257 C 17.327017,26.297713 6.1225638,17.200156 7.7508453,9.0346827 C 8.8076677,3.7349511 12.086406,2.8836964 19.825319,3.6015692 C 24.933075,4.0753721 29.332844,6.9456925 30.158688,13.71824 z"
             id="path4262"
             sodipodi:nodetypes="csssc"
             transform="matrix(1.7133019,1.095033e-2,0.3795097,1.6017425,1.1520735,-1.4038883)"
             inkscape:connector-curvature="0" />
        </g>
        <g
           id="g4264"
           inkscape:label="featured sign"
           style="display:inline">
          <g
             id="g4266"
             transform="matrix(2.5321622,0,0,2.5321622,-201.39372,-73.750555)">
            <rect
               y="38.427055"
               x="87.651009"
               height="5.7649102"
               width="2.3006864"
               id="rect4268"
               style="fill:#ffffff;fill-opacity:1;stroke:none" />
            <path
               inkscape:connector-curvature="0"
               sodipodi:nodetypes="cccc"
               id="path4270"
               d="M 92.306566,32.783898 L 100.41882,37.900751 L 84.259813,37.942401 L 92.306566,32.783895 L 92.306566,32.783898 z"
               style="fill:#ffffff;fill-opacity:1;stroke:none" />
            <rect
               y="44.847576"
               x="85.465057"
               height="2.6651387"
               width="13.925744"
               id="rect4272"
               style="fill:#ffffff;fill-opacity:1;stroke:none" />
            <rect
               y="38.434704"
               x="91.454811"
               height="5.8168583"
               width="2.3006864"
               id="rect4274"
               style="fill:#ffffff;fill-opacity:1;stroke:none" />
            <rect
               y="38.471367"
               x="95.176529"
               height="5.7523055"
               width="2.3006864"
               id="rect4276"
               style="fill:#ffffff;fill-opacity:1;stroke:none" />
          </g>
        </g>
        <g
           id="g4278"
           inkscape:label="matte"
           style="display:inline">
          <path
             sodipodi:type="arc"
             style="opacity:0.11764706;fill:#000000;fill-opacity:1;fill-rule:evenodd;stroke:none;stroke-width:0.5;marker:none;visibility:visible;display:inline;overflow:visible;enable-background:accumulate"
             id="path4280"
             sodipodi:cx="37.155247"
             sodipodi:cy="43.815315"
             sodipodi:rx="24.813021"
             sodipodi:ry="24.813021"
             d="M 61.968267,43.815315 A 24.813021,24.813021 0 1 1 12.342226,43.815315 A 24.813021,24.813021 0 1 1 61.968267,43.815315 z"
             transform="matrix(1.0563953,0,0,1.043765,-6.960914,-13.876601)" />
          <path
             style="opacity:0.1;fill:#000000;fill-opacity:1;fill-rule:evenodd;stroke:none;stroke-width:1.03478062;marker:none;visibility:visible;display:inline;overflow:visible;enable-background:accumulate"
             d="M 60.568249,38.086416 C 60.568249,23.531083 49.131445,39.393868 33.307272,39.393868 C 17.483101,39.393868 3.2342964,23.531083 3.2342964,38.086416 C 3.2342964,52.641751 16.077101,64.454777 31.901275,64.454777 C 47.725444,64.454777 60.568249,52.641751 60.568249,38.086416 L 60.568249,38.086416 z"
             id="path4282"
             sodipodi:nodetypes="csssc"
             inkscape:connector-curvature="0" />
        </g>
        <g
           id="g4284"
           inkscape:label="outer rings"
           style="display:inline">
          <path
             sodipodi:type="arc"
             style="fill:none;stroke:#808080;stroke-width:1.75127864;stroke-miterlimit:4;stroke-dasharray:none;stroke-opacity:1"
             id="path4286"
             sodipodi:cx="3.8400393"
             sodipodi:cy="4.7625117"
             sodipodi:rx="13.127576"
             sodipodi:ry="14.020609"
             d="M 16.967615,4.7625117 A 13.127576,14.020609 0 1 1 -9.2875366,4.7625117 A 13.127576,14.020609 0 1 1 16.967615,4.7625117 z"
             transform="matrix(2.2227398,0,0,2.0790335,23.633408,22.218732)" />
          <path
             sodipodi:type="arc"
             style="fill:none;stroke:#333333;stroke-width:0.45320269;stroke-miterlimit:4;stroke-dasharray:none;stroke-opacity:1;display:inline"
             id="path4288"
             sodipodi:cx="3.8400393"
             sodipodi:cy="4.7625117"
             sodipodi:rx="13.127576"
             sodipodi:ry="14.020609"
             d="M 16.967615,4.7625117 A 13.127576,14.020609 0 1 1 -9.2875366,4.7625117 A 13.127576,14.020609 0 1 1 16.967615,4.7625117 z"
             transform="matrix(2.3931082,0,0,2.231106,22.894477,21.452062)" />
          <path
             style="fill:none;stroke:url(#linearGradient4310);stroke-width:1.92407775;stroke-miterlimit:4;stroke-dasharray:none;stroke-opacity:1"
             d="M 41.281497,6.9136035 C 55.23482,11.826962 62.55656,27.181768 57.668597,41.062969 C 52.780635,54.944177 37.489154,62.222432 23.53583,57.309074 C 9.5825097,52.395716 2.2251183,37.142155 7.1130824,23.260948 C 12.001044,9.3797453 27.42309,1.7306998 41.281497,6.9136035 z"
             id="path4290"
             sodipodi:nodetypes="csssc"
             inkscape:connector-curvature="0" />
        </g>
      </g>
    </g>
    <g
       id="g4408"
       transform="matrix(1.2064829,0,0,1.2064829,61.980294,-2.1586023)">
      <g
         transform="matrix(1.1148666,1.0502573,-1.0502573,1.1148666,-16.342703,15.294802)"
         style="fill:url(#linearGradient4413);fill-opacity:1"
         id="g16560">
        <path
           id="path3274"
           d="M 5.3820143,9.365775 C 5.4196034,10.502982 5.8852423,11.631535 6.7815802,12.470515 C 8.5742577,14.148475 11.390887,14.051943 13.068847,12.259266 C 13.72339,11.559973 14.105,10.705719 14.22482,9.8237535 L 14.815283,9.7871188 C 15.004918,9.9648554 15.13695,10.334643 15.390217,10.323743 L 18.620726,10.226525 C 19.01392,10.21353 19.329384,9.9693151 19.313123,9.4773923 L 19.274369,8.2268755 C 19.248677,7.8746588 18.977808,7.6584942 18.525682,7.6734386 L 15.329968,7.7879154 C 15.094383,7.8391501 14.96163,8.2772292 14.776474,8.5192316 C 14.776474,8.5192316 14.413363,8.5288687 14.203326,8.5384416 C 14.057404,7.5882569 13.613884,6.6798883 12.857597,5.9719991 C 11.06492,4.2940388 8.2482908,4.3905711 6.5703306,6.1832487 C 5.7313505,7.0795878 5.3444253,8.2285684 5.3820143,9.365775 z M 7.17094,9.3079233 C 7.1478634,8.6097673 7.3795276,7.91005 7.894229,7.3601604 C 8.9236306,6.2603811 10.650163,6.1967921 11.749942,7.2261946 C 12.849721,8.2555977 12.913309,9.9821275 11.883907,11.081908 C 10.854505,12.181688 9.1279743,12.245276 8.0281943,11.215873 C 7.4783042,10.701172 7.1940164,10.006079 7.17094,9.3079233 z"
           style="fill:url(#linearGradient4406);fill-opacity:1;stroke:none" />
      </g>
      <path
         sodipodi:type="arc"
         style="fill:none;fill-opacity:1;fill-rule:evenodd;stroke:url(#linearGradient4404);stroke-width:0.40000001;stroke-linecap:round;stroke-linejoin:miter;marker:none;marker-start:none;marker-mid:none;marker-end:none;stroke-miterlimit:4;stroke-dasharray:none;stroke-dashoffset:0;stroke-opacity:1;visibility:visible;display:inline;overflow:visible;enable-background:accumulate"
         id="path21223"
         sodipodi:cx="34.71875"
         sodipodi:cy="40.0625"
         sodipodi:rx="4.21875"
         sodipodi:ry="4.5"
         d="M 38.9375,40.0625 A 4.21875,4.5 0 1 1 30.5,40.0625 A 4.21875,4.5 0 1 1 38.9375,40.0625 z"
         transform="matrix(0.9599502,0,0,0.8832615,-48.320786,0.5891221)" />
    </g>
  </g>
</svg>
