<?xml version="1.0" encoding="UTF-8" standalone="no"?>
<!-- Created with Inkscape (http://www.inkscape.org/) -->
<svg
   xmlns:dc="http://purl.org/dc/elements/1.1/"
   xmlns:cc="http://creativecommons.org/ns#"
   xmlns:rdf="http://www.w3.org/1999/02/22-rdf-syntax-ns#"
   xmlns:svg="http://www.w3.org/2000/svg"
   xmlns="http://www.w3.org/2000/svg"
   xmlns:xlink="http://www.w3.org/1999/xlink"
   xmlns:sodipodi="http://sodipodi.sourceforge.net/DTD/sodipodi-0.dtd"
   xmlns:inkscape="http://www.inkscape.org/namespaces/inkscape"
   width="64"
   height="64"
   id="svg2"
   sodipodi:version="0.32"
   inkscape:version="0.46"
   version="1.0"
   sodipodi:docname="faas_prov.svg"
   inkscape:output_extension="org.inkscape.output.svg.inkscape"
   inkscape:export-filename="/home/rameses/Desktop/faas_prov.png"
   inkscape:export-xdpi="90"
   inkscape:export-ydpi="90">
  <defs
     id="defs4">
    <linearGradient
       id="linearGradient3387">
      <stop
         style="stop-color:#247db2;stop-opacity:1;"
         offset="0"
         id="stop3389" />
      <stop
         style="stop-color:#06498b;stop-opacity:1;"
         offset="1"
         id="stop3391" />
    </linearGradient>
    <linearGradient
       id="linearGradient3168-1-5">
      <stop
         style="stop-color:#ffffff;stop-opacity:1;"
         offset="0"
         id="stop3170-7-1" />
      <stop
         id="stop5123-7"
         offset="0.5"
         style="stop-color:#404729;stop-opacity:1;" />
      <stop
         style="stop-color:#000b0b;stop-opacity:1;"
         offset="1"
         id="stop3172-4-1" />
    </linearGradient>
    <linearGradient
       y2="-9.7877235"
       x2="14.678609"
       y1="18.716543"
       x1="-8.2522736"
       gradientTransform="matrix(0.6745349,-1.9155948,1.8029001,0.6348519,21.214268,36.494425)"
       gradientUnits="userSpaceOnUse"
       id="linearGradient3310-5"
       xlink:href="#linearGradient3168-1-5"
       inkscape:collect="always" />
    <filter
       color-interpolation-filters="sRGB"
       height="1.2767946"
       y="-0.13839723"
       width="1.26509"
       x="-0.13254499"
       id="filter3205-2"
       inkscape:collect="always">
      <feGaussianBlur
         id="feGaussianBlur3207-4"
         stdDeviation="1.3286108"
         inkscape:collect="always" />
    </filter>
    <linearGradient
       id="linearGradient3217-0-4">
      <stop
         id="stop3219-9-8"
         offset="0"
         style="stop-color:#ffffff;stop-opacity:1;" />
      <stop
         id="stop3221-4-8"
         offset="1"
         style="stop-color:#ffffff;stop-opacity:0.18103448;" />
    </linearGradient>
    <radialGradient
       r="11.964466"
       fy="5.5948043"
       fx="22.442381"
       cy="5.5948043"
       cx="22.442381"
       gradientTransform="matrix(-1.582008,-0.1078287,-0.7663741,-1.8862965,62.234121,19.341693)"
       gradientUnits="userSpaceOnUse"
       id="radialGradient3308-9"
       xlink:href="#linearGradient3217-0-4"
       inkscape:collect="always" />
    <filter
       color-interpolation-filters="sRGB"
       inkscape:collect="always"
       id="filter3969-4"
       x="-0.47043234"
       width="1.9408647"
       y="-0.72864407"
       height="2.4572883">
      <feGaussianBlur
         inkscape:collect="always"
         stdDeviation="1.0376655"
         id="feGaussianBlur3971-0" />
    </filter>
    <filter
       color-interpolation-filters="sRGB"
       height="2.0545726"
       y="-0.52728629"
       width="2.1263123"
       x="-0.56315613"
       id="filter3295-1"
       inkscape:collect="always">
      <feGaussianBlur
         id="feGaussianBlur3297-7"
         stdDeviation="6.160729"
         inkscape:collect="always" />
    </filter>
    <radialGradient
       inkscape:collect="always"
       xlink:href="#linearGradient3387"
       id="radialGradient21209"
       gradientUnits="userSpaceOnUse"
       gradientTransform="matrix(1.1252208,-2.4125414e-8,1.8364164e-8,0.8565134,23.645114,-21.551784)"
       cx="-7.4963403"
       cy="62.846451"
       fx="-7.4963403"
       fy="62.846451"
       r="11.637417" />
    <radialGradient
       inkscape:collect="always"
       xlink:href="#linearGradient3387"
       id="radialGradient21314"
       gradientUnits="userSpaceOnUse"
       gradientTransform="matrix(0.6966375,2.1427886e-2,-2.1962074e-2,0.7140044,75.131378,13.156479)"
       cx="-53.391907"
       cy="30.036856"
       fx="-53.391907"
       fy="30.036856"
       r="35.875" />
  </defs>
  <sodipodi:namedview
     id="base"
     pagecolor="#ffffff"
     bordercolor="#666666"
     borderopacity="1.0"
     gridtolerance="10000"
     guidetolerance="10"
     objecttolerance="10"
     inkscape:pageopacity="0.0"
     inkscape:pageshadow="2"
     inkscape:zoom="3.9999998"
     inkscape:cx="1.1494936"
     inkscape:cy="41.673877"
     inkscape:document-units="px"
     inkscape:current-layer="layer1"
     showgrid="false"
     inkscape:window-width="1018"
     inkscape:window-height="688"
     inkscape:window-x="-5"
     inkscape:window-y="25" />
  <metadata
     id="metadata7">
    <rdf:RDF>
      <cc:Work
         rdf:about="">
        <dc:format>image/svg+xml</dc:format>
        <dc:type
           rdf:resource="http://purl.org/dc/dcmitype/StillImage" />
      </cc:Work>
    </rdf:RDF>
  </metadata>
  <g
     inkscape:label="Layer 1"
     inkscape:groupmode="layer"
     id="layer1">
    <g
       id="layer3"
       inkscape:label="emblem"
       style="display:none"
       sodipodi:insensitive="true"
       transform="matrix(0.2490448,0,0,0.2490448,-39.057816,32.081792)">
      <g
         transform="matrix(1.2863293,0,0,1.2863293,-0.561065,46.47865)"
         id="g3312"
         style="display:inline">
        <g
           id="g3314"
           inkscape:label="main color"
           style="display:inline">
          <path
             sodipodi:type="arc"
             style="fill:#440055;fill-opacity:1;stroke:none;display:inline"
             id="path3316"
             sodipodi:cx="3.8400393"
             sodipodi:cy="4.7625117"
             sodipodi:rx="13.127576"
             sodipodi:ry="14.020609"
             d="M 16.967615,4.7625117 A 13.127576,14.020609 0 1 1 -9.2875366,4.7625117 A 13.127576,14.020609 0 1 1 16.967615,4.7625117 z"
             transform="matrix(2.0024684,0,0,1.8427814,24.424997,23.319932)" />
        </g>
        <g
           id="g3318"
           inkscape:label="design glow"
           style="display:inline">
          <path
             sodipodi:type="arc"
             style="opacity:0.76293137;fill:#dd55ff;fill-opacity:1;stroke:none;display:inline;filter:url(#filter3295-1)"
             id="path3320"
             sodipodi:cx="3.8400393"
             sodipodi:cy="4.7625117"
             sodipodi:rx="13.127576"
             sodipodi:ry="14.020609"
             d="M 16.967615,4.7625117 A 13.127576,14.020609 0 1 1 -9.2875366,4.7625117 A 13.127576,14.020609 0 1 1 16.967615,4.7625117 z"
             transform="matrix(0.9909652,0,0,1.0381495,30.40161,33.685384)" />
          <path
             sodipodi:type="arc"
             style="fill:#ffffff;fill-opacity:1;stroke:none;display:inline;filter:url(#filter3969-4)"
             id="path3322"
             sodipodi:cx="11.296861"
             sodipodi:cy="11.90677"
             sodipodi:rx="2.9916587"
             sodipodi:ry="1.2502455"
             d="M 14.288519,11.90677 A 2.9916587,1.2502455 0 1 1 8.305202,11.90677 A 2.9916587,1.2502455 0 1 1 14.288519,11.90677 z"
             transform="matrix(3.2357017,0.8976466,0.2076117,5.1935982,6.2036668,-54.794796)"
             inkscape:transform-center-x="-2.1274419" />
          <path
             style="opacity:0.55;fill:url(#radialGradient3308-9);fill-opacity:1;stroke:none;display:inline;filter:url(#filter3205-2)"
             d="M 30.158688,13.71824 C 30.881181,21.342171 31.881057,21.817535 26.411417,23.501257 C 17.327017,26.297713 6.1225638,17.200156 7.7508453,9.0346827 C 8.8076677,3.7349511 12.086406,2.8836964 19.825319,3.6015692 C 24.933075,4.0753721 29.332844,6.9456925 30.158688,13.71824 z"
             id="path3324"
             sodipodi:nodetypes="csssc"
             transform="matrix(1.7133019,1.095033e-2,0.3795097,1.6017425,1.1520735,-1.4038883)"
             inkscape:connector-curvature="0" />
        </g>
        <g
           id="g3326"
           inkscape:label="featured sign"
           style="display:inline">
          <g
             id="g3328"
             transform="matrix(2.5321622,0,0,2.5321622,-201.39372,-73.750555)">
            <rect
               y="38.427055"
               x="87.651009"
               height="5.7649102"
               width="2.3006864"
               id="rect3330"
               style="fill:#ffffff;fill-opacity:1;stroke:none" />
            <path
               inkscape:connector-curvature="0"
               sodipodi:nodetypes="cccc"
               id="path3332"
               d="M 92.306566,32.783898 L 100.41882,37.900751 L 84.259813,37.942401 L 92.306566,32.783895 L 92.306566,32.783898 z"
               style="fill:#ffffff;fill-opacity:1;stroke:none" />
            <rect
               y="44.847576"
               x="85.465057"
               height="2.6651387"
               width="13.925744"
               id="rect3334"
               style="fill:#ffffff;fill-opacity:1;stroke:none" />
            <rect
               y="38.434704"
               x="91.454811"
               height="5.8168583"
               width="2.3006864"
               id="rect3336"
               style="fill:#ffffff;fill-opacity:1;stroke:none" />
            <rect
               y="38.471367"
               x="95.176529"
               height="5.7523055"
               width="2.3006864"
               id="rect3338"
               style="fill:#ffffff;fill-opacity:1;stroke:none" />
          </g>
        </g>
        <g
           id="g3340"
           inkscape:label="matte"
           style="display:inline">
          <path
             sodipodi:type="arc"
             style="opacity:0.11764706;fill:#000000;fill-opacity:1;fill-rule:evenodd;stroke:none;stroke-width:0.5;marker:none;visibility:visible;display:inline;overflow:visible;enable-background:accumulate"
             id="path3342"
             sodipodi:cx="37.155247"
             sodipodi:cy="43.815315"
             sodipodi:rx="24.813021"
             sodipodi:ry="24.813021"
             d="M 61.968267,43.815315 A 24.813021,24.813021 0 1 1 12.342226,43.815315 A 24.813021,24.813021 0 1 1 61.968267,43.815315 z"
             transform="matrix(1.0563953,0,0,1.043765,-6.960914,-13.876601)" />
          <path
             style="opacity:0.1;fill:#000000;fill-opacity:1;fill-rule:evenodd;stroke:none;stroke-width:1.03478062;marker:none;visibility:visible;display:inline;overflow:visible;enable-background:accumulate"
             d="M 60.568249,38.086416 C 60.568249,23.531083 49.131445,39.393868 33.307272,39.393868 C 17.483101,39.393868 3.2342964,23.531083 3.2342964,38.086416 C 3.2342964,52.641751 16.077101,64.454777 31.901275,64.454777 C 47.725444,64.454777 60.568249,52.641751 60.568249,38.086416 L 60.568249,38.086416 z"
             id="path3344"
             sodipodi:nodetypes="csssc"
             inkscape:connector-curvature="0" />
        </g>
        <g
           id="g3346"
           inkscape:label="outer rings"
           style="display:inline">
          <path
             sodipodi:type="arc"
             style="fill:none;stroke:#808080;stroke-width:1.75127864;stroke-miterlimit:4;stroke-dasharray:none;stroke-opacity:1"
             id="path3348"
             sodipodi:cx="3.8400393"
             sodipodi:cy="4.7625117"
             sodipodi:rx="13.127576"
             sodipodi:ry="14.020609"
             d="M 16.967615,4.7625117 A 13.127576,14.020609 0 1 1 -9.2875366,4.7625117 A 13.127576,14.020609 0 1 1 16.967615,4.7625117 z"
             transform="matrix(2.2227398,0,0,2.0790335,23.633408,22.218732)" />
          <path
             sodipodi:type="arc"
             style="fill:none;stroke:#333333;stroke-width:0.45320269;stroke-miterlimit:4;stroke-dasharray:none;stroke-opacity:1;display:inline"
             id="path3350"
             sodipodi:cx="3.8400393"
             sodipodi:cy="4.7625117"
             sodipodi:rx="13.127576"
             sodipodi:ry="14.020609"
             d="M 16.967615,4.7625117 A 13.127576,14.020609 0 1 1 -9.2875366,4.7625117 A 13.127576,14.020609 0 1 1 16.967615,4.7625117 z"
             transform="matrix(2.3931082,0,0,2.231106,22.894477,21.452062)" />
          <path
             style="fill:none;stroke:url(#linearGradient3310-5);stroke-width:1.92407775;stroke-miterlimit:4;stroke-dasharray:none;stroke-opacity:1"
             d="M 41.281497,6.9136035 C 55.23482,11.826962 62.55656,27.181768 57.668597,41.062969 C 52.780635,54.944177 37.489154,62.222432 23.53583,57.309074 C 9.5825097,52.395716 2.2251183,37.142155 7.1130824,23.260948 C 12.001044,9.3797453 27.42309,1.7306998 41.281497,6.9136035 z"
             id="path3352"
             sodipodi:nodetypes="csssc"
             inkscape:connector-curvature="0" />
        </g>
      </g>
    </g>
    <path
       style="fill:#063275;fill-opacity:1;fill-rule:evenodd;stroke:none;stroke-width:0.41407242px;stroke-linecap:butt;stroke-linejoin:miter;stroke-opacity:1"
       d="M 15.442721,34.55486 L 15.442721,52.502818 L 12.763662,52.502818 L 12.763662,41.313041 L 6.5901836,33.225382 L 13.229586,38.432505 L 13.229586,33.55775 L 15.442721,34.55486 z"
       id="path3612" />
    <path
       style="fill:url(#radialGradient21209);fill-opacity:1;fill-rule:evenodd;stroke:#214478;stroke-width:1.26062763;stroke-linecap:butt;stroke-linejoin:miter;stroke-miterlimit:4;stroke-dasharray:none;stroke-opacity:1"
       d="M 17.519147,35.774819 C 16.470822,36.107187 2.8425757,35.442449 2.8425757,35.442449 C -0.10779607,33.313776 -0.67999114,27.827761 6.4534787,28.351897 C 12.33286,14.117785 22.549527,23.61167 21.712455,28.351897 C 26.988273,27.646652 29.194506,34.63607 24.042069,35.55324 L 17.519147,35.774819 z"
       id="path3610"
       sodipodi:nodetypes="cccccc" />
    <path
       style="fill:url(#radialGradient21314);fill-opacity:1;fill-rule:evenodd;stroke:none;stroke-width:1px;stroke-linecap:butt;stroke-linejoin:miter;stroke-opacity:1"
       d="M 38.1503,11.916577 L 44.990914,17.560087 L 44.648884,9.3513479 L 52.857622,9.3513479 L 52.857622,24.05867 L 62.263466,32.267407 L 55.764883,32.267407 L 55.764883,53.473313 L 42.767716,53.473313 L 32.677809,53.473313 L 20.022671,53.473313 L 20.022671,32.267407 L 13.866118,32.267407 L 38.1503,11.916577 z"
       id="path2830"
       sodipodi:nodetypes="cccccccccccccc"
       inkscape:export-xdpi="90"
       inkscape:export-ydpi="90" />
    <path
       sodipodi:nodetypes="cccccccccccccc"
       id="path21301"
       d="M 38.1503,11.916577 L 44.990914,17.560087 L 44.648884,9.3513479 L 52.857622,9.3513479 L 52.857622,24.05867 L 62.263466,32.267407 L 55.764883,32.267407 L 55.764883,53.473313 L 42.767716,53.473313 L 32.677809,53.473313 L 20.022671,53.473313 L 20.022671,32.267407 L 13.866118,32.267407 L 38.1503,11.916577 z"
       style="fill:none;fill-opacity:1;fill-rule:evenodd;stroke:#214478;stroke-width:1.26062763px;stroke-linecap:butt;stroke-linejoin:miter;stroke-opacity:1" />
    <g
       id="g13018"
       transform="matrix(1.2606277,0,0,1.2606277,-5.4722244,-12.995834)">
      <path
         sodipodi:nodetypes="ccscccc"
         id="path12379"
         d="M 39.267551,28.86375 L 46.123311,39.274349 C 44.315861,39.926352 42.696446,41.083335 39.769534,42.776004 C 37.005536,44.374457 34.559877,46.456786 31.819317,48.161445 L 24.963557,37.581569 C 26.494096,34.611078 27.847476,31.490002 33.766015,32.249311 C 34.846926,30.641651 35.778781,28.939137 39.267551,28.86375 z"
         style="fill:#ffffff;fill-rule:evenodd;stroke:#214478;stroke-width:1;stroke-linecap:butt;stroke-linejoin:miter;stroke-miterlimit:4;stroke-dasharray:none;stroke-opacity:1" />
      <path
         id="path12381"
         d="M 40.029302,42.829188 L 33.596737,31.995394"
         style="fill:none;fill-rule:evenodd;stroke:#214478;stroke-width:1.5;stroke-linecap:butt;stroke-linejoin:miter;stroke-miterlimit:4;stroke-dasharray:none;stroke-opacity:1" />
      <path
         sodipodi:nodetypes="ccc"
         id="path12383"
         d="M 45.784754,38.851154 C 40.730824,37.234424 39.92787,39.482225 39.775385,42.321353 C 34.530335,40.797857 31.346572,41.995259 31.734678,47.907528"
         style="fill:none;fill-rule:evenodd;stroke:#214478;stroke-width:1;stroke-linecap:butt;stroke-linejoin:miter;stroke-miterlimit:4;stroke-dasharray:none;stroke-opacity:1" />
    </g>
  </g>
</svg>
