<?xml version="1.0" encoding="UTF-8" standalone="no"?>
<!-- Created with Inkscape (http://www.inkscape.org/) -->
<svg
   xmlns:dc="http://purl.org/dc/elements/1.1/"
   xmlns:cc="http://creativecommons.org/ns#"
   xmlns:rdf="http://www.w3.org/1999/02/22-rdf-syntax-ns#"
   xmlns:svg="http://www.w3.org/2000/svg"
   xmlns="http://www.w3.org/2000/svg"
   xmlns:xlink="http://www.w3.org/1999/xlink"
   xmlns:sodipodi="http://sodipodi.sourceforge.net/DTD/sodipodi-0.dtd"
   xmlns:inkscape="http://www.inkscape.org/namespaces/inkscape"
   width="64"
   height="64"
   id="svg2"
   sodipodi:version="0.32"
   inkscape:version="0.46"
   version="1.0"
   sodipodi:docname="transmittal.svg"
   inkscape:output_extension="org.inkscape.output.svg.inkscape"
   inkscape:export-filename="/home/rameses/Desktop/transmittal.png"
   inkscape:export-xdpi="90"
   inkscape:export-ydpi="90">
  <defs
     id="defs4">
    <linearGradient
       id="linearGradient3691">
      <stop
         style="stop-color:#8951af;stop-opacity:1;"
         offset="0"
         id="stop3693" />
      <stop
         style="stop-color:#4a1b6b;stop-opacity:1;"
         offset="1"
         id="stop3695" />
    </linearGradient>
    <linearGradient
       id="linearGradient3683">
      <stop
         style="stop-color:#4f995c;stop-opacity:1;"
         offset="0"
         id="stop3685" />
      <stop
         style="stop-color:#005214;stop-opacity:1;"
         offset="1"
         id="stop3687" />
    </linearGradient>
    <linearGradient
       id="linearGradient3675">
      <stop
         style="stop-color:#ee5268;stop-opacity:1;"
         offset="0"
         id="stop3677" />
      <stop
         style="stop-color:#cb3237;stop-opacity:1;"
         offset="1"
         id="stop3679" />
    </linearGradient>
    <linearGradient
       inkscape:collect="always"
       id="linearGradient3603">
      <stop
         style="stop-color:#ffffff;stop-opacity:1;"
         offset="0"
         id="stop3605" />
      <stop
         style="stop-color:#ffffff;stop-opacity:0;"
         offset="1"
         id="stop3607" />
    </linearGradient>
    <linearGradient
       id="linearGradient3387">
      <stop
         style="stop-color:#2478b2;stop-opacity:1;"
         offset="0"
         id="stop3389" />
      <stop
         style="stop-color:#063275;stop-opacity:1;"
         offset="1"
         id="stop3391" />
    </linearGradient>
    <linearGradient
       id="linearGradient3168-1-5">
      <stop
         style="stop-color:#ffffff;stop-opacity:1;"
         offset="0"
         id="stop3170-7-1" />
      <stop
         id="stop5123-7"
         offset="0.5"
         style="stop-color:#404729;stop-opacity:1;" />
      <stop
         style="stop-color:#000b0b;stop-opacity:1;"
         offset="1"
         id="stop3172-4-1" />
    </linearGradient>
    <linearGradient
       y2="-9.7877235"
       x2="14.678609"
       y1="18.716543"
       x1="-8.2522736"
       gradientTransform="matrix(0.6745349,-1.9155948,1.8029001,0.6348519,21.214268,36.494425)"
       gradientUnits="userSpaceOnUse"
       id="linearGradient3310-5"
       xlink:href="#linearGradient3168-1-5"
       inkscape:collect="always" />
    <filter
       color-interpolation-filters="sRGB"
       height="1.2767946"
       y="-0.13839723"
       width="1.26509"
       x="-0.13254499"
       id="filter3205-2"
       inkscape:collect="always">
      <feGaussianBlur
         id="feGaussianBlur3207-4"
         stdDeviation="1.3286108"
         inkscape:collect="always" />
    </filter>
    <linearGradient
       id="linearGradient3217-0-4">
      <stop
         id="stop3219-9-8"
         offset="0"
         style="stop-color:#ffffff;stop-opacity:1;" />
      <stop
         id="stop3221-4-8"
         offset="1"
         style="stop-color:#ffffff;stop-opacity:0.18103448;" />
    </linearGradient>
    <radialGradient
       r="11.964466"
       fy="5.5948043"
       fx="22.442381"
       cy="5.5948043"
       cx="22.442381"
       gradientTransform="matrix(-1.582008,-0.1078287,-0.7663741,-1.8862965,62.234121,19.341693)"
       gradientUnits="userSpaceOnUse"
       id="radialGradient3308-9"
       xlink:href="#linearGradient3217-0-4"
       inkscape:collect="always" />
    <filter
       color-interpolation-filters="sRGB"
       inkscape:collect="always"
       id="filter3969-4"
       x="-0.47043234"
       width="1.9408647"
       y="-0.72864407"
       height="2.4572883">
      <feGaussianBlur
         inkscape:collect="always"
         stdDeviation="1.0376655"
         id="feGaussianBlur3971-0" />
    </filter>
    <filter
       color-interpolation-filters="sRGB"
       height="2.0545726"
       y="-0.52728629"
       width="2.1263123"
       x="-0.56315613"
       id="filter3295-1"
       inkscape:collect="always">
      <feGaussianBlur
         id="feGaussianBlur3297-7"
         stdDeviation="6.160729"
         inkscape:collect="always" />
    </filter>
    <radialGradient
       inkscape:collect="always"
       xlink:href="#linearGradient3691"
       id="radialGradient2536"
       gradientUnits="userSpaceOnUse"
       gradientTransform="matrix(0.4202,0,0,0.6288101,57.903638,72.881791)"
       cx="8.1813335"
       cy="-42.477989"
       fx="8.1813335"
       fy="-42.477989"
       r="11.549544" />
    <linearGradient
       inkscape:collect="always"
       xlink:href="#linearGradient3603"
       id="linearGradient2538"
       gradientUnits="userSpaceOnUse"
       gradientTransform="matrix(0.4202,0,0,0.4202,47.302918,35.840316)"
       x1="18.257853"
       y1="27.63327"
       x2="37.755211"
       y2="39.408161" />
    <radialGradient
       inkscape:collect="always"
       xlink:href="#linearGradient3691"
       id="radialGradient2541"
       gradientUnits="userSpaceOnUse"
       gradientTransform="matrix(0.5535143,-2.7895815e-2,3.0902673e-2,0.613177,44.517404,30.323137)"
       cx="14.596437"
       cy="27.169092"
       fx="14.596437"
       fy="27.169092"
       r="14.773915" />
    <radialGradient
       inkscape:collect="always"
       xlink:href="#linearGradient3675"
       id="radialGradient2544"
       gradientUnits="userSpaceOnUse"
       gradientTransform="matrix(0.4373023,0,0,0.6544028,24.238028,41.74154)"
       cx="85.480034"
       cy="-45.987801"
       fx="85.480034"
       fy="-45.987801"
       r="11.549543" />
    <linearGradient
       inkscape:collect="always"
       xlink:href="#linearGradient3603"
       id="linearGradient2546"
       gradientUnits="userSpaceOnUse"
       gradientTransform="matrix(0.4373023,0,0,0.4373023,46.402969,1.0167906)"
       x1="18.257853"
       y1="27.63327"
       x2="37.755211"
       y2="39.408161" />
    <radialGradient
       inkscape:collect="always"
       xlink:href="#linearGradient3675"
       id="radialGradient2549"
       gradientUnits="userSpaceOnUse"
       gradientTransform="matrix(0.5760424,-2.9031179e-2,3.216041e-2,0.6381333,43.50409,-4.7249347)"
       cx="14.753366"
       cy="28.125542"
       fx="14.753366"
       fy="28.125542"
       r="14.773915" />
    <radialGradient
       inkscape:collect="always"
       xlink:href="#linearGradient3683"
       id="radialGradient2552"
       gradientUnits="userSpaceOnUse"
       gradientTransform="matrix(0.4268953,0,0,0.6388291,40.391048,56.577397)"
       cx="49.185661"
       cy="-43.495609"
       fx="49.185661"
       fy="-43.495609"
       r="11.549543" />
    <linearGradient
       inkscape:collect="always"
       xlink:href="#linearGradient3603"
       id="linearGradient2554"
       gradientUnits="userSpaceOnUse"
       gradientTransform="matrix(0.4268953,0,0,0.4268953,47.007701,18.768733)"
       x1="18.257853"
       y1="27.63327"
       x2="37.755211"
       y2="39.408161" />
    <radialGradient
       inkscape:collect="always"
       xlink:href="#linearGradient3683"
       id="radialGradient2557"
       gradientUnits="userSpaceOnUse"
       gradientTransform="matrix(0.5623336,-2.834029e-2,3.1395058e-2,0.6229469,44.177805,13.163646)"
       cx="13.725541"
       cy="27.699059"
       fx="13.725541"
       fy="27.699059"
       r="14.773915" />
    <radialGradient
       inkscape:collect="always"
       xlink:href="#linearGradient3387"
       id="radialGradient2571"
       gradientUnits="userSpaceOnUse"
       gradientTransform="matrix(1.3021217,0,0,1.9485652,31.378869,-34.870812)"
       cx="3.5892692"
       cy="26.633606"
       fx="3.5892692"
       fy="26.633606"
       r="11.80135" />
    <linearGradient
       inkscape:collect="always"
       xlink:href="#linearGradient3603"
       id="linearGradient2573"
       gradientUnits="userSpaceOnUse"
       x1="18.257853"
       y1="27.63327"
       x2="37.755211"
       y2="39.408161"
       gradientTransform="matrix(1.3305111,0,0,1.3305111,-12.222363,-12.204649)" />
    <radialGradient
       inkscape:collect="always"
       xlink:href="#linearGradient3387"
       id="radialGradient2576"
       gradientUnits="userSpaceOnUse"
       gradientTransform="matrix(1.752634,-8.8328614e-2,9.7849456e-2,1.9415485,-21.042335,-29.674097)"
       cx="14.596437"
       cy="27.169092"
       fx="14.596437"
       fy="27.169092"
       r="14.773915" />
  </defs>
  <sodipodi:namedview
     id="base"
     pagecolor="#ffffff"
     bordercolor="#666666"
     borderopacity="1.0"
     gridtolerance="10000"
     guidetolerance="10"
     objecttolerance="10"
     inkscape:pageopacity="0.0"
     inkscape:pageshadow="2"
     inkscape:zoom="3.6093749"
     inkscape:cx="-31.568477"
     inkscape:cy="50.353374"
     inkscape:document-units="px"
     inkscape:current-layer="layer1"
     showgrid="false"
     inkscape:window-width="1018"
     inkscape:window-height="688"
     inkscape:window-x="0"
     inkscape:window-y="25" />
  <metadata
     id="metadata7">
    <rdf:RDF>
      <cc:Work
         rdf:about="">
        <dc:format>image/svg+xml</dc:format>
        <dc:type
           rdf:resource="http://purl.org/dc/dcmitype/StillImage" />
      </cc:Work>
    </rdf:RDF>
  </metadata>
  <g
     inkscape:label="Layer 1"
     inkscape:groupmode="layer"
     id="layer1">
    <g
       id="layer3"
       inkscape:label="emblem"
       style="display:none"
       sodipodi:insensitive="true"
       transform="matrix(0.2490448,0,0,0.2490448,-39.057816,32.081792)">
      <g
         transform="matrix(1.2863293,0,0,1.2863293,-0.561065,46.47865)"
         id="g3312"
         style="display:inline">
        <g
           id="g3314"
           inkscape:label="main color"
           style="display:inline">
          <path
             sodipodi:type="arc"
             style="fill:#440055;fill-opacity:1;stroke:none;display:inline"
             id="path3316"
             sodipodi:cx="3.8400393"
             sodipodi:cy="4.7625117"
             sodipodi:rx="13.127576"
             sodipodi:ry="14.020609"
             d="M 16.967615,4.7625117 A 13.127576,14.020609 0 1 1 -9.2875366,4.7625117 A 13.127576,14.020609 0 1 1 16.967615,4.7625117 z"
             transform="matrix(2.0024684,0,0,1.8427814,24.424997,23.319932)" />
        </g>
        <g
           id="g3318"
           inkscape:label="design glow"
           style="display:inline">
          <path
             sodipodi:type="arc"
             style="opacity:0.76293137;fill:#dd55ff;fill-opacity:1;stroke:none;display:inline;filter:url(#filter3295-1)"
             id="path3320"
             sodipodi:cx="3.8400393"
             sodipodi:cy="4.7625117"
             sodipodi:rx="13.127576"
             sodipodi:ry="14.020609"
             d="M 16.967615,4.7625117 A 13.127576,14.020609 0 1 1 -9.2875366,4.7625117 A 13.127576,14.020609 0 1 1 16.967615,4.7625117 z"
             transform="matrix(0.9909652,0,0,1.0381495,30.40161,33.685384)" />
          <path
             sodipodi:type="arc"
             style="fill:#ffffff;fill-opacity:1;stroke:none;display:inline;filter:url(#filter3969-4)"
             id="path3322"
             sodipodi:cx="11.296861"
             sodipodi:cy="11.90677"
             sodipodi:rx="2.9916587"
             sodipodi:ry="1.2502455"
             d="M 14.288519,11.90677 A 2.9916587,1.2502455 0 1 1 8.305202,11.90677 A 2.9916587,1.2502455 0 1 1 14.288519,11.90677 z"
             transform="matrix(3.2357017,0.8976466,0.2076117,5.1935982,6.2036668,-54.794796)"
             inkscape:transform-center-x="-2.1274419" />
          <path
             style="opacity:0.55;fill:url(#radialGradient3308-9);fill-opacity:1;stroke:none;display:inline;filter:url(#filter3205-2)"
             d="M 30.158688,13.71824 C 30.881181,21.342171 31.881057,21.817535 26.411417,23.501257 C 17.327017,26.297713 6.1225638,17.200156 7.7508453,9.0346827 C 8.8076677,3.7349511 12.086406,2.8836964 19.825319,3.6015692 C 24.933075,4.0753721 29.332844,6.9456925 30.158688,13.71824 z"
             id="path3324"
             sodipodi:nodetypes="csssc"
             transform="matrix(1.7133019,1.095033e-2,0.3795097,1.6017425,1.1520735,-1.4038883)"
             inkscape:connector-curvature="0" />
        </g>
        <g
           id="g3326"
           inkscape:label="featured sign"
           style="display:inline">
          <g
             id="g3328"
             transform="matrix(2.5321622,0,0,2.5321622,-201.39372,-73.750555)">
            <rect
               y="38.427055"
               x="87.651009"
               height="5.7649102"
               width="2.3006864"
               id="rect3330"
               style="fill:#ffffff;fill-opacity:1;stroke:none" />
            <path
               inkscape:connector-curvature="0"
               sodipodi:nodetypes="cccc"
               id="path3332"
               d="M 92.306566,32.783898 L 100.41882,37.900751 L 84.259813,37.942401 L 92.306566,32.783895 L 92.306566,32.783898 z"
               style="fill:#ffffff;fill-opacity:1;stroke:none" />
            <rect
               y="44.847576"
               x="85.465057"
               height="2.6651387"
               width="13.925744"
               id="rect3334"
               style="fill:#ffffff;fill-opacity:1;stroke:none" />
            <rect
               y="38.434704"
               x="91.454811"
               height="5.8168583"
               width="2.3006864"
               id="rect3336"
               style="fill:#ffffff;fill-opacity:1;stroke:none" />
            <rect
               y="38.471367"
               x="95.176529"
               height="5.7523055"
               width="2.3006864"
               id="rect3338"
               style="fill:#ffffff;fill-opacity:1;stroke:none" />
          </g>
        </g>
        <g
           id="g3340"
           inkscape:label="matte"
           style="display:inline">
          <path
             sodipodi:type="arc"
             style="opacity:0.11764706;fill:#000000;fill-opacity:1;fill-rule:evenodd;stroke:none;stroke-width:0.5;marker:none;visibility:visible;display:inline;overflow:visible;enable-background:accumulate"
             id="path3342"
             sodipodi:cx="37.155247"
             sodipodi:cy="43.815315"
             sodipodi:rx="24.813021"
             sodipodi:ry="24.813021"
             d="M 61.968267,43.815315 A 24.813021,24.813021 0 1 1 12.342226,43.815315 A 24.813021,24.813021 0 1 1 61.968267,43.815315 z"
             transform="matrix(1.0563953,0,0,1.043765,-6.960914,-13.876601)" />
          <path
             style="opacity:0.1;fill:#000000;fill-opacity:1;fill-rule:evenodd;stroke:none;stroke-width:1.03478062;marker:none;visibility:visible;display:inline;overflow:visible;enable-background:accumulate"
             d="M 60.568249,38.086416 C 60.568249,23.531083 49.131445,39.393868 33.307272,39.393868 C 17.483101,39.393868 3.2342964,23.531083 3.2342964,38.086416 C 3.2342964,52.641751 16.077101,64.454777 31.901275,64.454777 C 47.725444,64.454777 60.568249,52.641751 60.568249,38.086416 L 60.568249,38.086416 z"
             id="path3344"
             sodipodi:nodetypes="csssc"
             inkscape:connector-curvature="0" />
        </g>
        <g
           id="g3346"
           inkscape:label="outer rings"
           style="display:inline">
          <path
             sodipodi:type="arc"
             style="fill:none;stroke:#808080;stroke-width:1.75127864;stroke-miterlimit:4;stroke-dasharray:none;stroke-opacity:1"
             id="path3348"
             sodipodi:cx="3.8400393"
             sodipodi:cy="4.7625117"
             sodipodi:rx="13.127576"
             sodipodi:ry="14.020609"
             d="M 16.967615,4.7625117 A 13.127576,14.020609 0 1 1 -9.2875366,4.7625117 A 13.127576,14.020609 0 1 1 16.967615,4.7625117 z"
             transform="matrix(2.2227398,0,0,2.0790335,23.633408,22.218732)" />
          <path
             sodipodi:type="arc"
             style="fill:none;stroke:#333333;stroke-width:0.45320269;stroke-miterlimit:4;stroke-dasharray:none;stroke-opacity:1;display:inline"
             id="path3350"
             sodipodi:cx="3.8400393"
             sodipodi:cy="4.7625117"
             sodipodi:rx="13.127576"
             sodipodi:ry="14.020609"
             d="M 16.967615,4.7625117 A 13.127576,14.020609 0 1 1 -9.2875366,4.7625117 A 13.127576,14.020609 0 1 1 16.967615,4.7625117 z"
             transform="matrix(2.3931082,0,0,2.231106,22.894477,21.452062)" />
          <path
             style="fill:none;stroke:url(#linearGradient3310-5);stroke-width:1.92407775;stroke-miterlimit:4;stroke-dasharray:none;stroke-opacity:1"
             d="M 41.281497,6.9136035 C 55.23482,11.826962 62.55656,27.181768 57.668597,41.062969 C 52.780635,54.944177 37.489154,62.222432 23.53583,57.309074 C 9.5825097,52.395716 2.2251183,37.142155 7.1130824,23.260948 C 12.001044,9.3797453 27.42309,1.7306998 41.281497,6.9136035 z"
             id="path3352"
             sodipodi:nodetypes="csssc"
             inkscape:connector-curvature="0" />
        </g>
      </g>
    </g>
    <path
       style="fill:url(#radialGradient2576);fill-opacity:1;fill-rule:evenodd;stroke:none;stroke-width:0.82065815px;stroke-linecap:butt;stroke-linejoin:miter;stroke-opacity:1"
       d="M 38.473942,13.027607 C 36.001136,11.434615 31.416763,10.483633 27.857744,10.614835 L 6.239338,19.107784 C 1.3832546,20.516045 0.17694043,23.483786 0.2556733,27.262944 L 0.30392867,52.355745 C 1.4667096,56.031515 9.0780633,57.791169 14.249733,57.181284 L 38.473942,13.027607 z"
       id="path2712"
       sodipodi:nodetypes="ccccccc" />
    <path
       style="fill:url(#radialGradient2571);fill-opacity:1;fill-rule:evenodd;stroke:url(#linearGradient2573);stroke-width:1.09189475px;stroke-linecap:butt;stroke-linejoin:miter;stroke-opacity:1"
       d="M 14.877055,21.134512 L 35.485533,12.606437 C 38.488484,11.829541 40.193663,13.742519 40.106346,16.897739 L 40.412435,42.049082 C 40.455894,44.90603 39.797414,46.968431 37.460575,48.157526 L 14.684032,57.229539 C 13.031195,57.487165 11.510886,57.38449 11.016623,55.492347 L 10.823602,29.820481 C 10.428396,24.633065 12.388359,22.127347 14.877055,21.134512 z"
       id="path2708"
       sodipodi:nodetypes="ccccccccc" />
    <path
       style="fill:#ffffff;fill-rule:evenodd;stroke:#333333;stroke-width:0.38087212999999998;stroke-linecap:butt;stroke-linejoin:miter;stroke-miterlimit:4;stroke-dasharray:none;stroke-opacity:1"
       d="M 20.953925,31.270663 C 21.447325,32.826057 21.319767,34.547047 22.889639,35.81539 L 26.340274,37.414462 C 27.032547,38.01266 27.01256,39.323125 26.676916,40.949253 C 27.098226,42.088373 27.980508,42.708901 29.03344,43.137459 C 31.137481,44.024339 32.110808,43.23779 34.214852,43.0584 C 32.641001,44.464569 31.924581,44.763442 29.718789,45.379673 C 26.439204,44.267688 25.121045,43.263964 23.752514,41.846206 L 21.784452,41.777308 C 20.771791,42.843348 20.50178,42.927464 18.860094,43.993508 C 17.053599,45.274112 16.461124,47.472658 14.776141,49.208901 C 15.599554,45.011406 16.43666,42.419572 20.439621,40.315929 C 20.730954,39.137536 20.713335,38.95429 20.424304,38.052889 L 18.008269,37.582778 L 15.989263,34.771468 C 15.395044,33.707206 15.526983,32.413916 15.989263,31.933742 L 19.018207,29.503264 L 22.847559,29.555871"
       id="path2714"
       sodipodi:nodetypes="cccccccccccccccccc" />
    <path
       style="fill:#333333;fill-opacity:1;fill-rule:evenodd;stroke:none;stroke-width:1px;stroke-linecap:butt;stroke-linejoin:miter;stroke-opacity:1"
       d="M 17.330518,33.318979 L 19.249189,36.125818 L 22.846332,36.440153 L 19.396925,35.808002 L 17.654479,33.08469 L 17.330518,33.318979 z"
       id="path2716"
       sodipodi:nodetypes="cccccc" />
    <g
       id="g3548"
       transform="matrix(1.3021217,0,0,1.3021217,30.161302,-13.307982)"
       style="stroke:#333333">
      <path
         id="path3488"
         d="M -8.6866441,36.38041 L -6.4567633,43.425541 L 3.6908101,38.707242 L 1.0408083,32.631625 L -8.6866441,36.38041 z"
         style="fill:#ffffff;fill-rule:evenodd;stroke:#333333;stroke-width:0.29250112000000000;stroke-linecap:butt;stroke-linejoin:miter;stroke-miterlimit:4;stroke-dasharray:none;stroke-opacity:1" />
      <path
         sodipodi:nodetypes="ccccc"
         id="path3492"
         d="M 3.0767843,38.965779 L -1.9323705,36.994435 L -3.0957864,37.349923 L -5.8427376,43.10237 L 3.0767843,38.965779 z"
         style="fill:#ffffff;fill-rule:evenodd;stroke:#333333;stroke-width:0.29250112000000000;stroke-linecap:butt;stroke-linejoin:miter;stroke-miterlimit:4;stroke-dasharray:none;stroke-opacity:1" />
      <path
         id="path3490"
         d="M 1.0731239,32.663942 L 1.0731239,32.663942 L 1.3962938,33.407236 L -1.5445637,38.83651 L -8.4927407,36.913642 L -8.6866434,36.315776 L 1.0731239,32.663942 z"
         style="fill:#ffffff;fill-rule:evenodd;stroke:#333333;stroke-width:0.29250112000000000;stroke-linecap:butt;stroke-linejoin:miter;stroke-miterlimit:4;stroke-dasharray:none;stroke-opacity:1"
         sodipodi:nodetypes="ccccccc" />
    </g>
    <path
       sodipodi:nodetypes="ccccccc"
       id="path3494"
       d="M 22.691784,29.530682 L 25.089431,31.179099 L 27.273782,32.743998 C 27.327521,34.190893 27.694483,35.63778 27.249129,37.084676 C 27.11832,37.47565 26.074539,37.663297 25.650057,36.243053 C 26.220374,35.301135 25.863079,34.359211 25.590546,33.417295 L 20.789104,31.415166"
       style="fill:#ffffff;fill-rule:evenodd;stroke:#333333;stroke-width:0.38087212999999998;stroke-linecap:butt;stroke-linejoin:miter;stroke-miterlimit:4;stroke-dasharray:none;stroke-opacity:1" />
    <path
       style="fill:#ffffff;fill-rule:evenodd;stroke:#333333;stroke-width:0.38087212999999998;stroke-linecap:butt;stroke-linejoin:miter;stroke-miterlimit:4;stroke-dasharray:none;stroke-opacity:1"
       d="M 19.270692,35.962234 L 22.342592,36.4466 C 23.048079,36.571696 23.363866,37.466509 21.627218,38.003594 L 18.991004,37.790631"
       id="path3511"
       sodipodi:nodetypes="cccc" />
    <path
       sodipodi:type="arc"
       style="fill:#ffffff;fill-opacity:1;fill-rule:evenodd;stroke:#333333;stroke-width:0.38914987000000001;stroke-linecap:round;stroke-linejoin:miter;marker:none;marker-start:none;marker-mid:none;marker-end:none;stroke-miterlimit:4;stroke-dasharray:none;stroke-dashoffset:0;stroke-opacity:1;visibility:visible;display:inline;overflow:visible;enable-background:accumulate"
       id="path3513"
       sodipodi:cx="125.4375"
       sodipodi:cy="-14.062501"
       sodipodi:rx="2.4375"
       sodipodi:ry="2.1875"
       d="M 127.875,-14.062501 A 2.4375,2.1875 0 1 1 123,-14.062501 A 2.4375,2.1875 0 1 1 127.875,-14.062501 z"
       transform="matrix(1.1080017,0,-0.2880208,1.1438931,-127.37545,43.871995)" />
    <path
       style="fill:url(#radialGradient2557);fill-opacity:1;fill-rule:evenodd;stroke:none;stroke-width:0.82065815px;stroke-linecap:butt;stroke-linejoin:miter;stroke-opacity:1"
       d="M 63.273639,26.864514 C 62.480237,26.353402 61.009339,26.04828 59.867425,26.090374 L 52.931146,28.815344 C 51.37307,29.267184 50.986023,30.219385 51.011284,31.431931 L 51.026767,39.48297 C 51.399846,40.662345 53.841954,41.22693 55.501286,41.031249 L 63.273639,26.864514 z"
       id="path3627"
       sodipodi:nodetypes="ccccccc" />
    <path
       style="fill:url(#radialGradient2552);fill-opacity:1;fill-rule:evenodd;stroke:url(#linearGradient2554);stroke-width:0.35033512px;stroke-linecap:butt;stroke-linejoin:miter;stroke-opacity:1"
       d="M 55.702563,29.465619 L 62.314806,26.729382 C 63.278305,26.480114 63.825412,27.093895 63.797396,28.106249 L 63.895605,36.176072 C 63.909548,37.092726 63.698275,37.754449 62.948499,38.13597 L 55.640632,41.046731 C 55.110318,41.12939 54.622526,41.096448 54.463941,40.489352 L 54.40201,32.252518 C 54.275208,30.588132 54.904064,29.784171 55.702563,29.465619 z"
       id="path3629"
       sodipodi:nodetypes="ccccccccc" />
    <path
       style="fill:url(#radialGradient2549);fill-opacity:1;fill-rule:evenodd;stroke:none;stroke-width:0.82065815px;stroke-linecap:butt;stroke-linejoin:miter;stroke-opacity:1"
       d="M 63.065449,9.3099409 C 62.252705,8.7863662 60.745948,8.4738065 59.576197,8.5169284 L 52.470823,11.308327 C 50.874762,11.771182 50.478282,12.746597 50.504159,13.988701 L 50.520019,22.236014 C 50.902192,23.444138 53.403835,24.022487 55.10362,23.822035 L 63.065449,9.3099409 z"
       id="path3637"
       sodipodi:nodetypes="ccccccc" />
    <path
       style="fill:url(#radialGradient2544);fill-opacity:1;fill-rule:evenodd;stroke:url(#linearGradient2546);stroke-width:0.35887572px;stroke-linecap:butt;stroke-linejoin:miter;stroke-opacity:1"
       d="M 55.309803,11.974455 L 62.08324,9.1715132 C 63.070228,8.9161695 63.630673,9.5449105 63.601975,10.581945 L 63.702578,18.848496 C 63.716861,19.787497 63.500437,20.465353 62.732382,20.856174 L 55.24636,23.837894 C 54.70312,23.92257 54.203436,23.888823 54.040985,23.266929 L 53.977545,14.829294 C 53.847651,13.124332 54.491838,12.300772 55.309803,11.974455 z"
       id="path3639"
       sodipodi:nodetypes="ccccccccc" />
    <path
       style="fill:url(#radialGradient2541);fill-opacity:1;fill-rule:evenodd;stroke:none;stroke-width:0.82065815px;stroke-linecap:butt;stroke-linejoin:miter;stroke-opacity:1"
       d="M 63.31375,43.809127 C 62.532791,43.306032 61.084962,43.005694 59.960957,43.04713 L 53.133461,45.729362 C 51.59982,46.174115 51.218845,47.111384 51.24371,48.304911 L 51.25895,56.229684 C 51.626177,57.39056 54.029986,57.946292 55.663294,57.753678 L 63.31375,43.809127 z"
       id="path3647"
       sodipodi:nodetypes="ccccccc" />
    <path
       style="fill:url(#radialGradient2536);fill-opacity:1;fill-rule:evenodd;stroke:url(#linearGradient2538);stroke-width:0.34484065px;stroke-linecap:butt;stroke-linejoin:miter;stroke-opacity:1"
       d="M 55.861414,46.369439 L 62.369955,43.676115 C 63.318343,43.430758 63.85687,44.034911 63.829294,45.031388 L 63.925962,52.97465 C 63.939688,53.876926 63.731727,54.528271 62.99371,54.903808 L 55.800454,57.768919 C 55.278457,57.850281 54.798315,57.817855 54.642217,57.220281 L 54.581258,49.11263 C 54.456444,47.474347 55.075438,46.682995 55.861414,46.369439 z"
       id="path3649"
       sodipodi:nodetypes="ccccccccc" />
  </g>
</svg>
