<?xml version="1.0" encoding="UTF-8" standalone="no"?>
<!-- Created with Inkscape (http://www.inkscape.org/) -->
<svg
   xmlns:dc="http://purl.org/dc/elements/1.1/"
   xmlns:cc="http://creativecommons.org/ns#"
   xmlns:rdf="http://www.w3.org/1999/02/22-rdf-syntax-ns#"
   xmlns:svg="http://www.w3.org/2000/svg"
   xmlns="http://www.w3.org/2000/svg"
   xmlns:xlink="http://www.w3.org/1999/xlink"
   xmlns:sodipodi="http://sodipodi.sourceforge.net/DTD/sodipodi-0.dtd"
   xmlns:inkscape="http://www.inkscape.org/namespaces/inkscape"
   width="64"
   height="64"
   id="svg2700"
   sodipodi:version="0.32"
   inkscape:version="0.46"
   sodipodi:docname="roundFace.svg"
   inkscape:output_extension="org.inkscape.output.svg.inkscape"
   version="1.0"
   style="display:inline"
   inkscape:export-filename="/home/rameses/RAMESES-DEV/image project(S)/Inkscape projects/Launcher Icons/SVG/templates/Output/roundFace.png"
   inkscape:export-xdpi="90"
   inkscape:export-ydpi="90">
  <defs
     id="defs2702">
    <linearGradient
       id="linearGradient3187">
      <stop
         style="stop-color:#808080;stop-opacity:1;"
         offset="0"
         id="stop3189" />
      <stop
         style="stop-color:#666666;stop-opacity:1;"
         offset="1"
         id="stop3191" />
    </linearGradient>
    <linearGradient
       id="linearGradient3179">
      <stop
         style="stop-color:#666666;stop-opacity:1;"
         offset="0"
         id="stop3181" />
      <stop
         style="stop-color:#666666;stop-opacity:1;"
         offset="1"
         id="stop3183" />
    </linearGradient>
    <inkscape:perspective
       sodipodi:type="inkscape:persp3d"
       inkscape:vp_x="0 : 32 : 1"
       inkscape:vp_y="0 : 1000 : 0"
       inkscape:vp_z="64 : 32 : 1"
       inkscape:persp3d-origin="32 : 21.333333 : 1"
       id="perspective36" />
    <filter
       height="2.0545726"
       y="-0.52728629"
       width="2.1263123"
       x="-0.56315613"
       id="filter3295"
       inkscape:collect="always">
      <feGaussianBlur
         id="feGaussianBlur3297"
         stdDeviation="6.160729"
         inkscape:collect="always" />
    </filter>
    <filter
       height="1.2767946"
       y="-0.13839723"
       width="1.26509"
       x="-0.13254499"
       id="filter3205"
       inkscape:collect="always">
      <feGaussianBlur
         id="feGaussianBlur3207"
         stdDeviation="1.3286108"
         inkscape:collect="always" />
    </filter>
    <linearGradient
       id="linearGradient3168">
      <stop
         style="stop-color:#ffffff;stop-opacity:1;"
         offset="0"
         id="stop3170" />
      <stop
         id="stop5123"
         offset="0.5"
         style="stop-color:#404729;stop-opacity:1;" />
      <stop
         style="stop-color:#000b0b;stop-opacity:1;"
         offset="1"
         id="stop3172" />
    </linearGradient>
    <linearGradient
       id="linearGradient3217">
      <stop
         id="stop3219"
         offset="0"
         style="stop-color:#ffffff;stop-opacity:1;" />
      <stop
         id="stop3221"
         offset="1"
         style="stop-color:#ffffff;stop-opacity:0.18103448;" />
    </linearGradient>
    <linearGradient
       inkscape:collect="always"
       xlink:href="#linearGradient3168"
       id="linearGradient3071"
       gradientUnits="userSpaceOnUse"
       x1="-8.2522736"
       y1="18.716543"
       x2="14.678609"
       y2="-9.7877235"
       gradientTransform="matrix(0.67453485,-1.9155948,1.8029001,0.63485191,21.214268,36.494425)" />
    <radialGradient
       inkscape:collect="always"
       xlink:href="#linearGradient3217"
       id="radialGradient3882"
       gradientUnits="userSpaceOnUse"
       gradientTransform="matrix(-1.582008,-0.1078287,-0.7663741,-1.8862965,62.234121,19.341693)"
       cx="22.442381"
       cy="5.5948043"
       fx="22.442381"
       fy="5.5948043"
       r="11.964466" />
    <filter
       inkscape:collect="always"
       id="filter3969"
       x="-0.47043234"
       width="1.9408647"
       y="-0.72864407"
       height="2.4572883">
      <feGaussianBlur
         inkscape:collect="always"
         stdDeviation="1.0376655"
         id="feGaussianBlur3971" />
    </filter>
    <linearGradient
       inkscape:collect="always"
       xlink:href="#linearGradient3187"
       id="linearGradient3193"
       x1="5.584775"
       y1="2.4915903"
       x2="2.3181646"
       y2="8.1091328"
       gradientUnits="userSpaceOnUse" />
  </defs>
  <sodipodi:namedview
     id="base"
     pagecolor="#ffffff"
     bordercolor="#666666"
     borderopacity="1.0"
     inkscape:pageopacity="0.0"
     inkscape:pageshadow="2"
     inkscape:zoom="7.5"
     inkscape:cx="20.554386"
     inkscape:cy="32"
     inkscape:current-layer="layer1"
     showgrid="true"
     inkscape:document-units="px"
     inkscape:grid-bbox="true"
     inkscape:window-width="1013"
     inkscape:window-height="706"
     inkscape:window-x="-5"
     inkscape:window-y="25"
     inkscape:window-maximized="1" />
  <metadata
     id="metadata2705">
    <rdf:RDF>
      <cc:Work
         rdf:about="">
        <dc:format>image/svg+xml</dc:format>
        <dc:type
           rdf:resource="http://purl.org/dc/dcmitype/StillImage" />
        <dc:title />
      </cc:Work>
    </rdf:RDF>
  </metadata>
  <g
     inkscape:groupmode="layer"
     id="layer2"
     inkscape:label="main color"
     style="display:inline">
    <path
       sodipodi:type="arc"
       style="fill:#550022;fill-opacity:1;stroke:none;display:inline"
       id="path2393"
       sodipodi:cx="3.8400393"
       sodipodi:cy="4.7625117"
       sodipodi:rx="13.127576"
       sodipodi:ry="14.020609"
       d="M 16.967615,4.7625117 A 13.127576,14.020609 0 1 1 -9.2875366,4.7625117 A 13.127576,14.020609 0 1 1 16.967615,4.7625117 z"
       transform="matrix(2.0024684,0,0,1.8427814,24.424997,23.247417)" />
  </g>
  <g
     inkscape:groupmode="layer"
     id="layer5"
     inkscape:label="design glow"
     style="display:inline">
    <path
       sodipodi:type="arc"
       style="opacity:0.76293137;fill:#ff0066;fill-opacity:1;stroke:none;display:inline;filter:url(#filter3295)"
       id="path3387"
       sodipodi:cx="3.8400393"
       sodipodi:cy="4.7625117"
       sodipodi:rx="13.127576"
       sodipodi:ry="14.020609"
       d="M 16.967615,4.7625117 A 13.127576,14.020609 0 1 1 -9.2875366,4.7625117 A 13.127576,14.020609 0 1 1 16.967615,4.7625117 z"
       transform="matrix(0.9909652,0,0,1.0381495,30.40161,33.685384)" />
    <path
       sodipodi:type="arc"
       style="fill:#ffffff;fill-opacity:1;stroke:none;display:inline;filter:url(#filter3969)"
       id="path3193"
       sodipodi:cx="11.296861"
       sodipodi:cy="11.90677"
       sodipodi:rx="2.9916587"
       sodipodi:ry="1.2502455"
       d="M 14.288519,11.90677 A 2.9916587,1.2502455 0 1 1 8.305202,11.90677 A 2.9916587,1.2502455 0 1 1 14.288519,11.90677 z"
       transform="matrix(3.2357017,0.8976466,0.2076117,5.1935982,6.2036668,-54.794796)"
       inkscape:transform-center-x="-2.1274419" />
    <path
       style="opacity:0.55;fill:url(#radialGradient3882);fill-opacity:1;stroke:none;display:inline;filter:url(#filter3205)"
       d="M 30.158688,13.71824 C 30.881181,21.342171 31.881057,21.817535 26.411417,23.501257 C 17.327017,26.297713 6.1225638,17.200156 7.7508453,9.0346827 C 8.8076677,3.7349511 12.086406,2.8836964 19.825319,3.6015692 C 24.933075,4.0753721 29.332844,6.9456925 30.158688,13.71824 z"
       id="path3169"
       sodipodi:nodetypes="csssc"
       transform="matrix(1.7133019,1.095033e-2,0.3795097,1.6017425,1.1520735,-1.4038883)"
       inkscape:connector-curvature="0" />
  </g>
  <g
     inkscape:groupmode="layer"
     id="layer8"
     inkscape:label="featured sign"
     style="display:inline">
    <path
       style="fill:#ffffff;stroke:#ffffff;stroke-width:0.9823845"
       d="M 20.765497,35.970041 C 20.765497,35.970041 26.060592,55.307486 26.029398,54.123117 C 25.948148,51.038184 28.760472,41.308046 31.145714,40.397619 L 28.931925,35.478083 C 30.643897,39.078564 34.154117,44.247342 39.459728,45.710717 C 41.976576,44.759053 42.615719,40.679003 43.887308,38.429804 C 44.254914,38.017569 44.296807,37.613087 46.740637,36.560383 C 48.496966,35.182915 46.128888,29.243105 46.543855,27.213266 C 47.80297,21.054226 45.302951,16.915502 42.017885,13.536959 C 39.789109,11.468377 31.860289,7.9910365 27.0625,11.273976 C 21.653767,15.392738 20.470423,19.202055 20.863891,23.031659 C 22.375696,27.498916 21.826716,32.25696 20.765501,35.970041 L 20.765497,35.970041 z"
       id="path19330"
       inkscape:connector-curvature="0"
       sodipodi:nodetypes="cscccccscccc" />
  </g>
  <g
     inkscape:groupmode="layer"
     id="layer6"
     inkscape:label="matte"
     style="display:inline">
    <path
       sodipodi:type="arc"
       style="opacity:0.11764706;fill:#000000;fill-opacity:1;fill-rule:evenodd;stroke:none;stroke-width:0.5;marker:none;visibility:visible;display:inline;overflow:visible;enable-background:accumulate"
       id="path3847"
       sodipodi:cx="37.155247"
       sodipodi:cy="43.815315"
       sodipodi:rx="24.813021"
       sodipodi:ry="24.813021"
       d="m 61.968267,43.815315 a 24.813021,24.813021 0 1 1 -49.626041,0 24.813021,24.813021 0 1 1 49.626041,0 z"
       transform="matrix(1.0563953,0,0,1.043765,-6.960914,-13.876601)" />
    <path
       style="opacity:0.10000000000000001;fill:#000000;fill-opacity:1;fill-rule:evenodd;stroke:none;stroke-width:1.03478062000000000;stroke-linecap:round;stroke-linejoin:round;stroke-miterlimit:4;stroke-opacity:1;stroke-dasharray:none;stroke-dashoffset:0;marker:none;visibility:visible;display:inline;overflow:visible;enable-background:accumulate"
       d="m 60.568249,38.086416 c 0,-14.555333 -11.436804,1.307452 -27.260977,1.307452 -15.824171,0 -30.0729756,-15.862785 -30.0729756,-1.307452 0,14.555335 12.8428046,25.055358 28.6669786,25.055358 15.824169,0 28.666974,-10.500023 28.666974,-25.055358 z"
       id="path3849"
       sodipodi:nodetypes="csssc"
       inkscape:connector-curvature="0" />
  </g>
  <g
     id="layer1"
     inkscape:label="outer rings"
     inkscape:groupmode="layer"
     style="display:inline">
    <path
       sodipodi:type="arc"
       style="fill:none;stroke:#808080;stroke-width:1.75127864;stroke-miterlimit:4;stroke-dasharray:none;stroke-opacity:1"
       id="path2386"
       sodipodi:cx="3.8400393"
       sodipodi:cy="4.7625117"
       sodipodi:rx="13.127576"
       sodipodi:ry="14.020609"
       d="M 16.967615,4.7625117 A 13.127576,14.020609 0 1 1 -9.2875366,4.7625117 A 13.127576,14.020609 0 1 1 16.967615,4.7625117 z"
       transform="matrix(2.2227398,0,0,2.0790335,23.633408,22.218732)" />
    <path
       sodipodi:type="arc"
       style="fill:none;stroke:url(#linearGradient3193);stroke-width:0.45320269000000002;stroke-miterlimit:4;stroke-dasharray:none;stroke-opacity:1;display:inline"
       id="path24405"
       sodipodi:cx="3.8400393"
       sodipodi:cy="4.7625117"
       sodipodi:rx="13.127576"
       sodipodi:ry="14.020609"
       d="M 16.967615,4.7625117 A 13.127576,14.020609 0 1 1 -9.2875366,4.7625117 A 13.127576,14.020609 0 1 1 16.967615,4.7625117 z"
       transform="matrix(2.3931082,0,0,2.231106,22.894477,21.452062)" />
    <path
       style="fill:none;stroke:url(#linearGradient3071);stroke-width:1.92407775;stroke-miterlimit:4;stroke-dasharray:none;stroke-opacity:1"
       d="M 41.281497,6.9136035 C 55.23482,11.826962 62.55656,27.181768 57.668597,41.062969 C 52.780635,54.944177 37.489154,62.222432 23.53583,57.309074 C 9.5825097,52.395716 2.2251183,37.142155 7.1130824,23.260948 C 12.001044,9.3797453 27.42309,1.7306998 41.281497,6.9136035 z"
       id="path2391"
       sodipodi:nodetypes="csssc"
       inkscape:connector-curvature="0" />
  </g>
</svg>
