<?xml version="1.0" encoding="UTF-8" standalone="no"?>
<!-- Created with Inkscape (http://www.inkscape.org/) -->
<svg
   xmlns:dc="http://purl.org/dc/elements/1.1/"
   xmlns:cc="http://creativecommons.org/ns#"
   xmlns:rdf="http://www.w3.org/1999/02/22-rdf-syntax-ns#"
   xmlns:svg="http://www.w3.org/2000/svg"
   xmlns="http://www.w3.org/2000/svg"
   xmlns:xlink="http://www.w3.org/1999/xlink"
   xmlns:sodipodi="http://sodipodi.sourceforge.net/DTD/sodipodi-0.dtd"
   xmlns:inkscape="http://www.inkscape.org/namespaces/inkscape"
   width="128"
   height="128"
   id="svg8111"
   sodipodi:version="0.32"
   inkscape:version="0.46"
   sodipodi:docname="payout.svg"
   inkscape:output_extension="org.inkscape.output.svg.inkscape"
   inkscape:export-filename="/home/rameses/RAMESES-DEV/image project(S)/Inkscape projects/Launcher Icons/Output/payout.png"
   inkscape:export-xdpi="90"
   inkscape:export-ydpi="90"
   version="1.1">
  <defs
     id="defs8113">
    <filter
       height="2.4572883"
       y="-0.72864407"
       width="1.9408647"
       x="-0.47043234"
       id="filter3969-8"
       inkscape:collect="always">
      <feGaussianBlur
         id="feGaussianBlur3971-8"
         stdDeviation="1.0376655"
         inkscape:collect="always" />
    </filter>
    <radialGradient
       r="11.964466"
       fy="5.5948043"
       fx="22.442381"
       cy="5.5948043"
       cx="22.442381"
       gradientTransform="matrix(-1.582008,-0.1078287,-0.7663741,-1.8862965,62.234121,19.341693)"
       gradientUnits="userSpaceOnUse"
       id="radialGradient3882-4"
       xlink:href="#linearGradient3217"
       inkscape:collect="always" />
    <linearGradient
       gradientTransform="matrix(0.6745349,-1.9155948,1.8029001,0.6348519,21.214268,36.494425)"
       y2="-9.7877235"
       x2="14.678609"
       y1="18.716543"
       x1="-8.2522736"
       gradientUnits="userSpaceOnUse"
       id="linearGradient3071-9"
       xlink:href="#linearGradient3168"
       inkscape:collect="always" />
    <linearGradient
       id="linearGradient3217">
      <stop
         style="stop-color:#ffffff;stop-opacity:1;"
         offset="0"
         id="stop3219" />
      <stop
         style="stop-color:#ffffff;stop-opacity:0.18103448;"
         offset="1"
         id="stop3221" />
    </linearGradient>
    <linearGradient
       id="linearGradient3168">
      <stop
         id="stop3170"
         offset="0"
         style="stop-color:#ffffff;stop-opacity:1;" />
      <stop
         style="stop-color:#404729;stop-opacity:1;"
         offset="0.5"
         id="stop5123" />
      <stop
         id="stop3172"
         offset="1"
         style="stop-color:#000b0b;stop-opacity:1;" />
    </linearGradient>
    <filter
       inkscape:collect="always"
       id="filter3205-4"
       x="-0.13254499"
       width="1.26509"
       y="-0.13839723"
       height="1.2767946">
      <feGaussianBlur
         inkscape:collect="always"
         stdDeviation="1.3286108"
         id="feGaussianBlur3207-0" />
    </filter>
    <filter
       inkscape:collect="always"
       id="filter3295-1"
       x="-0.56315613"
       width="2.1263123"
       y="-0.52728629"
       height="2.0545726">
      <feGaussianBlur
         inkscape:collect="always"
         stdDeviation="6.160729"
         id="feGaussianBlur3297-7" />
    </filter>
    <linearGradient
       y2="-9.7877235"
       x2="14.678609"
       y1="18.716543"
       x1="-8.2522736"
       gradientTransform="matrix(0.6745349,-1.9155948,1.8029001,0.6348519,21.214268,36.494425)"
       gradientUnits="userSpaceOnUse"
       id="linearGradient3113"
       xlink:href="#linearGradient3168-6"
       inkscape:collect="always" />
    <radialGradient
       r="11.964466"
       fy="5.5948043"
       fx="22.442381"
       cy="5.5948043"
       cx="22.442381"
       gradientTransform="matrix(-1.582008,-0.1078287,-0.7663741,-1.8862965,62.234121,19.341693)"
       gradientUnits="userSpaceOnUse"
       id="radialGradient3111"
       xlink:href="#linearGradient3217-2"
       inkscape:collect="always" />
    <linearGradient
       id="linearGradient3168-6">
      <stop
         style="stop-color:#ffffff;stop-opacity:1;"
         offset="0"
         id="stop3170-1" />
      <stop
         id="stop5123-1-8"
         offset="0.5"
         style="stop-color:#404729;stop-opacity:1;" />
      <stop
         style="stop-color:#000b0b;stop-opacity:1;"
         offset="1"
         id="stop3172-9" />
    </linearGradient>
    <filter
       height="1.2767946"
       y="-0.13839723"
       width="1.26509"
       x="-0.13254499"
       id="filter3205-8"
       inkscape:collect="always"
       color-interpolation-filters="sRGB">
      <feGaussianBlur
         id="feGaussianBlur3207-5"
         stdDeviation="1.3286108"
         inkscape:collect="always" />
    </filter>
    <linearGradient
       id="linearGradient3217-2">
      <stop
         id="stop3930"
         offset="0"
         style="stop-color:#ffffff;stop-opacity:1;" />
      <stop
         id="stop3221-6"
         offset="1"
         style="stop-color:#ffffff;stop-opacity:0.18103448;" />
    </linearGradient>
    <filter
       inkscape:collect="always"
       id="filter3969-4"
       x="-0.47043234"
       width="1.9408647"
       y="-0.72864407"
       height="2.4572883"
       color-interpolation-filters="sRGB">
      <feGaussianBlur
         inkscape:collect="always"
         stdDeviation="1.0376655"
         id="feGaussianBlur3971-23" />
    </filter>
    <filter
       height="2.0545726"
       y="-0.52728629"
       width="2.1263123"
       x="-0.56315613"
       id="filter3295-76"
       inkscape:collect="always"
       color-interpolation-filters="sRGB">
      <feGaussianBlur
         id="feGaussianBlur3297-1"
         stdDeviation="6.160729"
         inkscape:collect="always" />
    </filter>
    <radialGradient
       inkscape:collect="always"
       xlink:href="#linearGradient3217"
       id="radialGradient4093"
       gradientUnits="userSpaceOnUse"
       gradientTransform="matrix(-1.582008,-0.1078287,-0.7663741,-1.8862965,62.234121,19.341693)"
       cx="22.442381"
       cy="5.5948043"
       fx="22.442381"
       fy="5.5948043"
       r="11.964466" />
    <linearGradient
       inkscape:collect="always"
       xlink:href="#linearGradient3168"
       id="linearGradient4095"
       gradientUnits="userSpaceOnUse"
       gradientTransform="matrix(0.6745349,-1.9155948,1.8029001,0.6348519,21.214268,36.494425)"
       x1="-8.2522736"
       y1="18.716543"
       x2="14.678609"
       y2="-9.7877235" />
  </defs>
  <sodipodi:namedview
     id="base"
     pagecolor="#ffffff"
     bordercolor="#666666"
     borderopacity="1.0"
     inkscape:pageopacity="0.0"
     inkscape:pageshadow="2"
     inkscape:zoom="3.609375"
     inkscape:cx="64"
     inkscape:cy="64"
     inkscape:current-layer="layer1"
     showgrid="true"
     inkscape:document-units="px"
     inkscape:grid-bbox="true"
     inkscape:window-width="768"
     inkscape:window-height="688"
     inkscape:window-x="123"
     inkscape:window-y="25"
     inkscape:window-maximized="0"
     width="96px" />
  <metadata
     id="metadata8116">
    <rdf:RDF>
      <cc:Work
         rdf:about="">
        <dc:format>image/svg+xml</dc:format>
        <dc:type
           rdf:resource="http://purl.org/dc/dcmitype/StillImage" />
        <dc:title />
      </cc:Work>
    </rdf:RDF>
  </metadata>
  <g
     id="layer1"
     inkscape:label="Layer 1"
     inkscape:groupmode="layer"
     transform="translate(0,64.000018)">
    <g
       id="g15672"
       transform="matrix(1.3309206,0,0,1.3309206,-3.760946,44.159553)">
      <g
         transform="matrix(1.4750155,-0.18561385,0.18561385,1.4750155,22.691186,-72.348499)"
         inkscape:label="Layer 1"
         id="g23800">
        <rect
           style="fill:#f6ffd5;fill-opacity:1;fill-rule:nonzero;stroke:#669941;stroke-width:1.70215356;stroke-linecap:round;stroke-linejoin:miter;stroke-miterlimit:4;stroke-opacity:1;stroke-dasharray:none;stroke-dashoffset:0"
           id="rect23802"
           width="46.255295"
           height="26.333"
           x="0.91696376"
           y="0.86970103"
           transform="matrix(1,4.214399e-5,-3.5682488e-5,1,0,0)" />
        <rect
           style="fill:#f6ffd5;fill-opacity:1;fill-rule:nonzero;stroke:#669941;stroke-width:2.1162262;stroke-linecap:round;stroke-linejoin:miter;stroke-miterlimit:4;stroke-opacity:1;stroke-dasharray:none;stroke-dashoffset:0"
           id="rect23804"
           width="39.458965"
           height="18.299986"
           x="4.3895354"
           y="4.8053441"
           transform="matrix(1,4.214399e-5,-3.5682488e-5,1,0,0)" />
        <rect
           style="fill:#669941;fill-opacity:1;fill-rule:nonzero;stroke:none"
           id="rect23806"
           width="4.3156934"
           height="4.2050018"
           x="3.4334519"
           y="3.766295"
           transform="matrix(1,4.214399e-5,-3.5682488e-5,1,0,0)" />
        <rect
           style="fill:#669941;fill-opacity:1;fill-rule:nonzero;stroke:none"
           id="rect23808"
           width="4.3156934"
           height="4.2050018"
           x="3.3590424"
           y="19.454189"
           transform="matrix(1,4.214399e-5,-3.5682488e-5,1,0,0)" />
        <rect
           style="fill:#669941;fill-opacity:1;fill-rule:nonzero;stroke:none"
           id="rect23810"
           width="4.3156934"
           height="4.2050018"
           x="40.265663"
           y="3.928025"
           transform="matrix(1,4.214399e-5,-3.5682488e-5,1,0,0)" />
        <rect
           style="fill:#669941;fill-opacity:1;fill-rule:nonzero;stroke:none"
           id="rect23812"
           width="4.3156934"
           height="4.2050018"
           x="40.116852"
           y="19.939383"
           transform="matrix(1,4.214399e-5,-3.5682488e-5,1,0,0)" />
        <rect
           style="fill:#669941;fill-opacity:1;fill-rule:nonzero;stroke:none"
           id="rect23814"
           width="4.3156934"
           height="4.2050018"
           x="31.783092"
           y="12.014568"
           transform="matrix(1,4.214399e-5,-3.5682488e-5,1,0,0)" />
        <rect
           style="fill:#669941;fill-opacity:1;fill-rule:nonzero;stroke:none"
           id="rect23816"
           width="4.3156934"
           height="4.2050018"
           x="13.180966"
           y="12.014568"
           transform="matrix(1,4.214399e-5,-3.5682488e-5,1,0,0)" />
        <path
           sodipodi:type="arc"
           style="fill:#000000;fill-opacity:0;fill-rule:nonzero;stroke:#669941;stroke-width:1;stroke-linecap:round;stroke-linejoin:miter;stroke-miterlimit:4;stroke-opacity:1;stroke-dasharray:none;stroke-dashoffset:0"
           id="path23818"
           sodipodi:cx="7.7837839"
           sodipodi:cy="21.405405"
           sodipodi:rx="3.2432432"
           sodipodi:ry="5.003861"
           d="m 11.027027,21.405405 c 0,2.763556 -1.4520493,5.003861 -3.2432431,5.003861 -1.7911938,0 -3.2432432,-2.240305 -3.2432432,-5.003861 0,-2.763556 1.4520494,-5.003861 3.2432432,-5.003861 1.7911938,0 3.2432431,2.240305 3.2432431,5.003861 z"
           transform="matrix(1.6070103,6.7725828e-5,-5.077106e-5,1.4228566,12.131846,-16.581836)" />
      </g>
      <path
         sodipodi:nodetypes="ccccc"
         id="path24370"
         d="m 22.920165,-72.59459 5.135694,41.896455 70.818523,-9.460489 -5.392199,-40.870404 z"
         style="opacity:0.5;fill:#000000;fill-opacity:1;fill-rule:evenodd;stroke:none"
         inkscape:connector-curvature="0" />
    </g>
    <g
       id="g24357"
       transform="matrix(1.9786109,0,0,1.9786109,-124.10186,-70.486107)">
      <g
         transform="translate(76.864981,11.053694)"
         inkscape:label="Layer 1"
         id="g23760">
        <rect
           style="fill:#f6ffd5;fill-opacity:1;fill-rule:nonzero;stroke:#669941;stroke-width:1.70215356;stroke-linecap:round;stroke-linejoin:miter;stroke-miterlimit:4;stroke-opacity:1;stroke-dasharray:none;stroke-dashoffset:0"
           id="rect23762"
           width="46.255295"
           height="26.333"
           x="0.91696376"
           y="0.86970103"
           transform="matrix(1,4.214399e-5,-3.5682488e-5,1,0,0)" />
        <rect
           style="fill:#f6ffd5;fill-opacity:1;fill-rule:nonzero;stroke:#669941;stroke-width:2.1162262;stroke-linecap:round;stroke-linejoin:miter;stroke-miterlimit:4;stroke-opacity:1;stroke-dasharray:none;stroke-dashoffset:0"
           id="rect23764"
           width="39.458965"
           height="18.299986"
           x="4.3895354"
           y="4.8053441"
           transform="matrix(1,4.214399e-5,-3.5682488e-5,1,0,0)" />
        <rect
           style="fill:#669941;fill-opacity:1;fill-rule:nonzero;stroke:none"
           id="rect23766"
           width="4.3156934"
           height="4.2050018"
           x="3.4334519"
           y="3.766295"
           transform="matrix(1,4.214399e-5,-3.5682488e-5,1,0,0)" />
        <rect
           style="fill:#669941;fill-opacity:1;fill-rule:nonzero;stroke:none"
           id="rect23768"
           width="4.3156934"
           height="4.2050018"
           x="3.3590424"
           y="19.454189"
           transform="matrix(1,4.214399e-5,-3.5682488e-5,1,0,0)" />
        <rect
           style="fill:#669941;fill-opacity:1;fill-rule:nonzero;stroke:none"
           id="rect23770"
           width="4.3156934"
           height="4.2050018"
           x="40.265663"
           y="3.928025"
           transform="matrix(1,4.214399e-5,-3.5682488e-5,1,0,0)" />
        <rect
           style="fill:#669941;fill-opacity:1;fill-rule:nonzero;stroke:none"
           id="rect23772"
           width="4.3156934"
           height="4.2050018"
           x="40.116852"
           y="19.939383"
           transform="matrix(1,4.214399e-5,-3.5682488e-5,1,0,0)" />
        <rect
           style="fill:#669941;fill-opacity:1;fill-rule:nonzero;stroke:none"
           id="rect23774"
           width="4.3156934"
           height="4.2050018"
           x="31.783092"
           y="12.014568"
           transform="matrix(1,4.214399e-5,-3.5682488e-5,1,0,0)" />
        <rect
           style="fill:#669941;fill-opacity:1;fill-rule:nonzero;stroke:none"
           id="rect23776"
           width="4.3156934"
           height="4.2050018"
           x="13.180966"
           y="12.014568"
           transform="matrix(1,4.214399e-5,-3.5682488e-5,1,0,0)" />
        <path
           sodipodi:type="arc"
           style="fill:#000000;fill-opacity:0;fill-rule:nonzero;stroke:#669941;stroke-width:1;stroke-linecap:round;stroke-linejoin:miter;stroke-miterlimit:4;stroke-opacity:1;stroke-dasharray:none;stroke-dashoffset:0"
           id="path23778"
           sodipodi:cx="7.7837839"
           sodipodi:cy="21.405405"
           sodipodi:rx="3.2432432"
           sodipodi:ry="5.003861"
           d="m 11.027027,21.405405 c 0,2.763556 -1.4520493,5.003861 -3.2432431,5.003861 -1.7911938,0 -3.2432432,-2.240305 -3.2432432,-5.003861 0,-2.763556 1.4520494,-5.003861 3.2432432,-5.003861 1.7911938,0 3.2432431,2.240305 3.2432431,5.003861 z"
           transform="matrix(1.6070103,6.7725828e-5,-5.077106e-5,1.4228566,12.131846,-16.581836)" />
      </g>
      <path
         id="path24344"
         d="m 76.727273,10.909091 0,28.545454 48.363637,0 0,-28.363636 -48.363637,-0.181818 z"
         style="opacity:0.4;fill:#000000;fill-rule:evenodd;stroke:none"
         inkscape:connector-curvature="0" />
    </g>
    <g
       id="g15609"
       transform="matrix(1.9786109,0,0,1.9786109,138.20955,-58.684371)">
      <g
         transform="matrix(0.9733431,0.2293538,-0.2293538,0.9733431,-54.640232,4.7083185)"
         inkscape:label="Layer 1"
         id="g23780">
        <rect
           style="fill:#f6ffd5;fill-opacity:1;fill-rule:nonzero;stroke:#669941;stroke-width:1.70215356;stroke-linecap:round;stroke-linejoin:miter;stroke-miterlimit:4;stroke-opacity:1;stroke-dasharray:none;stroke-dashoffset:0"
           id="rect23782"
           width="46.255295"
           height="26.333"
           x="0.91696376"
           y="0.86970103"
           transform="matrix(1,4.214399e-5,-3.5682488e-5,1,0,0)" />
        <rect
           style="fill:#f6ffd5;fill-opacity:1;fill-rule:nonzero;stroke:#669941;stroke-width:2.1162262;stroke-linecap:round;stroke-linejoin:miter;stroke-miterlimit:4;stroke-opacity:1;stroke-dasharray:none;stroke-dashoffset:0"
           id="rect23784"
           width="39.458965"
           height="18.299986"
           x="4.3895354"
           y="4.8053441"
           transform="matrix(1,4.214399e-5,-3.5682488e-5,1,0,0)" />
        <rect
           style="fill:#669941;fill-opacity:1;fill-rule:nonzero;stroke:none"
           id="rect23786"
           width="4.3156934"
           height="4.2050018"
           x="3.4334519"
           y="3.766295"
           transform="matrix(1,4.214399e-5,-3.5682488e-5,1,0,0)" />
        <rect
           style="fill:#669941;fill-opacity:1;fill-rule:nonzero;stroke:none"
           id="rect23788"
           width="4.3156934"
           height="4.2050018"
           x="3.3590424"
           y="19.454189"
           transform="matrix(1,4.214399e-5,-3.5682488e-5,1,0,0)" />
        <rect
           style="fill:#669941;fill-opacity:1;fill-rule:nonzero;stroke:none"
           id="rect23790"
           width="4.3156934"
           height="4.2050018"
           x="40.265663"
           y="3.928025"
           transform="matrix(1,4.214399e-5,-3.5682488e-5,1,0,0)" />
        <rect
           style="fill:#669941;fill-opacity:1;fill-rule:nonzero;stroke:none"
           id="rect23792"
           width="4.3156934"
           height="4.2050018"
           x="40.116852"
           y="19.939383"
           transform="matrix(1,4.214399e-5,-3.5682488e-5,1,0,0)" />
        <rect
           style="fill:#669941;fill-opacity:1;fill-rule:nonzero;stroke:none"
           id="rect23794"
           width="4.3156934"
           height="4.2050018"
           x="31.783092"
           y="12.014568"
           transform="matrix(1,4.214399e-5,-3.5682488e-5,1,0,0)" />
        <rect
           style="fill:#669941;fill-opacity:1;fill-rule:nonzero;stroke:none"
           id="rect23796"
           width="4.3156934"
           height="4.2050018"
           x="13.180966"
           y="12.014568"
           transform="matrix(1,4.214399e-5,-3.5682488e-5,1,0,0)" />
        <path
           sodipodi:type="arc"
           style="fill:#000000;fill-opacity:0;fill-rule:nonzero;stroke:#669941;stroke-width:1;stroke-linecap:round;stroke-linejoin:miter;stroke-miterlimit:4;stroke-opacity:1;stroke-dasharray:none;stroke-dashoffset:0"
           id="path23798"
           sodipodi:cx="7.7837839"
           sodipodi:cy="21.405405"
           sodipodi:rx="3.2432432"
           sodipodi:ry="5.003861"
           d="m 11.027027,21.405405 c 0,2.763556 -1.4520493,5.003861 -3.2432431,5.003861 -1.7911938,0 -3.2432432,-2.240305 -3.2432432,-5.003861 0,-2.763556 1.4520494,-5.003861 3.2432432,-5.003861 1.7911938,0 3.2432431,2.240305 3.2432431,5.003861 z"
           transform="matrix(1.6070103,6.7725828e-5,-5.077106e-5,1.4228566,12.131846,-16.581836)" />
      </g>
      <path
         inkscape:connector-curvature="0"
         id="path23820"
         d="M -54.713063,4.6132265 -7.9857907,16.067772 -14.713061,42.976864 -61.440336,32.067773 -54.713063,4.6132265 z"
         style="opacity:0.3;fill:#000000;fill-opacity:1;fill-rule:evenodd;stroke:none" />
    </g>
    <g
       id="g15635"
       transform="matrix(1.9786109,0,0,1.9786109,-92.213378,-60.714529)">
      <g
         transform="matrix(0.8618312,0.5071952,-0.5071952,0.8618312,65.186619,6.6321456)"
         inkscape:label="Layer 1"
         id="g23749">
        <rect
           style="fill:#f6ffd5;fill-opacity:1;fill-rule:nonzero;stroke:#669941;stroke-width:1.70215356;stroke-linecap:round;stroke-linejoin:miter;stroke-miterlimit:4;stroke-opacity:1;stroke-dasharray:none;stroke-dashoffset:0"
           id="rect3972"
           width="46.255295"
           height="26.333"
           x="0.91696376"
           y="0.86970103"
           transform="matrix(1,4.214399e-5,-3.5682488e-5,1,0,0)" />
        <rect
           style="fill:#f6ffd5;fill-opacity:1;fill-rule:nonzero;stroke:#669941;stroke-width:2.1162262;stroke-linecap:round;stroke-linejoin:miter;stroke-miterlimit:4;stroke-opacity:1;stroke-dasharray:none;stroke-dashoffset:0"
           id="rect3974"
           width="39.458965"
           height="18.299986"
           x="4.3895354"
           y="4.8053441"
           transform="matrix(1,4.214399e-5,-3.5682488e-5,1,0,0)" />
        <rect
           style="fill:#669941;fill-opacity:1;fill-rule:nonzero;stroke:none"
           id="rect3976"
           width="4.3156934"
           height="4.2050018"
           x="3.4334519"
           y="3.766295"
           transform="matrix(1,4.214399e-5,-3.5682488e-5,1,0,0)" />
        <rect
           style="fill:#669941;fill-opacity:1;fill-rule:nonzero;stroke:none"
           id="rect3978"
           width="4.3156934"
           height="4.2050018"
           x="3.3590424"
           y="19.454189"
           transform="matrix(1,4.214399e-5,-3.5682488e-5,1,0,0)" />
        <rect
           style="fill:#669941;fill-opacity:1;fill-rule:nonzero;stroke:none"
           id="rect3980"
           width="4.3156934"
           height="4.2050018"
           x="40.265663"
           y="3.928025"
           transform="matrix(1,4.214399e-5,-3.5682488e-5,1,0,0)" />
        <rect
           style="fill:#669941;fill-opacity:1;fill-rule:nonzero;stroke:none"
           id="rect3982"
           width="4.3156934"
           height="4.2050018"
           x="40.116852"
           y="19.939383"
           transform="matrix(1,4.214399e-5,-3.5682488e-5,1,0,0)" />
        <rect
           style="fill:#669941;fill-opacity:1;fill-rule:nonzero;stroke:none"
           id="rect3984"
           width="4.3156934"
           height="4.2050018"
           x="31.783092"
           y="12.014568"
           transform="matrix(1,4.214399e-5,-3.5682488e-5,1,0,0)" />
        <rect
           style="fill:#669941;fill-opacity:1;fill-rule:nonzero;stroke:none"
           id="rect3986"
           width="4.3156934"
           height="4.2050018"
           x="13.180966"
           y="12.014568"
           transform="matrix(1,4.214399e-5,-3.5682488e-5,1,0,0)" />
        <path
           sodipodi:type="arc"
           style="fill:#000000;fill-opacity:0;fill-rule:nonzero;stroke:#669941;stroke-width:1;stroke-linecap:round;stroke-linejoin:miter;stroke-miterlimit:4;stroke-opacity:1;stroke-dasharray:none;stroke-dashoffset:0"
           id="path3988"
           sodipodi:cx="7.7837839"
           sodipodi:cy="21.405405"
           sodipodi:rx="3.2432432"
           sodipodi:ry="5.003861"
           d="m 11.027027,21.405405 c 0,2.763556 -1.4520493,5.003861 -3.2432431,5.003861 -1.7911938,0 -3.2432432,-2.240305 -3.2432432,-5.003861 0,-2.763556 1.4520494,-5.003861 3.2432432,-5.003861 1.7911938,0 3.2432431,2.240305 3.2432431,5.003861 z"
           transform="matrix(1.6070103,6.7725828e-5,-5.077106e-5,1.4228566,12.131846,-16.581836)" />
      </g>
      <path
         inkscape:connector-curvature="0"
         id="path15622"
         d="M 51.302605,30.653307 92.344689,55.278557 106.70942,30.90982 65.410822,6.7975952 z"
         style="opacity:0.2;fill:#000000;stroke:none" />
    </g>
    <g
       id="g4075"
       transform="translate(0,0.8794284)">
      <g
         transform="matrix(1.2734172,0,0,1.2734172,0.1100172,-18.453219)"
         style="display:inline"
         inkscape:label="main color"
         id="layer2">
        <path
           transform="matrix(2.0024684,0,0,1.8427814,24.424997,23.07235)"
           d="M 16.967615,4.7625117 A 13.127576,14.020609 0 1 1 -9.2875366,4.7625117 A 13.127576,14.020609 0 1 1 16.967615,4.7625117 z"
           sodipodi:ry="14.020609"
           sodipodi:rx="13.127576"
           sodipodi:cy="4.7625117"
           sodipodi:cx="3.8400393"
           id="path2393"
           style="fill:#0b2228;fill-opacity:1;stroke:none;display:inline"
           sodipodi:type="arc" />
      </g>
      <g
         transform="matrix(1.2734172,0,0,1.2734172,0.1100172,-18.453219)"
         style="display:inline"
         inkscape:label="design glow"
         id="layer5">
        <path
           transform="matrix(0.9909652,0,0,1.0381495,30.40161,33.685384)"
           d="M 16.967615,4.7625117 A 13.127576,14.020609 0 1 1 -9.2875366,4.7625117 A 13.127576,14.020609 0 1 1 16.967615,4.7625117 z"
           sodipodi:ry="14.020609"
           sodipodi:rx="13.127576"
           sodipodi:cy="4.7625117"
           sodipodi:cx="3.8400393"
           id="path3387"
           style="opacity:0.76293137;fill:#2ad4ff;fill-opacity:1;stroke:none;display:inline;filter:url(#filter3295-1)"
           sodipodi:type="arc" />
        <path
           inkscape:transform-center-x="-2.1274419"
           transform="matrix(3.2357017,0.8976466,0.2076117,5.1935982,6.2036668,-54.794796)"
           d="M 14.288519,11.90677 A 2.9916587,1.2502455 0 1 1 8.305202,11.90677 A 2.9916587,1.2502455 0 1 1 14.288519,11.90677 z"
           sodipodi:ry="1.2502455"
           sodipodi:rx="2.9916587"
           sodipodi:cy="11.90677"
           sodipodi:cx="11.296861"
           id="path3193"
           style="fill:#ffffff;fill-opacity:1;stroke:none;display:inline;filter:url(#filter3969-8)"
           sodipodi:type="arc" />
        <path
           inkscape:connector-curvature="0"
           transform="matrix(1.7133019,1.095033e-2,0.3795097,1.6017425,1.1520735,-1.4038883)"
           sodipodi:nodetypes="csssc"
           id="path3169"
           d="M 30.158688,13.71824 C 30.881181,21.342171 31.881057,21.817535 26.411417,23.501257 C 17.327017,26.297713 6.1225638,17.200156 7.7508453,9.0346827 C 8.8076677,3.7349511 12.086406,2.8836964 19.825319,3.6015692 C 24.933075,4.0753721 29.332844,6.9456925 30.158688,13.71824 z"
           style="opacity:0.55;fill:url(#radialGradient4093);fill-opacity:1;stroke:none;display:inline;filter:url(#filter3205-4)" />
      </g>
      <g
         transform="matrix(1.2734172,0,0,1.2734172,0.1100172,-18.453219)"
         style="display:inline"
         inkscape:label="featured sign"
         id="layer8">
        <g
           transform="matrix(1,0,0,-1,5.679485e-2,60.678773)"
           style="display:inline"
           inkscape:label="featured sign"
           id="layer8-2">
          <path
             sodipodi:nodetypes="cccccccc"
             inkscape:connector-curvature="0"
             id="path3790"
             d="M 39.612687,47.706566 L 25.455324,47.706566 L 25.455324,27.531777 L 14.765068,27.531777 L 32.424593,11.226125 L 50.355513,27.595956 L 39.612687,27.595956 L 39.612687,47.706566 L 39.612687,47.706566 z"
             style="fill:#ffffff;fill-opacity:1;stroke:none" />
        </g>
      </g>
      <g
         transform="matrix(1.2734172,0,0,1.2734172,0.1100172,-18.453219)"
         style="display:inline"
         inkscape:label="matte"
         id="layer6">
        <path
           transform="matrix(1.0563953,0,0,1.043765,-6.960914,-13.876601)"
           d="M 61.968267,43.815315 A 24.813021,24.813021 0 1 1 12.342226,43.815315 A 24.813021,24.813021 0 1 1 61.968267,43.815315 z"
           sodipodi:ry="24.813021"
           sodipodi:rx="24.813021"
           sodipodi:cy="43.815315"
           sodipodi:cx="37.155247"
           id="path3847"
           style="opacity:0.11764706;fill:#000000;fill-opacity:1;fill-rule:evenodd;stroke:none;stroke-width:0.5;marker:none;visibility:visible;display:inline;overflow:visible;enable-background:accumulate"
           sodipodi:type="arc" />
        <path
           inkscape:connector-curvature="0"
           sodipodi:nodetypes="csssc"
           id="path3849"
           d="M 60.568249,37.918563 C 60.568249,23.760708 49.131445,39.190311 33.307272,39.190311 C 17.483101,39.190311 3.2342964,23.760708 3.2342964,37.918563 C 3.2342964,52.076421 16.077101,63.566856 31.901275,63.566856 C 47.725444,63.566856 60.568249,52.076421 60.568249,37.918563 L 60.568249,37.918563 z"
           style="opacity:0.1;fill:#000000;fill-opacity:1;fill-rule:evenodd;stroke:none;stroke-width:1.03478062;marker:none;visibility:visible;display:inline;overflow:visible;enable-background:accumulate" />
      </g>
      <g
         transform="matrix(1.2734172,0,0,1.2734172,0.1100172,-18.453219)"
         style="display:inline"
         inkscape:label="outer rings"
         id="layer1-5">
        <path
           transform="matrix(2.2227398,0,0,2.0790335,23.633408,22.218732)"
           d="M 16.967615,4.7625117 A 13.127576,14.020609 0 1 1 -9.2875366,4.7625117 A 13.127576,14.020609 0 1 1 16.967615,4.7625117 z"
           sodipodi:ry="14.020609"
           sodipodi:rx="13.127576"
           sodipodi:cy="4.7625117"
           sodipodi:cx="3.8400393"
           id="path2386"
           style="fill:none;stroke:#808080;stroke-width:1.75127864;stroke-miterlimit:4;stroke-dasharray:none;stroke-opacity:1"
           sodipodi:type="arc" />
        <path
           transform="matrix(2.3931082,0,0,2.231106,22.894477,21.452062)"
           d="M 16.967615,4.7625117 A 13.127576,14.020609 0 1 1 -9.2875366,4.7625117 A 13.127576,14.020609 0 1 1 16.967615,4.7625117 z"
           sodipodi:ry="14.020609"
           sodipodi:rx="13.127576"
           sodipodi:cy="4.7625117"
           sodipodi:cx="3.8400393"
           id="path24405"
           style="fill:none;stroke:#333333;stroke-width:0.45320269;stroke-miterlimit:4;stroke-dasharray:none;stroke-opacity:1;display:inline"
           sodipodi:type="arc" />
        <path
           inkscape:connector-curvature="0"
           sodipodi:nodetypes="csssc"
           id="path2391"
           d="M 41.281497,6.9136035 C 55.23482,11.826962 62.55656,27.181768 57.668597,41.062969 C 52.780635,54.944177 37.489154,62.222432 23.53583,57.309074 C 9.5825097,52.395716 2.2251183,37.142155 7.1130824,23.260948 C 12.001044,9.3797453 27.42309,1.7306998 41.281497,6.9136035 z"
           style="fill:none;stroke:url(#linearGradient4095);stroke-width:1.92407775;stroke-miterlimit:4;stroke-dasharray:none;stroke-opacity:1" />
      </g>
    </g>
  </g>
</svg>
