<?xml version="1.0" encoding="UTF-8" standalone="no"?>
<!-- Created with Inkscape (http://www.inkscape.org/) -->

<svg
   xmlns:dc="http://purl.org/dc/elements/1.1/"
   xmlns:cc="http://creativecommons.org/ns#"
   xmlns:rdf="http://www.w3.org/1999/02/22-rdf-syntax-ns#"
   xmlns:svg="http://www.w3.org/2000/svg"
   xmlns="http://www.w3.org/2000/svg"
   xmlns:xlink="http://www.w3.org/1999/xlink"
   xmlns:sodipodi="http://sodipodi.sourceforge.net/DTD/sodipodi-0.dtd"
   xmlns:inkscape="http://www.inkscape.org/namespaces/inkscape"
   width="128"
   height="128"
   id="svg2700"
   sodipodi:version="0.32"
   inkscape:version="0.48.0 r9654"
   sodipodi:docname="roundStar.svg"
   inkscape:output_extension="org.inkscape.output.svg.inkscape"
   version="1.0"
   style="display:inline">
  <defs
     id="defs2702">
    <filter
       height="2.0545726"
       y="-0.52728629"
       width="2.1263123"
       x="-0.56315613"
       id="filter3295"
       inkscape:collect="always"
       color-interpolation-filters="sRGB">
      <feGaussianBlur
         id="feGaussianBlur3297"
         stdDeviation="6.160729"
         inkscape:collect="always" />
    </filter>
    <filter
       height="1.2767946"
       y="-0.13839723"
       width="1.26509"
       x="-0.13254499"
       id="filter3205"
       inkscape:collect="always"
       color-interpolation-filters="sRGB">
      <feGaussianBlur
         id="feGaussianBlur3207"
         stdDeviation="1.3286108"
         inkscape:collect="always" />
    </filter>
    <linearGradient
       id="linearGradient3168">
      <stop
         style="stop-color:#ffffff;stop-opacity:1;"
         offset="0"
         id="stop3170" />
      <stop
         id="stop5123"
         offset="0.5"
         style="stop-color:#404729;stop-opacity:1;" />
      <stop
         style="stop-color:#000b0b;stop-opacity:1;"
         offset="1"
         id="stop3172" />
    </linearGradient>
    <linearGradient
       id="linearGradient3217">
      <stop
         id="stop3219"
         offset="0"
         style="stop-color:#ffffff;stop-opacity:1;" />
      <stop
         id="stop3221"
         offset="1"
         style="stop-color:#ffffff;stop-opacity:0.18103448;" />
    </linearGradient>
    <linearGradient
       inkscape:collect="always"
       xlink:href="#linearGradient3168"
       id="linearGradient3071"
       gradientUnits="userSpaceOnUse"
       x1="-8.2522736"
       y1="18.716543"
       x2="14.678609"
       y2="-9.7877235"
       gradientTransform="matrix(1.3488859,-3.8306678,3.6053091,1.2695309,42.278004,9.4143265)" />
    <radialGradient
       inkscape:collect="always"
       xlink:href="#linearGradient3217"
       id="radialGradient3882"
       gradientUnits="userSpaceOnUse"
       gradientTransform="matrix(-1.582008,-0.1078287,-0.7663741,-1.8862965,62.234121,19.341693)"
       cx="22.442381"
       cy="5.5948043"
       fx="22.442381"
       fy="5.5948043"
       r="11.964466" />
    <filter
       inkscape:collect="always"
       id="filter3969"
       x="-0.47043234"
       width="1.9408647"
       y="-0.72864407"
       height="2.4572883"
       color-interpolation-filters="sRGB">
      <feGaussianBlur
         inkscape:collect="always"
         stdDeviation="1.0376655"
         id="feGaussianBlur3971" />
    </filter>
  </defs>
  <sodipodi:namedview
     id="base"
     pagecolor="#ffffff"
     bordercolor="#666666"
     borderopacity="1.0"
     inkscape:pageopacity="0.0"
     inkscape:pageshadow="2"
     inkscape:zoom="2.0195313"
     inkscape:cx="29.090911"
     inkscape:cy="32.263742"
     inkscape:current-layer="layer6"
     showgrid="true"
     inkscape:document-units="px"
     inkscape:grid-bbox="true"
     inkscape:window-width="1360"
     inkscape:window-height="706"
     inkscape:window-x="-8"
     inkscape:window-y="-8"
     inkscape:window-maximized="1" />
  <metadata
     id="metadata2705">
    <rdf:RDF>
      <cc:Work
         rdf:about="">
        <dc:format>image/svg+xml</dc:format>
        <dc:type
           rdf:resource="http://purl.org/dc/dcmitype/StillImage" />
        <dc:title />
      </cc:Work>
    </rdf:RDF>
  </metadata>
  <g
     inkscape:groupmode="layer"
     id="layer2"
     inkscape:label="main color"
     style="display:inline"
     transform="translate(0,64)">
    <path
       sodipodi:type="arc"
       style="fill:#550022;fill-opacity:1;stroke:none;display:inline"
       id="path2393"
       sodipodi:cx="3.8400393"
       sodipodi:cy="4.7625117"
       sodipodi:rx="13.127576"
       sodipodi:ry="14.020609"
       d="m 16.967615,4.7625117 c 0,7.7433683 -5.877416,14.0206093 -13.1275757,14.0206093 -7.25016,0 -13.1275759,-6.277241 -13.1275759,-14.0206093 0,-7.7433684 5.8774159,-14.0206089 13.1275759,-14.0206089 7.2501597,0 13.1275757,6.2772405 13.1275757,14.0206089 z"
       transform="matrix(4.0043916,0,0,3.6850611,48.698591,-17.076081)" />
  </g>
  <g
     inkscape:groupmode="layer"
     id="layer5"
     inkscape:label="design glow"
     style="display:inline"
     transform="translate(0,64)">
    <path
       sodipodi:type="arc"
       style="opacity:0.76293137;fill:#ff0066;fill-opacity:1;stroke:none;display:inline;filter:url(#filter3295)"
       id="path3387"
       sodipodi:cx="3.8400393"
       sodipodi:cy="4.7625117"
       sodipodi:rx="13.127576"
       sodipodi:ry="14.020609"
       d="m 16.967615,4.7625117 c 0,7.7433683 -5.877416,14.0206093 -13.1275757,14.0206093 -7.25016,0 -13.1275759,-6.277241 -13.1275759,-14.0206093 0,-7.7433684 5.8774159,-14.0206089 13.1275759,-14.0206089 7.2501597,0 13.1275757,6.2772405 13.1275757,14.0206089 z"
       transform="matrix(1.9816607,0,0,2.0760164,60.65019,3.7970104)" />
    <path
       sodipodi:type="arc"
       style="fill:#ffffff;fill-opacity:1;stroke:none;display:inline;filter:url(#filter3969)"
       id="path3193"
       sodipodi:cx="11.296861"
       sodipodi:cy="11.90677"
       sodipodi:rx="2.9916587"
       sodipodi:ry="1.2502455"
       d="m 14.288519,11.90677 c 0,0.690491 -1.339411,1.250245 -2.991658,1.250245 -1.6522478,0 -2.991659,-0.559754 -2.991659,-1.250245 0,-0.690492 1.3394112,-1.250246 2.991659,-1.250246 1.652247,0 2.991658,0.559754 2.991658,1.250246 z"
       transform="matrix(6.4705225,1.7950488,0.41516696,10.385783,12.260892,-173.13927)"
       inkscape:transform-center-x="-4.2543051" />
    <path
       style="opacity:0.55;fill:url(#radialGradient3882);fill-opacity:1;stroke:none;display:inline;filter:url(#filter3205)"
       d="m 30.158688,13.71824 c 0.722493,7.623931 1.722369,8.099295 -3.747271,9.783017 C 17.327017,26.297713 6.1225638,17.200156 7.7508453,9.0346827 8.8076677,3.7349511 12.086406,2.8836964 19.825319,3.6015692 24.933075,4.0753721 29.332844,6.9456925 30.158688,13.71824 z"
       id="path3169"
       sodipodi:nodetypes="csssc"
       transform="matrix(3.4261374,0.02189768,0.75891607,3.2030489,2.1590808,-66.37198)"
       inkscape:connector-curvature="0" />
  </g>
  <g
     inkscape:groupmode="layer"
     id="layer8"
     inkscape:label="featured sign"
     style="display:inline"
     transform="translate(0,64)">
    <path
       sodipodi:type="star"
       style="color:#000000;fill:#ffffff;fill-opacity:1;stroke:none;stroke-width:0.65988171;marker:none;visibility:visible;display:inline;overflow:visible;enable-background:accumulate"
       id="path4358"
       sodipodi:sides="5"
       sodipodi:cx="-43.066498"
       sodipodi:cy="23.734577"
       sodipodi:r1="28.116117"
       sodipodi:r2="14.058059"
       sodipodi:arg1="0.92231394"
       sodipodi:arg2="1.5506325"
       inkscape:flatsided="false"
       inkscape:rounded="0"
       inkscape:randomized="0"
       d="m -26.084994,46.14316 -16.698059,-8.353382 -16.3477,9.019802 2.784554,-18.462135 -13.630059,-12.760314 18.419008,-3.056845 7.923861,-16.9061108 8.599019,16.5729008 18.527274,2.311764 -13.104522,13.299461 z"
       inkscape:transform-center-x="0.2486735"
       inkscape:transform-center-y="-3.5737796"
       transform="matrix(1.4194627,0,0,1.4194627,126.59178,-33.195597)" />
  </g>
  <g
     inkscape:groupmode="layer"
     id="layer6"
     inkscape:label="matte"
     style="display:inline"
     transform="translate(0,64)">
    <path
       sodipodi:type="arc"
       style="opacity:0.11764706;fill:#000000;fill-opacity:1;fill-rule:evenodd;stroke:none;stroke-width:0.5;marker:none;visibility:visible;display:inline;overflow:visible;enable-background:accumulate"
       id="path3847"
       sodipodi:cx="37.155247"
       sodipodi:cy="43.815315"
       sodipodi:rx="24.813021"
       sodipodi:ry="24.813021"
       d="m 61.968267,43.815315 c 0,13.703853 -11.109167,24.813021 -24.81302,24.813021 -13.703853,0 -24.813021,-11.109168 -24.813021,-24.813021 0,-13.703853 11.109168,-24.81302 24.813021,-24.81302 13.703853,0 24.81302,11.109167 24.81302,24.81302 z"
       transform="matrix(2.112503,0,0,2.0872458,-14.064684,-91.31401)" />
    <path
       style="opacity:0.1;fill:#000000;fill-opacity:1;fill-rule:evenodd;stroke:none;stroke-width:1.03478062;marker:none;visibility:visible;display:inline;overflow:visible;enable-background:accumulate"
       d="m 120.97526,12.597876 c 0,-29.106703 -22.870499,2.614548 -54.514536,2.614548 -31.644035,0 -60.1377643,-31.721251 -60.1377643,-2.614548 0,29.106707 25.6821123,52.729543 57.3261523,52.729543 31.644029,0 57.326148,-23.622836 57.326148,-52.729543 z"
       id="path3849"
       sodipodi:nodetypes="csssc"
       inkscape:connector-curvature="0" />
  </g>
  <g
     id="layer1"
     inkscape:label="outer rings"
     inkscape:groupmode="layer"
     style="display:inline"
     transform="translate(0,64)">
    <path
       sodipodi:type="arc"
       style="fill:none;stroke:#808080;stroke-width:1.75127864;stroke-miterlimit:4;stroke-opacity:1;stroke-dasharray:none"
       id="path2386"
       sodipodi:cx="3.8400393"
       sodipodi:cy="4.7625117"
       sodipodi:rx="13.127576"
       sodipodi:ry="14.020609"
       d="m 16.967615,4.7625117 c 0,7.7433683 -5.877416,14.0206093 -13.1275757,14.0206093 -7.25016,0 -13.1275759,-6.277241 -13.1275759,-14.0206093 0,-7.7433684 5.8774159,-14.0206089 13.1275759,-14.0206089 7.2501597,0 13.1275757,6.2772405 13.1275757,14.0206089 z"
       transform="matrix(4.4448745,0,0,4.1575009,47.115629,-19.133172)" />
    <path
       sodipodi:type="arc"
       style="fill:none;stroke:#333333;stroke-width:0.45320269;stroke-miterlimit:4;stroke-opacity:1;stroke-dasharray:none;display:inline"
       id="path24405"
       sodipodi:cx="3.8400393"
       sodipodi:cy="4.7625117"
       sodipodi:rx="13.127576"
       sodipodi:ry="14.020609"
       d="m 16.967615,4.7625117 c 0,7.7433683 -5.877416,14.0206093 -13.1275757,14.0206093 -7.25016,0 -13.1275759,-6.277241 -13.1275759,-14.0206093 0,-7.7433684 5.8774159,-14.0206089 13.1275759,-14.0206089 7.2501597,0 13.1275757,6.2772405 13.1275757,14.0206089 z"
       transform="matrix(4.7855649,0,0,4.4616045,45.637968,-20.666303)" />
    <path
       style="fill:none;stroke:url(#linearGradient3071);stroke-width:3.84763169;stroke-miterlimit:4;stroke-opacity:1;stroke-dasharray:none"
       d="M 82.407003,-49.739262 C 110.30984,-39.913883 124.95133,-9.2084512 115.17674,18.550171 105.40214,46.308809 74.823348,60.863337 46.920499,51.037959 19.017659,41.21258 4.3048783,10.709612 14.079475,-17.049024 23.854068,-44.80765 54.693962,-60.103658 82.407003,-49.739262 z"
       id="path2391"
       sodipodi:nodetypes="csssc"
       inkscape:connector-curvature="0" />
  </g>
</svg>
