<?xml version="1.0" encoding="UTF-8" standalone="no"?>
<!-- Created with Inkscape (http://www.inkscape.org/) -->
<svg
   xmlns:dc="http://purl.org/dc/elements/1.1/"
   xmlns:cc="http://creativecommons.org/ns#"
   xmlns:rdf="http://www.w3.org/1999/02/22-rdf-syntax-ns#"
   xmlns:svg="http://www.w3.org/2000/svg"
   xmlns="http://www.w3.org/2000/svg"
   xmlns:xlink="http://www.w3.org/1999/xlink"
   xmlns:sodipodi="http://sodipodi.sourceforge.net/DTD/sodipodi-0.dtd"
   xmlns:inkscape="http://www.inkscape.org/namespaces/inkscape"
   width="32px"
   height="32px"
   id="svg2427"
   sodipodi:version="0.32"
   inkscape:version="0.46"
   sodipodi:docname="drawing.svg"
   inkscape:output_extension="org.inkscape.output.svg.inkscape"
   inkscape:export-filename="/home/rameses/Desktop/Inkscape projects/drawing.png"
   inkscape:export-xdpi="90"
   inkscape:export-ydpi="90">
  <defs
     id="defs2429">
    <linearGradient
       id="linearGradient3243">
      <stop
         style="stop-color:#ffffff;stop-opacity:1;"
         offset="0"
         id="stop3245" />
      <stop
         style="stop-color:#ffffff;stop-opacity:0;"
         offset="1"
         id="stop3247" />
    </linearGradient>
    <linearGradient
       inkscape:collect="always"
       xlink:href="#linearGradient3243"
       id="linearGradient3249"
       x1="15.317011"
       y1="17.464724"
       x2="17.424671"
       y2="17.464724"
       gradientUnits="userSpaceOnUse"
       gradientTransform="matrix(1.2441997,0,0,1.0655608,-4.2159184,1.6351049e-3)" />
    <linearGradient
       inkscape:collect="always"
       xlink:href="#linearGradient3219"
       id="linearGradient3237"
       gradientUnits="userSpaceOnUse"
       gradientTransform="matrix(-1.5673035,0,0,1.3944177,42.403429,-7.1681806)"
       x1="17.870581"
       y1="14.129419"
       x2="19.5124"
       y2="14.129419" />
    <linearGradient
       id="linearGradient3219">
      <stop
         style="stop-color:#a67525;stop-opacity:0.94117647;"
         offset="0"
         id="stop3221" />
      <stop
         style="stop-color:#ffffff;stop-opacity:1;"
         offset="1"
         id="stop3223" />
    </linearGradient>
    <linearGradient
       inkscape:collect="always"
       xlink:href="#linearGradient3219"
       id="linearGradient3225"
       x1="17.870581"
       y1="14.129419"
       x2="19.5124"
       y2="14.129419"
       gradientUnits="userSpaceOnUse"
       gradientTransform="matrix(1.5592596,0,0,1.4415673,-10.261987,-7.7334445)" />
    <linearGradient
       inkscape:collect="always"
       id="linearGradient3207">
      <stop
         style="stop-color:#ffffff;stop-opacity:1;"
         offset="0"
         id="stop3209" />
      <stop
         style="stop-color:#ffffff;stop-opacity:0;"
         offset="1"
         id="stop3211" />
    </linearGradient>
    <linearGradient
       inkscape:collect="always"
       xlink:href="#linearGradient3207"
       id="linearGradient3215"
       x1="8.5765018"
       y1="11.214672"
       x2="23.410929"
       y2="11.214672"
       gradientUnits="userSpaceOnUse"
       gradientTransform="matrix(1.2226691,0,0,1.0623707,-3.9501322,-0.1308077)" />
    <linearGradient
       id="linearGradient3181">
      <stop
         style="stop-color:#729fcf;stop-opacity:1;"
         offset="0"
         id="stop3183" />
      <stop
         style="stop-color:#3465a4;stop-opacity:1;"
         offset="1"
         id="stop3185" />
    </linearGradient>
    <linearGradient
       inkscape:collect="always"
       xlink:href="#linearGradient3181"
       id="linearGradient3187"
       x1="8.0081787"
       y1="0.79287905"
       x2="23.97925"
       y2="21.636465"
       gradientUnits="userSpaceOnUse"
       gradientTransform="matrix(1.2441997,0,0,1.0655608,-4.13735,-0.1329393)" />
    <linearGradient
       id="linearGradient3189">
      <stop
         style="stop-color:#ffffff;stop-opacity:0.33725491;"
         offset="0"
         id="stop3191" />
      <stop
         style="stop-color:#729fcf;stop-opacity:0.89019608;"
         offset="1"
         id="stop3193" />
    </linearGradient>
    <radialGradient
       inkscape:collect="always"
       xlink:href="#linearGradient3189"
       id="radialGradient3195"
       cx="15.993714"
       cy="11.214672"
       fx="15.993714"
       fy="11.214672"
       r="7.9855356"
       gradientTransform="matrix(1.2441997,0,0,1.3906463,-4.13735,-3.778664)"
       gradientUnits="userSpaceOnUse" />
    <linearGradient
       id="linearGradient3285">
      <stop
         style="stop-color:#ffd543;stop-opacity:1;"
         offset="0"
         id="stop3287" />
      <stop
         style="stop-color:#ffeca9;stop-opacity:1;"
         offset="1"
         id="stop3289" />
    </linearGradient>
    <linearGradient
       inkscape:collect="always"
       xlink:href="#linearGradient3285"
       id="linearGradient3291"
       x1="12.227669"
       y1="23.096283"
       x2="19.345795"
       y2="23.096283"
       gradientUnits="userSpaceOnUse"
       gradientTransform="matrix(1.1448609,0,0,0.9635635,-2.4119811,2.9797957)" />
    <inkscape:perspective
       sodipodi:type="inkscape:persp3d"
       inkscape:vp_x="0 : 16 : 1"
       inkscape:vp_y="0 : 1000 : 0"
       inkscape:vp_z="32 : 16 : 1"
       inkscape:persp3d-origin="16 : 10.666667 : 1"
       id="perspective2435" />
  </defs>
  <sodipodi:namedview
     id="base"
     pagecolor="#ffffff"
     bordercolor="#666666"
     borderopacity="1.0"
     inkscape:pageopacity="0.0"
     inkscape:pageshadow="2"
     inkscape:zoom="11.197802"
     inkscape:cx="16"
     inkscape:cy="16"
     inkscape:current-layer="layer1"
     showgrid="true"
     inkscape:grid-bbox="true"
     inkscape:document-units="px"
     inkscape:window-width="640"
     inkscape:window-height="718"
     inkscape:window-x="-5"
     inkscape:window-y="25" />
  <metadata
     id="metadata2432">
    <rdf:RDF>
      <cc:Work
         rdf:about="">
        <dc:format>image/svg+xml</dc:format>
        <dc:type
           rdf:resource="http://purl.org/dc/dcmitype/StillImage" />
      </cc:Work>
    </rdf:RDF>
  </metadata>
  <g
     id="layer1"
     inkscape:label="Layer 1"
     inkscape:groupmode="layer">
    <path
       style="opacity:1;fill:#d0bfac;fill-opacity:1;fill-rule:nonzero;stroke:#5a5249;stroke-width:1.15142095px;stroke-linecap:butt;stroke-linejoin:miter;marker:none;marker-start:none;marker-mid:none;marker-end:none;stroke-miterlimit:4;stroke-dasharray:none;stroke-dashoffset:0;stroke-opacity:1;visibility:visible;display:inline;overflow:visible;enable-background:accumulate"
       d="M 13.10819,28.682988 L 18.686472,28.649346 C 18.83529,30.472465 14.499023,32.728122 13.10819,28.682988 z"
       id="path3299"
       sodipodi:nodetypes="ccc" />
    <path
       style="fill:none;fill-opacity:1;stroke:#d59600;stroke-width:0.93149948;stroke-miterlimit:4;stroke-dasharray:none;stroke-opacity:1"
       d="M 11.495245,22.213771 C 12.185489,21.298376 14.655639,21.579777 15.946824,21.582241 C 17.209213,21.58465 19.188168,21.632218 19.985147,22.449275 C 20.251765,22.722609 19.317323,23.414885 19.317323,23.771044 C 19.317323,24.336254 20.034267,24.602792 20.14228,25.083139 C 20.235884,25.499399 19.413578,26.044633 19.395892,26.529809 C 19.379954,26.966984 20.360719,27.541253 20.063713,27.987773 C 19.44388,28.919636 17.106386,29.256908 15.868257,29.256908 C 14.630127,29.256908 12.222454,28.840931 11.416678,27.987773 C 11.036204,27.584926 12.227642,26.93674 12.280918,26.462521 C 12.326069,26.060656 11.376341,25.512151 11.298826,25.08314 C 11.215928,24.624321 12.097966,23.970153 12.163068,23.535541 C 12.228171,23.100929 11.236059,22.557504 11.495245,22.213771 z"
       id="rect3270"
       sodipodi:nodetypes="csssssszssszs" />
    <path
       style="fill:url(#linearGradient3291);fill-opacity:1;stroke:none;stroke-width:0.80900002;stroke-miterlimit:4;stroke-dasharray:none;stroke-opacity:1"
       d="M 11.772786,22.507005 C 12.407919,21.679233 14.680851,21.933699 15.868944,21.935926 C 17.030541,21.938104 18.851494,21.981121 19.584842,22.719966 C 19.830172,22.967136 18.970339,23.593148 18.970339,23.915213 C 18.970339,24.426322 19.63004,24.667344 19.729429,25.10171 C 19.81556,25.478126 19.058907,25.97117 19.042633,26.409904 C 19.027969,26.805232 19.930428,27.324532 19.657136,27.72831 C 19.08679,28.570974 17.008218,28.874522 15.868944,28.874522 C 14.729669,28.874522 12.441935,28.499802 11.700493,27.72831 C 11.350396,27.364023 12.446708,26.777882 12.495731,26.349057 C 12.537276,25.98566 11.663377,25.48966 11.592051,25.101713 C 11.515769,24.686814 12.327386,24.095263 12.38729,23.702252 C 12.447194,23.309242 11.534296,22.817835 11.772786,22.507005 z"
       id="path3283"
       sodipodi:nodetypes="csssssszssszs" />
    <path
       style="opacity:0.25;fill:#ffc803;fill-opacity:1;fill-rule:nonzero;stroke:none;stroke-width:0.61640072;stroke-linecap:butt;stroke-linejoin:miter;marker:none;marker-start:none;marker-mid:none;marker-end:none;stroke-miterlimit:4;stroke-dashoffset:0;stroke-opacity:1;visibility:visible;display:inline;overflow:visible;enable-background:accumulate"
       d="M 15.76404,22.267835 L 18.766397,22.267835 C 18.766397,22.267835 19.758246,21.964847 20.026312,20.28676 C 20.119145,19.705633 20.740327,18.546551 21.058236,17.807604 C 21.612398,16.519508 24.283707,15.271807 24.730895,12.397419 C 26.004217,4.8287787 21.267181,1.3537633 15.910549,1.3537633 C 10.55392,1.3537633 5.3094093,4.9220063 6.7435702,12.397419 C 7.4807544,15.01943 9.92042,16.966409 10.359185,17.981513 C 10.630311,18.608782 10.893764,19.565594 10.996145,20.206504 C 11.264214,21.884592 12.654459,22.221221 12.654459,22.221221 L 15.764041,22.267835"
       sodipodi:nodetypes="ccsscscsscc"
       id="path3251" />
    <path
       style="fill:url(#radialGradient3195);fill-opacity:1;fill-rule:nonzero;stroke:url(#linearGradient3187);stroke-width:0.7097367;stroke-linecap:butt;stroke-linejoin:miter;marker:none;marker-start:none;marker-mid:none;marker-end:none;stroke-miterlimit:4;stroke-dashoffset:0;stroke-opacity:1;visibility:visible;display:inline;overflow:visible;enable-background:accumulate"
       d="M 15.807083,22.593626 L 18.918193,22.593626 C 18.918193,22.593626 19.945971,22.284362 20.223748,20.571519 C 20.319944,19.978352 20.963626,18.795263 21.29305,18.04101 C 21.867284,16.726236 24.635358,15.45269 25.098744,12.518767 C 26.418189,4.7933618 21.468857,1.0403279 15.918192,1.0403279 C 10.36753,1.0403279 4.9737546,4.8885196 6.459865,12.518767 C 7.2237528,15.195089 9.955323,17.045032 10.40998,18.081161 C 10.690929,18.721422 10.923217,19.869752 11.029308,20.523938 C 11.307085,22.236782 12.584863,22.546045 12.584863,22.546045 L 15.807085,22.593626"
       sodipodi:nodetypes="ccsscscsscc"
       id="path2393" />
    <path
       id="path3431"
       style="fill:none;fill-opacity:1;fill-rule:nonzero;stroke:url(#linearGradient3215);stroke-width:0.65830755;stroke-linecap:butt;stroke-linejoin:miter;marker:none;marker-start:none;marker-mid:none;marker-end:none;stroke-miterlimit:4;stroke-dashoffset:0;stroke-opacity:1;visibility:visible;display:inline;overflow:visible;enable-background:accumulate"
       d="M 15.646001,21.944555 L 18.484684,21.944555 C 18.484684,21.944555 19.422461,21.652952 19.675913,20.037926 C 19.763686,19.478633 20.351002,18.363107 20.651579,17.651928 C 21.175529,16.412236 23.701208,15.211423 24.124019,12.445047 C 25.327924,5.1608202 20.811991,1.6221133 15.747384,1.6221133 C 10.682775,1.6221133 5.7613194,5.2505446 7.1172952,12.445047 C 7.8142906,14.968528 10.306664,16.712827 10.72151,17.689784 C 10.977856,18.293483 11.189804,19.376235 11.286603,19.993063 C 11.540058,21.608089 12.705943,21.89969 12.705943,21.89969 L 15.646002,21.944555"
       sodipodi:nodetypes="ccsscscsscc" />
    <path
       style="opacity:1;fill:#000000;fill-opacity:1;fill-rule:nonzero;stroke:url(#linearGradient3225);stroke-width:0.87578815;stroke-linecap:butt;stroke-linejoin:miter;marker:none;marker-start:none;marker-mid:none;marker-end:none;stroke-miterlimit:4;stroke-dasharray:none;stroke-dashoffset:0;stroke-opacity:1;visibility:visible;display:inline;overflow:visible;enable-background:accumulate"
       d="M 17.60288,15.548039 L 20.162903,9.7220875"
       id="path3217" />
    <path
       style="opacity:1;fill:#000000;fill-opacity:1;fill-rule:nonzero;stroke:url(#linearGradient3237);stroke-width:0.86356574;stroke-linecap:butt;stroke-linejoin:miter;marker:none;marker-start:none;marker-mid:none;marker-end:none;stroke-miterlimit:4;stroke-dasharray:none;stroke-dashoffset:0;stroke-opacity:1;visibility:visible;display:inline;overflow:visible;enable-background:accumulate"
       d="M 14.394804,15.351834 L 11.821574,9.7164305"
       id="path3235" />
    <path
       style="opacity:1;fill:none;fill-opacity:1;fill-rule:nonzero;stroke:#ffffff;stroke-width:0.86356574;stroke-linecap:butt;stroke-linejoin:miter;marker:none;marker-start:none;marker-mid:none;marker-end:none;stroke-miterlimit:4;stroke-dasharray:none;stroke-dashoffset:0;stroke-opacity:1;visibility:visible;display:inline;overflow:visible;enable-background:accumulate"
       d="M 11.697978,10.209356 C 11.697978,10.209356 13.416273,9.6059986 13.97643,8.9702968 C 14.536586,8.3345962 14.576599,9.4721668 15.416832,9.706373 C 16.257066,9.9405782 17.497413,9.271419 17.537423,8.9368395 C 17.577437,8.6022599 19.694389,10.242257 20.214535,10.108425"
       id="path3239"
       sodipodi:nodetypes="csssc" />
    <path
       style="opacity:1;fill:url(#linearGradient3249);fill-opacity:1;fill-rule:nonzero;stroke:#d0bfac;stroke-width:0.86356574;stroke-linecap:butt;stroke-linejoin:miter;marker:none;marker-start:none;marker-mid:none;marker-end:none;stroke-miterlimit:4;stroke-dasharray:none;stroke-dashoffset:0;stroke-opacity:1;visibility:visible;display:inline;overflow:visible;enable-background:accumulate"
       d="M 13.108189,21.718794 L 13.22604,15.932123 C 13.22604,15.932123 14.702474,15.435684 15.897478,15.511834 C 17.092482,15.587985 18.432355,15.965766 18.411487,15.965766 L 18.33292,21.685151"
       id="path3241"
       sodipodi:nodetypes="cczcc" />
    <path
       sodipodi:type="arc"
       style="opacity:0.37000002;fill:#ffffff;fill-opacity:1;stroke:none;stroke-width:0.75;stroke-miterlimit:4;stroke-dasharray:none;stroke-opacity:1"
       id="path3259"
       sodipodi:cx="14.997396"
       sodipodi:cy="5.9834661"
       sodipodi:rx="3.5046544"
       sodipodi:ry="2.3995831"
       d="M 18.502051,5.9834661 A 3.5046544,2.3995831 0 1 1 18.502001,5.9706553 L 14.997396,5.9834661 z"
       transform="matrix(1.0557211,-0.5614092,0.5947157,1.0976098,-6.4012306,7.859476)"
       sodipodi:start="0"
       sodipodi:end="6.2778465" />
    <path
       style="opacity:1;fill:#d59600;fill-opacity:1;fill-rule:nonzero;stroke:none;stroke-width:1px;stroke-linecap:butt;stroke-linejoin:miter;marker:none;marker-start:none;marker-mid:none;marker-end:none;stroke-miterlimit:4;stroke-dasharray:none;stroke-dashoffset:0;stroke-opacity:1;visibility:visible;display:inline;overflow:visible;enable-background:accumulate"
       d="M 12.479651,23.737402 C 12.479651,23.772316 13.550689,24.37196 15.196571,24.603693 C 16.252344,24.752342 17.883931,24.757692 19.19716,24.674549"
       id="path3293"
       sodipodi:nodetypes="csc" />
    <path
       style="opacity:1;fill:#d59600;fill-opacity:1;fill-rule:nonzero;stroke:none;stroke-width:1px;stroke-linecap:butt;stroke-linejoin:miter;marker:none;marker-start:none;marker-mid:none;marker-end:none;stroke-miterlimit:4;stroke-dasharray:none;stroke-dashoffset:0;stroke-opacity:1;visibility:visible;display:inline;overflow:visible;enable-background:accumulate"
       d="M 12.6781,26.151053 C 12.287549,26.166396 13.917403,27.640109 19.040025,27.357349"
       id="path3295"
       sodipodi:nodetypes="cc" />
  </g>
</svg>
