<?xml version="1.0" encoding="UTF-8" standalone="no"?>
<!-- Created with Inkscape (http://www.inkscape.org/) -->
<svg
   xmlns:dc="http://purl.org/dc/elements/1.1/"
   xmlns:cc="http://creativecommons.org/ns#"
   xmlns:rdf="http://www.w3.org/1999/02/22-rdf-syntax-ns#"
   xmlns:svg="http://www.w3.org/2000/svg"
   xmlns="http://www.w3.org/2000/svg"
   xmlns:xlink="http://www.w3.org/1999/xlink"
   xmlns:sodipodi="http://sodipodi.sourceforge.net/DTD/sodipodi-0.dtd"
   xmlns:inkscape="http://www.inkscape.org/namespaces/inkscape"
   width="32px"
   height="32px"
   id="svg3561"
   sodipodi:version="0.32"
   inkscape:version="0.46"
   sodipodi:docname="noIcon.svg"
   inkscape:output_extension="org.inkscape.output.svg.inkscape">
  <defs
     id="defs3563">
    <linearGradient
       inkscape:collect="always"
       xlink:href="#linearGradient4215"
       id="linearGradient4221"
       x1="6.1418476"
       y1="34.311562"
       x2="4.48522"
       y2="36.061562"
       gradientUnits="userSpaceOnUse" />
    <linearGradient
       id="linearGradient4229">
      <stop
         style="stop-color:#ff0000;stop-opacity:0;"
         offset="0"
         id="stop4231" />
      <stop
         id="stop4237"
         offset="0.5"
         style="stop-color:#000000;stop-opacity:1;" />
      <stop
         style="stop-color:#fff7f7;stop-opacity:0;"
         offset="1"
         id="stop4233" />
    </linearGradient>
    <linearGradient
       id="linearGradient4215">
      <stop
         style="stop-color:#ee0000;stop-opacity:1;"
         offset="0"
         id="stop4217" />
      <stop
         style="stop-color:#ff0000;stop-opacity:0;"
         offset="1"
         id="stop4219" />
    </linearGradient>
    <linearGradient
       id="linearGradient4195">
      <stop
         style="stop-color:#000000;stop-opacity:1;"
         offset="0"
         id="stop4197" />
      <stop
         style="stop-color:#ff0000;stop-opacity:0;"
         offset="1"
         id="stop4199" />
    </linearGradient>
    <linearGradient
       id="linearGradient4168">
      <stop
         style="stop-color:#000000;stop-opacity:1;"
         offset="0"
         id="stop4170" />
      <stop
         style="stop-color:#ff2a2a;stop-opacity:0;"
         offset="1"
         id="stop4172" />
    </linearGradient>
    <linearGradient
       id="linearGradient4156">
      <stop
         style="stop-color:#ffffff;stop-opacity:1;"
         offset="0"
         id="stop4158" />
      <stop
         style="stop-color:#828282;stop-opacity:0.17647059;"
         offset="1"
         id="stop4160" />
    </linearGradient>
    <linearGradient
       id="linearGradient4144">
      <stop
         style="stop-color:#333333;stop-opacity:1;"
         offset="0"
         id="stop4146" />
      <stop
         style="stop-color:#333333;stop-opacity:0;"
         offset="1"
         id="stop4148" />
    </linearGradient>
    <linearGradient
       inkscape:collect="always"
       id="linearGradient4114">
      <stop
         style="stop-color:#000000;stop-opacity:1;"
         offset="0"
         id="stop4116" />
      <stop
         style="stop-color:#000000;stop-opacity:0;"
         offset="1"
         id="stop4118" />
    </linearGradient>
    <linearGradient
       inkscape:collect="always"
       id="linearGradient4086">
      <stop
         style="stop-color:#000000;stop-opacity:1;"
         offset="0"
         id="stop4088" />
      <stop
         style="stop-color:#000000;stop-opacity:0;"
         offset="1"
         id="stop4090" />
    </linearGradient>
    <inkscape:perspective
       sodipodi:type="inkscape:persp3d"
       inkscape:vp_x="0 : 16 : 1"
       inkscape:vp_y="0 : 1000 : 0"
       inkscape:vp_z="32 : 16 : 1"
       inkscape:persp3d-origin="16 : 10.666667 : 1"
       id="perspective3569" />
    <linearGradient
       inkscape:collect="always"
       xlink:href="#linearGradient4086"
       id="linearGradient4092"
       x1="15.924374"
       y1="9.0567017"
       x2="15.043232"
       y2="35.4044"
       gradientUnits="userSpaceOnUse"
       gradientTransform="translate(-0.4405707,0.9050833)" />
    <radialGradient
       inkscape:collect="always"
       xlink:href="#linearGradient4114"
       id="radialGradient4120"
       cx="14.511777"
       cy="19.452894"
       fx="14.511777"
       fy="19.452894"
       r="14.511777"
       gradientTransform="matrix(1,0,0,1.0430769,0,-0.83797)"
       gradientUnits="userSpaceOnUse" />
    <radialGradient
       inkscape:collect="always"
       xlink:href="#linearGradient4156"
       id="radialGradient4162"
       cx="17.130396"
       cy="12.799006"
       fx="17.130396"
       fy="12.799006"
       r="14.511777"
       gradientTransform="matrix(1,0,0,1.0430769,0,-0.83797)"
       gradientUnits="userSpaceOnUse" />
    <radialGradient
       inkscape:collect="always"
       xlink:href="#linearGradient4195"
       id="radialGradient4203"
       cx="6.5010328"
       cy="28.291981"
       fx="6.5010328"
       fy="28.291981"
       r="10.109186"
       gradientTransform="matrix(0.3075605,3.4849957e-8,-3.31332e-8,0.2907874,13.189074,27.397109)"
       gradientUnits="userSpaceOnUse" />
    <linearGradient
       inkscape:collect="always"
       xlink:href="#linearGradient4215"
       id="linearGradient4225"
       gradientUnits="userSpaceOnUse"
       x1="11.204348"
       y1="39.499062"
       x2="10.67272"
       y2="40.061562" />
    <linearGradient
       inkscape:collect="always"
       xlink:href="#linearGradient4229"
       id="linearGradient4235"
       x1="7.7043476"
       y1="31.561562"
       x2="10.61022"
       y2="34.624062"
       gradientUnits="userSpaceOnUse"
       gradientTransform="matrix(0.7387431,0,0,0.7998288,11.44383,-14.426741)" />
    <linearGradient
       inkscape:collect="always"
       xlink:href="#linearGradient4229"
       id="linearGradient4252"
       gradientUnits="userSpaceOnUse"
       gradientTransform="matrix(0.7387431,0,0,0.7998288,11.503525,-14.387105)"
       x1="12.641848"
       y1="37.374062"
       x2="8.79772"
       y2="41.436562" />
    <linearGradient
       inkscape:collect="always"
       xlink:href="#linearGradient4229"
       id="linearGradient4256"
       gradientUnits="userSpaceOnUse"
       gradientTransform="translate(19.248966,3.3759391)"
       x1="12.641848"
       y1="37.374062"
       x2="8.79772"
       y2="41.436562" />
    <radialGradient
       inkscape:collect="always"
       xlink:href="#linearGradient4215"
       id="radialGradient4260"
       cx="6.5010328"
       cy="40.786644"
       fx="6.5010328"
       fy="40.786644"
       r="10.109186"
       gradientTransform="matrix(0.724742,5.7251973e-8,0,1.191424,11.594547,-32.280898)"
       gradientUnits="userSpaceOnUse" />
  </defs>
  <sodipodi:namedview
     id="base"
     pagecolor="#ffffff"
     bordercolor="#666666"
     borderopacity="1.0"
     inkscape:pageopacity="0.0"
     inkscape:pageshadow="2"
     inkscape:zoom="5.6568543"
     inkscape:cx="-10.675777"
     inkscape:cy="24.918456"
     inkscape:current-layer="layer1"
     showgrid="true"
     inkscape:grid-bbox="true"
     inkscape:document-units="px"
     inkscape:window-width="1019"
     inkscape:window-height="718"
     inkscape:window-x="-5"
     inkscape:window-y="25" />
  <metadata
     id="metadata3566">
    <rdf:RDF>
      <cc:Work
         rdf:about="">
        <dc:format>image/svg+xml</dc:format>
        <dc:type
           rdf:resource="http://purl.org/dc/dcmitype/StillImage" />
      </cc:Work>
    </rdf:RDF>
  </metadata>
  <g
     id="layer1"
     inkscape:label="Layer 1"
     inkscape:groupmode="layer">
    <path
       sodipodi:type="arc"
       style="opacity:1;fill:#000000;fill-opacity:1;fill-rule:evenodd;stroke:none;stroke-width:1;stroke-miterlimit:4;stroke-dasharray:none;stroke-opacity:1"
       id="path4142"
       sodipodi:cx="14.511777"
       sodipodi:cy="19.452894"
       sodipodi:rx="14.511777"
       sodipodi:ry="15.136899"
       d="M 29.023554,19.452894 A 14.511777,15.136899 0 1 1 0,19.452894 A 14.511777,15.136899 0 1 1 29.023554,19.452894 z"
       transform="matrix(1.0571989,0,0,1.0164887,0.7327475,-3.714276)" />
    <path
       sodipodi:type="arc"
       style="opacity:1;fill:url(#radialGradient4162);fill-opacity:1;fill-rule:evenodd;stroke:none;stroke-width:1;stroke-miterlimit:4;stroke-dasharray:none;stroke-opacity:1"
       id="path4154"
       sodipodi:cx="14.511777"
       sodipodi:cy="19.452894"
       sodipodi:rx="14.511777"
       sodipodi:ry="15.136899"
       d="M 29.023554,19.452894 A 14.511777,15.136899 0 1 1 0,19.452894 A 14.511777,15.136899 0 1 1 29.023554,19.452894 z"
       transform="matrix(1.0571989,0,0,1.0164887,0.5559715,-3.8910527)" />
    <path
       style="fill:#ff0000;fill-opacity:1;fill-rule:evenodd;stroke:none;stroke-width:1;stroke-miterlimit:4;stroke-opacity:1"
       d="M 21.625958,8.3941862 L 16.318655,13.876164 L 11.195991,8.6067914 C 10.067823,7.0240643 7.7255135,9.0451034 9.3761645,10.54985 L 14.447067,15.80935 L 9.2559375,21.171334 C 8.7838475,21.658961 8.7925175,22.504137 9.2753775,23.066346 C 9.7582365,23.628555 10.527022,23.688598 10.999112,23.200971 L 16.316076,17.786518 C 16.846767,18.306712 21.199956,22.760288 21.524428,23.095547 C 22.899397,24.377864 24.542768,22.339956 23.303173,21.098468 L 18.180455,15.783272 L 23.369133,10.423823 C 23.841222,9.9361954 23.832552,9.0910204 23.349693,8.5288109 C 22.866833,7.9666017 22.098047,7.9065585 21.625958,8.3941862 z"
       id="path4183"
       sodipodi:nodetypes="ccccccsccccccsc" />
    <path
       style="fill:url(#linearGradient4235);fill-opacity:1;fill-rule:evenodd;stroke:none;stroke-width:1;stroke-miterlimit:4;stroke-opacity:1"
       d="M 21.598911,8.3795447 L 16.291608,13.861523 L 11.168945,8.5921494 C 10.040777,7.0094227 7.6984665,9.0304624 9.3491185,10.535208 L 14.42002,15.794709 L 9.2288905,21.156692 C 8.7568005,21.64432 8.7654715,22.489495 9.2483305,23.051704 C 9.7311895,23.613913 10.499975,23.673957 10.972065,23.186329 L 16.28903,17.771877 C 16.81972,18.29207 21.172909,22.745646 21.497381,23.080905 C 22.87235,24.363223 24.515721,22.325315 23.276127,21.083826 L 18.153408,15.76863 L 23.342086,10.409181 C 23.814175,9.9215534 23.805505,9.0763784 23.322646,8.5141694 C 22.839786,7.9519602 22.071,7.891917 21.598911,8.3795447 z"
       id="path4213"
       sodipodi:nodetypes="ccccccsccccccsc" />
    <path
       style="fill:url(#linearGradient4252);fill-opacity:1;fill-rule:evenodd;stroke:none;stroke-width:1;stroke-miterlimit:4;stroke-opacity:1"
       d="M 21.658606,8.4191808 L 16.351303,13.901159 L 11.22864,8.6317854 C 10.100471,7.0490589 7.7581615,9.0700984 9.4088125,10.574845 L 14.479715,15.834345 L 9.2885855,21.196328 C 8.8164955,21.683956 8.8251655,22.529131 9.3080255,23.09134 C 9.7908845,23.65355 10.55967,23.713593 11.03176,23.225965 L 16.348724,17.811513 C 16.879415,18.331706 21.232604,22.785283 21.557076,23.120541 C 22.932045,24.402859 24.575416,22.364951 23.335821,21.123462 L 18.213103,15.808267 L 23.401781,10.448817 C 23.87387,9.9611904 23.8652,9.1160144 23.382341,8.5538056 C 22.899481,7.9915963 22.130695,7.9315532 21.658606,8.4191808 z"
       id="path4250"
       sodipodi:nodetypes="ccccccsccccccsc" />
    <path
       style="fill:url(#radialGradient4260);fill-opacity:1;fill-rule:evenodd;stroke:none;stroke-width:1;stroke-miterlimit:4;stroke-opacity:1"
       d="M 21.658606,8.383833 L 16.351303,13.86581 L 11.228639,8.5964384 C 10.100471,7.0137111 7.7581615,9.0347504 9.4088125,10.539497 L 14.479715,15.798997 L 9.2885855,21.16098 C 8.8164955,21.648608 8.8251655,22.493783 9.3080255,23.055992 C 9.7908845,23.618201 10.55967,23.678244 11.03176,23.190617 L 16.348724,17.776165 C 16.879415,18.296358 21.232604,22.749934 21.557076,23.085193 C 22.932045,24.36751 24.575416,22.329603 23.335821,21.088114 L 18.213103,15.772918 L 23.401781,10.413469 C 23.87387,9.9258424 23.8652,9.0806674 23.382341,8.5184578 C 22.899481,7.9562485 22.130695,7.8962054 21.658606,8.383833 z"
       id="path4258"
       sodipodi:nodetypes="ccccccsccccccsc" />
  </g>
</svg>
