<?xml version="1.0" encoding="UTF-8" standalone="no"?>
<!-- Created with Inkscape (http://www.inkscape.org/) -->
<svg
   xmlns:dc="http://purl.org/dc/elements/1.1/"
   xmlns:cc="http://creativecommons.org/ns#"
   xmlns:rdf="http://www.w3.org/1999/02/22-rdf-syntax-ns#"
   xmlns:svg="http://www.w3.org/2000/svg"
   xmlns="http://www.w3.org/2000/svg"
   xmlns:xlink="http://www.w3.org/1999/xlink"
   xmlns:sodipodi="http://sodipodi.sourceforge.net/DTD/sodipodi-0.dtd"
   xmlns:inkscape="http://www.inkscape.org/namespaces/inkscape"
   width="24"
   height="24"
   id="svg3750"
   sodipodi:version="0.32"
   inkscape:version="0.46"
   version="1.0"
   sodipodi:docname="delete24.svg"
   inkscape:output_extension="org.inkscape.output.svg.inkscape"
   inkscape:export-filename="/home/rameses/RAMESES-DEV/image project(S)/Inkscape projects/Menu Icons/Blue - MLGLOBAL/Output/delete24.png"
   inkscape:export-xdpi="90"
   inkscape:export-ydpi="90">
  <defs
     id="defs3752">
    <linearGradient
       id="linearGradient8674">
      <stop
         style="stop-color:#3a6dd2;stop-opacity:1;"
         offset="0"
         id="stop8676" />
      <stop
         style="stop-color:#0e3f9e;stop-opacity:1;"
         offset="1"
         id="stop8678" />
    </linearGradient>
    <filter
       color-interpolation-filters="sRGB"
       inkscape:collect="always"
       id="filter5801-9"
       x="-0.024050321"
       width="1.0481006"
       y="-11.470573"
       height="23.941147">
      <feGaussianBlur
         inkscape:collect="always"
         stdDeviation="0.11695205"
         id="feGaussianBlur5803-1" />
    </filter>
    <linearGradient
       inkscape:collect="always"
       xlink:href="#linearGradient8674"
       id="linearGradient8680"
       x1="5.8054347"
       y1="9.3666134"
       x2="11.054767"
       y2="12.44477"
       gradientUnits="userSpaceOnUse"
       gradientTransform="matrix(1.5165446,0,0,1.5165446,-8.3756799e-2,-4.2243354)" />
    <linearGradient
       inkscape:collect="always"
       xlink:href="#linearGradient8674"
       id="linearGradient8688"
       x1="4.2766061"
       y1="13.18131"
       x2="9.9209909"
       y2="18.760468"
       gradientUnits="userSpaceOnUse"
       gradientTransform="matrix(1.5165446,0,0,1.5165446,-8.3756799e-2,-4.2243354)" />
  </defs>
  <sodipodi:namedview
     id="base"
     pagecolor="#ffffff"
     bordercolor="#666666"
     borderopacity="1.0"
     inkscape:pageopacity="0.0"
     inkscape:pageshadow="2"
     inkscape:zoom="7.796875"
     inkscape:cx="10.187554"
     inkscape:cy="15.901528"
     inkscape:current-layer="layer1"
     showgrid="true"
     inkscape:grid-bbox="true"
     inkscape:document-units="px"
     inkscape:window-width="1013"
     inkscape:window-height="688"
     inkscape:window-x="-5"
     inkscape:window-y="25"
     inkscape:snap-global="false"
     inkscape:window-maximized="0" />
  <metadata
     id="metadata3755">
    <rdf:RDF>
      <cc:Work
         rdf:about="">
        <dc:format>image/svg+xml</dc:format>
        <dc:type
           rdf:resource="http://purl.org/dc/dcmitype/StillImage" />
        <dc:title />
      </cc:Work>
    </rdf:RDF>
  </metadata>
  <g
     id="layer1"
     inkscape:label="Layer 1"
     inkscape:groupmode="layer"
     transform="translate(0,-8)">
    <path
       style="fill:url(#linearGradient8680);fill-opacity:1;stroke:none;stroke-width:0.3853426px;stroke-linecap:butt;stroke-linejoin:miter;stroke-opacity:1"
       d="M 2.1828847,12.096826 L 6.3006095,12.096826 L 6.3006095,10.067469 C 6.3006095,8.2255115 7.3480596,8.1780656 8.3594736,8.1780656 L 15.603621,8.1780656 C 16.773281,8.1976063 17.929374,8.6924432 17.929374,10.312391 L 17.929374,12.236784 L 22.466497,12.236784 C 23.438449,12.200918 23.900515,12.473042 23.877199,13.531375 L 23.877199,15.665697 C 23.88008,16.493759 23.833295,16.753868 23.153833,16.815478 L 21.393913,16.840212 L 21.393913,15.690434 L 2.4879015,15.665699 L 2.4879015,16.64539 L 1.0390721,16.64539 C 0.41205543,16.595007 0.18255777,16.388402 0.16214825,15.840643 L 0.16214825,13.356431 C 0.17372373,12.373396 0.91976016,12.116084 2.1828847,12.096828 L 2.1828847,12.096826 z"
       id="path3721"
       inkscape:connector-curvature="0"
       sodipodi:nodetypes="ccccccccccccccccccc" />
    <path
       style="fill:#ffffff;fill-opacity:1;stroke:none;stroke-width:0.3853426px;stroke-linecap:butt;stroke-linejoin:miter;stroke-opacity:1"
       d="M 8.5816365,12.318445 L 15.402497,12.318445 L 15.402497,11.242216 C 15.414023,10.909857 15.39173,10.595339 14.65436,10.555656 L 9.2286751,10.555656 C 8.7524423,10.587056 8.5773838,10.896558 8.5850073,11.220567 L 8.5816365,12.318445 z"
       id="path3725"
       inkscape:connector-curvature="0"
       sodipodi:nodetypes="ccccccc" />
    <path
       style="fill:url(#linearGradient8688);fill-opacity:1;stroke:none;stroke-width:0.3853426px;stroke-linecap:butt;stroke-linejoin:miter;stroke-opacity:1"
       d="M 3.0952929,16.747069 L 20.794482,16.784179 L 20.794482,30.775164 C 20.840479,31.435583 20.26712,31.825503 19.554326,31.888507 L 4.3219696,31.900942 C 3.5989165,31.900942 3.1243172,31.640335 3.1243172,30.982245 L 3.0952929,16.747069 z"
       id="path3727"
       inkscape:connector-curvature="0"
       sodipodi:nodetypes="ccccccc" />
    <path
       style="opacity:0.6;fill:none;stroke:#000000;stroke-width:0.45496339;stroke-miterlimit:4;stroke-dasharray:none;stroke-opacity:1"
       d="M 14.858955,10.791438 L 9.4675001,10.781473 C 9.039894,10.75209 8.7646323,10.849388 8.7722559,11.394807 L 8.7860867,12.33621"
       id="path3725-8"
       inkscape:connector-curvature="0"
       sodipodi:nodetypes="cccc" />
    <path
       style="opacity:0.6;fill:none;stroke:#000000;stroke-width:0.45496339;stroke-miterlimit:4;stroke-dasharray:none;stroke-opacity:1"
       d="M 21.175092,16.828056 L 21.187225,15.897098 L 2.6945406,15.872363 L 2.6823779,16.669703"
       id="path3721-1"
       inkscape:connector-curvature="0"
       sodipodi:nodetypes="cccc" />
    <path
       style="opacity:0.6;fill:none;stroke:#ffffff;stroke-width:0.30000001;stroke-miterlimit:4;stroke-dasharray:none;stroke-opacity:1;filter:url(#filter5801-9)"
       d="M 10.074534,15.237319 L 19.358784,15.261789"
       id="path3727-5-4"
       inkscape:connector-curvature="0"
       sodipodi:nodetypes="cc"
       transform="matrix(0,-1.5165446,1.5165446,0,-2.2993872,46.247443)" />
    <path
       style="opacity:0.6;fill:none;stroke:#000000;stroke-width:0.45496339;stroke-miterlimit:4;stroke-dasharray:none;stroke-opacity:1"
       d="M 2.8957847,30.920178 L 2.8964247,16.755102"
       id="path3727-5-4-8"
       inkscape:connector-curvature="0"
       sodipodi:nodetypes="cc" />
    <rect
       style="fill:#fdfeff;fill-opacity:1;stroke:none;stroke-width:0.3853426;marker:none;visibility:visible;display:inline;overflow:visible;enable-background:accumulate"
       id="rect4500-7-1"
       width="1.741207"
       height="10.144512"
       x="6.4070487"
       y="19.424509"
       ry="0.39017355"
       rx="0.34253249" />
    <path
       style="opacity:0.6;fill:none;stroke:#000000;stroke-width:0.50911146;marker:none;stroke-opacity:1;visibility:visible;display:inline;overflow:visible;enable-background:accumulate"
       d="M 6.6361839,29.254344 L 6.6487298,20.029228 C 6.6490239,19.813073 6.5835362,19.63088 6.9912622,19.639055 L 7.5976074,19.6512 C 7.9174651,19.657657 7.9401398,19.825218 7.9401398,20.041373"
       id="rect4500-6-4-9"
       inkscape:connector-curvature="0"
       sodipodi:nodetypes="csssc" />
    <rect
       style="fill:#fdfeff;fill-opacity:1;stroke:none;stroke-width:0.3853426;marker:none;visibility:visible;display:inline;overflow:visible;enable-background:accumulate"
       id="rect4500-7-1-4"
       width="1.741207"
       height="10.144512"
       x="15.952185"
       y="19.55608"
       ry="0.39017355"
       rx="0.34253249" />
    <path
       style="opacity:0.6;fill:none;stroke:#000000;stroke-width:0.50911146;marker:none;stroke-opacity:1;visibility:visible;display:inline;overflow:visible;enable-background:accumulate"
       d="M 16.181319,29.385914 L 16.193906,20.160798 C 16.194199,19.944643 16.12871,19.76245 16.536437,19.770624 L 17.142782,19.782756 C 17.46264,19.789277 17.485315,19.956772 17.485315,20.172928"
       id="rect4500-6-4-9-35"
       inkscape:connector-curvature="0"
       sodipodi:nodetypes="csssc" />
    <rect
       style="fill:#fdfeff;fill-opacity:1;stroke:none;stroke-width:0.3853426;marker:none;visibility:visible;display:inline;overflow:visible;enable-background:accumulate"
       id="rect4500-7-1-2"
       width="1.741207"
       height="10.144512"
       x="11.06962"
       y="19.418543"
       ry="0.39017355"
       rx="0.34253249" />
    <path
       style="opacity:0.6;fill:none;stroke:#000000;stroke-width:0.50911146;marker:none;stroke-opacity:1;visibility:visible;display:inline;overflow:visible;enable-background:accumulate"
       d="M 11.298755,29.248378 L 11.311296,20.023261 C 11.31159,19.807106 11.246102,19.624913 11.653828,19.633089 L 12.260174,19.645221 C 12.580031,19.651742 12.602706,19.819237 12.602706,20.035391"
       id="rect4500-6-4-9-7"
       inkscape:connector-curvature="0"
       sodipodi:nodetypes="csssc" />
    <path
       style="opacity:0.1;fill:#ffffff;fill-opacity:1;stroke:none"
       d="M 6.3006094,12.096826 L 6.3006094,10.06747 C 6.3006094,8.2255121 7.3480596,8.1780662 8.3594738,8.1780662 L 15.603621,8.1780662 C 16.773281,8.1976069 17.929374,8.6924439 17.929374,10.312392 L 17.929374,12.236784 L 22.466497,12.236784 C 23.438449,12.200918 23.900515,12.473042 23.877199,13.531375 L 23.877199,15.665697 C 23.88008,16.493759 23.833295,16.753868 23.153833,16.815478 L 21.393913,16.840212 L 21.393913,15.690434 C 7.248666,16.163667 9.7996496,13.609734 6.3006094,12.096826 L 6.3006094,12.096826 z"
       id="path3721-6"
       inkscape:connector-curvature="0"
       sodipodi:nodetypes="ccccccccccccc" />
    <path
       style="opacity:0.1;fill:#ffffff;fill-opacity:1;stroke:none"
       d="M 3.0952931,16.747069 C 7.0303488,27.253472 18.593889,19.893775 20.794482,30.775164 C 20.840479,31.435583 20.26712,31.825503 19.554326,31.888507 L 4.3219697,31.900942 C 3.5989166,31.900942 3.1243173,31.640335 3.1243173,30.982245 L 3.0952931,16.747069 z"
       id="path3727-4"
       inkscape:connector-curvature="0"
       sodipodi:nodetypes="cccccc" />
  </g>
</svg>
