<?xml version="1.0" encoding="UTF-8" standalone="no"?>
<!-- Created with Inkscape (http://www.inkscape.org/) -->
<svg
   xmlns:dc="http://purl.org/dc/elements/1.1/"
   xmlns:cc="http://creativecommons.org/ns#"
   xmlns:rdf="http://www.w3.org/1999/02/22-rdf-syntax-ns#"
   xmlns:svg="http://www.w3.org/2000/svg"
   xmlns="http://www.w3.org/2000/svg"
   xmlns:xlink="http://www.w3.org/1999/xlink"
   xmlns:sodipodi="http://sodipodi.sourceforge.net/DTD/sodipodi-0.dtd"
   xmlns:inkscape="http://www.inkscape.org/namespaces/inkscape"
   width="24"
   height="24"
   id="svg2383"
   sodipodi:version="0.32"
   inkscape:version="0.46"
   version="1.0"
   sodipodi:docname="incomplete.svg"
   inkscape:output_extension="org.inkscape.output.svg.inkscape"
   inkscape:export-filename="/home/rameses/RAMESES-DEV/image project(S)/Inkscape projects/Menu Icons/Blue - MLGLOBAL/Output/incomplete24.png"
   inkscape:export-xdpi="90"
   inkscape:export-ydpi="90">
  <defs
     id="defs2385">
    <linearGradient
       id="linearGradient5033">
      <stop
         id="stop5035"
         offset="0"
         style="stop-color:#3a6dd2;stop-opacity:1;" />
      <stop
         id="stop16944"
         offset="1"
         style="stop-color:#0e3f9e;stop-opacity:1;" />
    </linearGradient>
    <linearGradient
       inkscape:collect="always"
       xlink:href="#linearGradient5033"
       id="linearGradient157048"
       gradientUnits="userSpaceOnUse"
       gradientTransform="matrix(1.0827415,0,0,1.4008305,1.1674276,-2.4228291)"
       x1="10.065653"
       y1="17.494852"
       x2="14.499867"
       y2="22.150213" />
  </defs>
  <sodipodi:namedview
     id="base"
     pagecolor="#ffffff"
     bordercolor="#666666"
     borderopacity="1.0"
     inkscape:pageopacity="0.0"
     inkscape:pageshadow="2"
     inkscape:zoom="9.625"
     inkscape:cx="11.78618"
     inkscape:cy="8.1012294"
     inkscape:current-layer="layer1"
     showgrid="true"
     inkscape:grid-bbox="true"
     inkscape:document-units="px"
     inkscape:window-width="1013"
     inkscape:window-height="688"
     inkscape:window-x="0"
     inkscape:window-y="58"
     showguides="true"
     inkscape:guide-bbox="true"
     inkscape:window-maximized="0"
     inkscape:snap-global="false" />
  <metadata
     id="metadata2388">
    <rdf:RDF>
      <cc:Work
         rdf:about="">
        <dc:format>image/svg+xml</dc:format>
        <dc:type
           rdf:resource="http://purl.org/dc/dcmitype/StillImage" />
        <dc:title />
      </cc:Work>
    </rdf:RDF>
  </metadata>
  <g
     id="layer1"
     inkscape:label="Layer 1"
     inkscape:groupmode="layer"
     transform="translate(0,-8)">
    <path
       style="fill:url(#linearGradient157048);fill-opacity:1;stroke:none;stroke-width:0.347;marker:none;visibility:visible;display:inline;overflow:visible;enable-background:accumulate"
       d="M 1.2042193,8.8780972 L 14.16388,8.8780972 L 18.553075,13.344003 L 18.49465,31.281907 L 1.1677046,31.344973 L 1.2042193,8.8780972 z"
       id="path120775"
       inkscape:connector-curvature="0"
       sodipodi:nodetypes="cccccc" />
    <path
       style="opacity:0.1;fill:#ffffff;fill-opacity:1;stroke:none;stroke-width:0.347;marker:none;visibility:visible;display:inline;overflow:visible;enable-background:accumulate"
       d="M 1.2088288,8.8824823 L 14.164855,8.8915833 L 18.479208,13.277346 C 7.9031462,11.355468 9.1908672,22.874243 1.1651769,27.053839 L 1.2088288,8.8824823 z"
       id="path157032"
       inkscape:connector-curvature="0"
       sodipodi:nodetypes="ccccc" />
    <path
       style="fill:none;stroke:#1f3156;stroke-width:0.47624132;marker:none;stroke-miterlimit:4;stroke-opacity:1;visibility:visible;display:inline;overflow:visible;enable-background:accumulate"
       d="M 1.1606434,31.294346 L 1.1502754,9.0633932 L 14.518327,9.0701767"
       id="path120778"
       inkscape:connector-curvature="0"
       sodipodi:nodetypes="ccc" />
    <path
       style="fill:none;fill-rule:evenodd;stroke:#1f3156;stroke-width:0.98853081;stroke-linecap:butt;stroke-linejoin:miter;stroke-miterlimit:4;stroke-dasharray:none;stroke-opacity:1"
       d="M 0.48139027,8.508528 L 14.209327,8.4954365 L 18.143498,12.627582 L 18.08832,31.514153 L 0.51161266,31.513679 L 0.48139027,8.508528 z"
       id="path22382"
       sodipodi:nodetypes="cccccc"
       inkscape:export-xdpi="90"
       inkscape:export-ydpi="90" />
    <rect
       style="fill:#ffffff;fill-opacity:1;fill-rule:evenodd;stroke:#ffffff;stroke-width:0.57253712;stroke-linecap:round;stroke-linejoin:miter;marker:none;marker-start:none;marker-mid:none;marker-end:none;stroke-miterlimit:4;stroke-dasharray:none;stroke-dashoffset:0;stroke-opacity:1;visibility:visible;display:inline;overflow:visible;enable-background:accumulate"
       id="rect23171"
       width="10.192112"
       height="1.7148879"
       x="3.4256923"
       y="11.683238"
       inkscape:export-xdpi="90"
       inkscape:export-ydpi="90" />
    <rect
       style="fill:#ffffff;fill-opacity:1;fill-rule:evenodd;stroke:#ffffff;stroke-width:0.57253712;stroke-linecap:round;stroke-linejoin:miter;marker:none;marker-start:none;marker-mid:none;marker-end:none;stroke-miterlimit:4;stroke-dasharray:none;stroke-dashoffset:0;stroke-opacity:1;visibility:visible;display:inline;overflow:visible;enable-background:accumulate"
       id="rect23193"
       width="10.192112"
       height="1.7148879"
       x="3.2846124"
       y="15.606456"
       inkscape:export-xdpi="90"
       inkscape:export-ydpi="90" />
    <path
       style="font-size:17.68049239999999855px;font-style:normal;font-weight:normal;fill:#ff6600;fill-opacity:1;stroke:#1f3156;stroke-width:1.10849928999999991px;stroke-linecap:butt;stroke-linejoin:miter;stroke-opacity:1;font-family:Bitstream Vera Sans"
       d="M 12.755447,22.014867 C 12.763554,21.469022 12.832476,20.971906 12.962211,20.523515 C 13.091944,20.068648 13.258166,19.68525 13.460878,19.373323 C 13.663585,19.054919 13.91089,18.778743 14.202795,18.544794 C 14.502803,18.304371 14.802813,18.112671 15.102827,17.969697 C 15.410941,17.826748 15.743384,17.713028 16.100158,17.628538 C 16.465031,17.537575 16.801528,17.479091 17.109652,17.453085 C 17.417765,17.420607 17.738047,17.404362 18.070497,17.404349 C 19.684059,17.404362 20.997616,17.778011 22.011174,18.525299 C 23.024711,19.272611 23.531485,20.2441 23.531497,21.439771 C 23.531485,22.180582 23.349047,22.788169 22.984181,23.262535 C 22.619293,23.736914 21.926026,24.263274 20.904379,24.841613 C 20.247591,25.212019 19.838118,25.510939 19.675958,25.738373 C 19.52189,25.959319 19.444861,26.355713 19.44487,26.927556 L 16.732613,26.927556 L 16.732613,26.693618 C 16.732608,26.264737 16.801528,25.874842 16.939376,25.523931 C 17.077213,25.17303 17.251543,24.880608 17.462368,24.646665 C 17.681288,24.412733 17.920485,24.195041 18.17996,23.99359 C 18.44753,23.79215 18.711053,23.6037 18.970528,23.42824 C 19.238097,23.252794 19.477294,23.077342 19.68812,22.901881 C 19.907038,22.726435 20.085424,22.52174 20.223274,22.287795 C 20.361109,22.047367 20.430029,21.784188 20.430039,21.498256 C 20.430029,20.919919 20.211103,20.439048 19.773259,20.05564 C 19.343506,19.665755 18.800244,19.470808 18.143473,19.470797 C 17.446145,19.470808 16.870449,19.694998 16.416385,20.143367 C 15.962311,20.585259 15.735276,21.144109 15.73528,21.819919 L 15.73528,21.985626 L 15.73528,22.014867 L 12.755447,22.014867 M 19.668936,28.923566 L 19.668936,31.487131 L 16.360713,31.487131 L 16.360713,28.923566 L 19.668936,28.923566"
       id="text11383"
       sodipodi:nodetypes="csssssssssssscccssssssssssccccccccc" />
  </g>
</svg>
