<?xml version="1.0" encoding="UTF-8" standalone="no"?>
<!-- Created with Inkscape (http://www.inkscape.org/) -->
<svg
   xmlns:dc="http://purl.org/dc/elements/1.1/"
   xmlns:cc="http://creativecommons.org/ns#"
   xmlns:rdf="http://www.w3.org/1999/02/22-rdf-syntax-ns#"
   xmlns:svg="http://www.w3.org/2000/svg"
   xmlns="http://www.w3.org/2000/svg"
   xmlns:xlink="http://www.w3.org/1999/xlink"
   xmlns:sodipodi="http://sodipodi.sourceforge.net/DTD/sodipodi-0.dtd"
   xmlns:inkscape="http://www.inkscape.org/namespaces/inkscape"
   width="24"
   height="24"
   id="svg2"
   sodipodi:version="0.32"
   inkscape:version="0.46"
   version="1.0"
   sodipodi:docname="refresh24.svg"
   inkscape:output_extension="org.inkscape.output.svg.inkscape"
   inkscape:export-filename="/home/rameses/RAMESES-DEV/image project(S)/Inkscape projects/Menu Icons/Blue - MLGLOBAL/Output/refresh24.png"
   inkscape:export-xdpi="90"
   inkscape:export-ydpi="90">
  <defs
     id="defs4">
    <linearGradient
       id="linearGradient8581">
      <stop
         style="stop-color:#3a6dd2;stop-opacity:1;"
         offset="0"
         id="stop8583" />
      <stop
         style="stop-color:#0e3f9e;stop-opacity:1;"
         offset="1"
         id="stop8585" />
    </linearGradient>
    <linearGradient
       inkscape:collect="always"
       xlink:href="#linearGradient8581"
       id="linearGradient4479"
       gradientUnits="userSpaceOnUse"
       gradientTransform="matrix(0.9916804,0,0,0.9916804,4.459043e-2,0.1112671)"
       x1="3.3601284"
       y1="8.1681128"
       x2="9.2337637"
       y2="14.293113" />
    <linearGradient
       inkscape:collect="always"
       xlink:href="#linearGradient8581"
       id="linearGradient4481"
       gradientUnits="userSpaceOnUse"
       gradientTransform="matrix(0.9897813,0,0,0.9897813,8.870592e-2,0.3764129)"
       x1="7.2498279"
       y1="17.817638"
       x2="9.8734627"
       y2="23.161388" />
  </defs>
  <sodipodi:namedview
     id="base"
     pagecolor="#ffffff"
     bordercolor="#666666"
     borderopacity="1.0"
     gridtolerance="10000"
     guidetolerance="10"
     objecttolerance="10"
     inkscape:pageopacity="0.0"
     inkscape:pageshadow="2"
     inkscape:zoom="22.627418"
     inkscape:cx="12.225547"
     inkscape:cy="6.9225135"
     inkscape:document-units="px"
     inkscape:current-layer="layer1"
     showgrid="false"
     inkscape:window-width="768"
     inkscape:window-height="706"
     inkscape:window-x="123"
     inkscape:window-y="25"
     inkscape:snap-global="false"
     inkscape:window-maximized="1" />
  <metadata
     id="metadata7">
    <rdf:RDF>
      <cc:Work
         rdf:about="">
        <dc:format>image/svg+xml</dc:format>
        <dc:type
           rdf:resource="http://purl.org/dc/dcmitype/StillImage" />
        <dc:title />
      </cc:Work>
    </rdf:RDF>
  </metadata>
  <g
     inkscape:label="Layer 1"
     inkscape:groupmode="layer"
     id="layer1"
     transform="translate(0,-8)">
    <g
       id="g4469"
       transform="matrix(1.5032029,0,0,1.4412445,-4.780046e-2,-3.5752608)">
      <path
         sodipodi:nodetypes="cccccccccc"
         inkscape:connector-curvature="0"
         id="path3047"
         d="M 3.4877192,16.531723 C 3.3425508,13.831172 5.5946872,9.4829195 10.98902,12.325982 L 10.084342,13.479768 C 9.7971834,13.7633 9.7447717,14.420593 10.272818,14.44746 L 15.743164,14.692965 L 15.512421,9.2740259 C 15.512421,8.8099053 14.801439,8.7105843 14.532351,8.9762739 L 13.514586,10.204499 C 8.9816851,6.4506057 0.09425305,7.9028027 0.24595193,16.531723 L 3.4877192,16.531723 z"
         style="fill:url(#linearGradient4479);fill-opacity:1;stroke:#0e3f9e;stroke-width:0.30442405;stroke-linecap:butt;stroke-linejoin:miter;stroke-miterlimit:4;stroke-dasharray:none;stroke-opacity:1" />
      <path
         sodipodi:nodetypes="ccccccc"
         inkscape:connector-curvature="0"
         id="path3047-0"
         d="M 15.213781,9.5196829 C 15.314498,8.963149 14.781926,9.0515452 14.601598,9.3473447 L 13.569258,10.615574 C 9.4091395,6.8978571 0.40117341,7.9058667 0.54869359,16.380395 M 11.469646,12.125782 L 10.667363,13.235683 C 10.395862,13.537384 9.9265287,14.11319 10.277332,14.155069"
         style="opacity:0.6;fill:none;stroke:#000000;stroke-width:0.29750413;stroke-miterlimit:4;stroke-dasharray:none;stroke-opacity:1" />
      <path
         sodipodi:nodetypes="cccccc"
         inkscape:connector-curvature="0"
         id="path3047-8"
         d="M 0.69409118,16.231834 L 3.1795357,16.242794 C 3.1305577,13.596981 5.62089,9.0185095 11.284996,12.167087 M 10.244006,14.142007 L 15.439705,14.398615 L 15.230813,9.5259903"
         style="opacity:0.4;fill:none;stroke:#000000;stroke-width:0.29750413;stroke-miterlimit:4;stroke-dasharray:none;stroke-opacity:1" />
      <path
         sodipodi:nodetypes="cccccc"
         inkscape:connector-curvature="0"
         id="path3047-38"
         d="M 15.595962,14.545763 L 15.365219,9.3824906 C 15.365219,8.91837 14.847925,8.8732816 14.578836,9.1389712 L 13.568818,10.413681 C 10.328394,7.7301437 4.8905883,7.5746196 2.0925343,10.931999 C 13.306171,7.1418405 10.369249,13.685594 15.595962,14.545763 z"
         style="opacity:0.1;fill:#ffffff;fill-opacity:1;stroke:none" />
    </g>
    <g
       id="g4461"
       transform="matrix(1.5032029,0,0,1.3868078,-4.780046e-2,-1.2847487)">
      <path
         sodipodi:nodetypes="cccccccccc"
         inkscape:connector-curvature="0"
         id="path3047-3"
         d="M 12.503362,15.58444 C 12.648253,18.279819 10.400428,22.619745 5.016426,19.782127 L 5.9193719,18.63055 C 6.2059809,18.347561 6.2582918,17.691527 5.731257,17.664712 L 0.27138667,17.419677 L 0.501688,22.828239 C 0.501688,23.291471 1.2113077,23.390602 1.4798809,23.12542 L 2.4956965,21.899548 C 7.0199177,25.646252 15.89033,24.196836 15.738921,15.58444 L 12.503362,15.58444 z"
         style="fill:url(#linearGradient4481);fill-opacity:1;stroke:#0e3f9e;stroke-width:0.30384108;stroke-linecap:butt;stroke-linejoin:miter;stroke-miterlimit:4;stroke-dasharray:none;stroke-opacity:1" />
      <path
         sodipodi:nodetypes="ccccccc"
         inkscape:connector-curvature="0"
         id="path3047-0-7"
         d="M 0.7997557,22.583052 C 0.69923153,23.13852 1.2307837,23.050293 1.4107665,22.75506 L 2.4411298,21.489259 C 6.5932814,25.199858 15.583997,24.193778 15.436759,15.735479 M 4.5367206,19.981943 L 5.3374676,18.874168 C 5.6084489,18.573045 6.0768827,17.998341 5.7267516,17.956543"
         style="opacity:0.4;fill:none;stroke:#000000;stroke-width:0.2969344;stroke-miterlimit:4;stroke-dasharray:none;stroke-opacity:1" />
      <path
         sodipodi:nodetypes="cccccc"
         inkscape:connector-curvature="0"
         id="path3047-8-2"
         d="M 15.29164,15.883755 L 12.810956,15.872815 C 12.859836,18.513561 10.374276,23.083265 4.7210169,19.940717 M 5.7600142,17.969578 L 0.57426471,17.713461 L 0.7827562,22.576756"
         style="opacity:0.6;fill:none;stroke:#000000;stroke-width:0.2969344;stroke-miterlimit:4;stroke-dasharray:none;stroke-opacity:1" />
      <path
         sodipodi:nodetypes="cccccc"
         inkscape:connector-curvature="0"
         id="path3047-3-0"
         d="M 11.304052,19.513677 C 9.9937623,20.962082 7.8319344,21.435389 4.8195844,19.847741 L 5.7990798,18.532129 C 6.0856888,18.24914 6.1270642,17.811819 5.6000294,17.785004 L 0.41355001,17.572776 C 1.3058947,23.160746 10.553513,22.825653 11.304052,19.513677 z"
         style="opacity:0.1;fill:#ffffff;fill-opacity:1;stroke:none" />
    </g>
  </g>
</svg>
