<?xml version="1.0" encoding="UTF-8" standalone="no"?>
<!-- Created with Inkscape (http://www.inkscape.org/) -->
<svg
   xmlns:dc="http://purl.org/dc/elements/1.1/"
   xmlns:cc="http://creativecommons.org/ns#"
   xmlns:rdf="http://www.w3.org/1999/02/22-rdf-syntax-ns#"
   xmlns:svg="http://www.w3.org/2000/svg"
   xmlns="http://www.w3.org/2000/svg"
   xmlns:xlink="http://www.w3.org/1999/xlink"
   xmlns:sodipodi="http://sodipodi.sourceforge.net/DTD/sodipodi-0.dtd"
   xmlns:inkscape="http://www.inkscape.org/namespaces/inkscape"
   width="24"
   height="24"
   id="svg3171"
   sodipodi:version="0.32"
   inkscape:version="0.46"
   version="1.0"
   sodipodi:docname="save24.svg"
   inkscape:output_extension="org.inkscape.output.svg.inkscape"
   inkscape:export-filename="/home/rameses/RAMESES-DEV/image project(S)/Inkscape projects/Menu Icons/Blue - MLGLOBAL/Output/save24.png"
   inkscape:export-xdpi="90"
   inkscape:export-ydpi="90">
  <defs
     id="defs3173">
    <linearGradient
       id="linearGradient5201">
      <stop
         style="stop-color:#3a6dd2;stop-opacity:1;"
         offset="0"
         id="stop5203" />
      <stop
         style="stop-color:#0e3f9e;stop-opacity:1;"
         offset="1"
         id="stop5205" />
    </linearGradient>
    <linearGradient
       inkscape:collect="always"
       xlink:href="#linearGradient5201"
       id="linearGradient5207"
       x1="9.1361704"
       y1="16.379946"
       x2="13.393736"
       y2="21.719318"
       gradientUnits="userSpaceOnUse"
       gradientTransform="matrix(1.5030762,0,0,1.4988134,-7.1938622e-2,-4.0346987)" />
    <linearGradient
       inkscape:collect="always"
       xlink:href="#linearGradient5201"
       id="linearGradient5215"
       x1="3.4799955"
       y1="17.287148"
       x2="12.445175"
       y2="17.287148"
       gradientUnits="userSpaceOnUse"
       gradientTransform="matrix(1.498862,0,0,1.498862,-5.0809683e-3,-4.0354783)" />
    <linearGradient
       inkscape:collect="always"
       xlink:href="#linearGradient5201"
       id="linearGradient5223"
       x1="3.4909883"
       y1="20.069269"
       x2="12.456168"
       y2="20.069269"
       gradientUnits="userSpaceOnUse"
       gradientTransform="matrix(1.498862,0,0,1.498862,-5.0809683e-3,-4.0354783)" />
    <linearGradient
       inkscape:collect="always"
       xlink:href="#linearGradient5201"
       id="linearGradient5231"
       x1="7.3406849"
       y1="10.315468"
       x2="9.477479"
       y2="11.906458"
       gradientUnits="userSpaceOnUse"
       gradientTransform="matrix(1.498862,0,0,1.498862,-5.0809683e-3,-4.0354783)" />
  </defs>
  <sodipodi:namedview
     id="base"
     pagecolor="#ffffff"
     bordercolor="#666666"
     borderopacity="1.0"
     inkscape:pageopacity="0.0"
     inkscape:pageshadow="2"
     inkscape:zoom="11.313709"
     inkscape:cx="-2.5470043"
     inkscape:cy="13.711961"
     inkscape:current-layer="layer1"
     showgrid="true"
     inkscape:grid-bbox="true"
     inkscape:document-units="px"
     inkscape:window-width="1013"
     inkscape:window-height="706"
     inkscape:window-x="-5"
     inkscape:window-y="25"
     inkscape:snap-global="false"
     inkscape:window-maximized="1"
     width="16px"
     showguides="true"
     inkscape:guide-bbox="true" />
  <metadata
     id="metadata3176">
    <rdf:RDF>
      <cc:Work
         rdf:about="">
        <dc:format>image/svg+xml</dc:format>
        <dc:type
           rdf:resource="http://purl.org/dc/dcmitype/StillImage" />
        <dc:title />
      </cc:Work>
    </rdf:RDF>
  </metadata>
  <g
     id="layer1"
     inkscape:label="Layer 1"
     inkscape:groupmode="layer"
     transform="translate(0,-7.9999605)">
    <path
       style="fill:url(#linearGradient5207);fill-opacity:1;stroke:#1c4873;stroke-width:0.54542732px;stroke-linecap:butt;stroke-linejoin:miter;stroke-opacity:1"
       d="M 3.3726865,8.3620828 L 1.1036236,8.3620819 C 0.46686103,8.3827977 0.28884729,8.9493121 0.28289877,9.517466 L 0.30703735,30.771726 C 0.33615289,31.25866 0.79327105,31.6677 1.3450129,31.662335 L 22.678503,31.713399 C 23.407965,31.768497 23.679656,31.301125 23.634831,30.606157 C 23.634831,30.606157 23.598903,13.889814 23.601136,12.887344 C 23.603235,11.963111 19.135426,8.4342954 19.135426,8.4342954 L 16.504275,8.4342954 L 3.3726865,8.3620828 z"
       id="path3588"
       inkscape:connector-curvature="0"
       sodipodi:nodetypes="cccccccsccc" />
    <path
       style="opacity:0.6;fill:none;stroke:#000000;stroke-width:0.54040682px;stroke-linecap:butt;stroke-linejoin:miter;stroke-opacity:1"
       d="M 19.073172,8.933992 L 16.895276,8.9504091 L 3.8919073,8.8788204 L 1.6450003,8.8788195 C 0.60044886,8.7337516 0.82161912,9.3781711 0.83228919,10.024214 L 0.85618704,31.094729"
       id="path3588-1"
       inkscape:connector-curvature="0"
       sodipodi:nodetypes="cccccc" />
    <path
       style="fill:#ffffff;fill-opacity:1;stroke:none"
       d="M 16.235811,8.4239076 L 16.235811,15.775661 L 3.9113122,15.775661 L 3.9444325,8.3587071 L 16.235811,8.4239076 z"
       id="path3590"
       inkscape:connector-curvature="0"
       sodipodi:nodetypes="ccccc" />
    <path
       style="fill:url(#linearGradient5231);fill-opacity:1;stroke:none"
       d="M 14.465316,9.3650381 L 14.465316,14.811747 L 9.9377374,14.811747 L 9.9377374,9.3650381 L 14.465316,9.3650381 z"
       id="path3594"
       inkscape:connector-curvature="0"
       sodipodi:nodetypes="ccccc" />
    <path
       style="opacity:0.6;fill:none;stroke:#000000;stroke-width:0.59954482;stroke-linecap:butt;stroke-linejoin:miter;stroke-miterlimit:4;stroke-dasharray:none;stroke-opacity:1"
       d="M 14.459959,9.3643814 L 9.9402147,9.3614414 L 9.9402147,14.813206"
       id="path5259"
       inkscape:connector-curvature="0"
       sodipodi:nodetypes="ccc" />
    <path
       style="opacity:0.6;fill:none;stroke:#1a1a1a;stroke-width:0.99322778px;stroke-linecap:butt;stroke-linejoin:miter;stroke-opacity:1"
       d="M 19.793601,18.80883 C 20.041908,19.243367 19.731524,29.144607 19.731524,29.144607 L 3.8398785,29.144607"
       id="path5229-3"
       inkscape:connector-curvature="0"
       sodipodi:nodetypes="ccc" />
    <path
       style="fill:#ffffff;fill-opacity:1;stroke:none"
       d="M 19.741817,18.69253 C 19.809895,19.169116 19.707793,29.177446 19.707793,29.177446 L 4.0144565,29.177446 L 4.0144565,18.72657 L 19.741817,18.69253 z"
       id="path3596"
       inkscape:connector-curvature="0"
       sodipodi:nodetypes="ccccc" />
    <path
       style="fill:url(#linearGradient5215);fill-opacity:1;stroke:none"
       d="M 5.5463273,21.279718 C 5.0766929,21.294781 5.1222057,22.490785 5.5463273,22.471187 L 18.24397,22.471187 C 18.778572,22.463992 18.788142,21.30095 18.24397,21.279718 L 5.5463273,21.279718 z"
       id="path3598"
       inkscape:connector-curvature="0"
       sodipodi:nodetypes="ccccc" />
    <path
       style="fill:url(#linearGradient5223);fill-opacity:1;stroke:none"
       d="M 5.5628043,25.449734 C 5.0931696,25.464798 5.1386824,26.660803 5.5628043,26.641204 L 18.260448,26.641204 C 18.795048,26.634009 18.804619,25.470969 18.260448,25.449734 L 5.5628043,25.449734 z"
       id="path3598-1"
       inkscape:connector-curvature="0"
       sodipodi:nodetypes="ccccc" />
    <path
       style="opacity:0.6;fill:none;stroke:#000000;stroke-width:0.29796836;stroke-miterlimit:4;stroke-dasharray:none;stroke-opacity:1"
       d="M 18.48991,21.398915 L 5.6370742,21.398915 C 5.1674397,21.413972 5.2832115,22.446044 5.7073331,22.426445"
       id="path3598-8"
       inkscape:connector-curvature="0"
       sodipodi:nodetypes="ccc" />
    <path
       style="opacity:0.6;fill:none;stroke:#000000;stroke-width:0.29796836;stroke-miterlimit:4;stroke-dasharray:none;stroke-opacity:1"
       d="M 18.580906,25.503533 L 5.6970315,25.441456 C 5.2273977,25.456513 5.29633,26.582265 5.7204508,26.562666"
       id="path3598-8-3"
       inkscape:connector-curvature="0"
       sodipodi:nodetypes="ccc" />
    <path
       style="opacity:0.6;fill:none;stroke:#000000;stroke-width:0.59860152;stroke-linecap:butt;stroke-linejoin:miter;stroke-miterlimit:4;stroke-dasharray:none;stroke-opacity:1"
       d="M 3.9052839,15.983245 L 16.376348,15.983245 L 16.37619,9.2191887"
       id="path4138"
       inkscape:connector-curvature="0"
       sodipodi:nodetypes="ccc" />
    <path
       style="opacity:0.1;fill:#ffffff;fill-opacity:1;stroke:none"
       d="M 3.6584724,8.5531772 L 1.4090359,8.5531763 C 0.77778003,8.5736048 0.51850465,8.8673176 0.54572741,9.725695 L 0.60287393,30.048523 C 0.63173616,30.528718 1.084901,30.932101 1.6318724,30.92681 C 15.75892,27.678251 9.755666,15.656951 23.061669,12.950503 C 23.177336,11.709307 18.873297,8.6243907 18.873297,8.6243907 L 16.676484,8.6243907 L 3.6584724,8.5531772 z"
       id="path3588-8"
       inkscape:connector-curvature="0"
       sodipodi:nodetypes="ccccccccc" />
  </g>
</svg>
